if (_typeface_js && _typeface_js.loadFace) _typeface_js.loadFace({"glyphs":{"ợ":{"x_min":36,"x_max":694,"ha":643,"o":"m 453 342 q 415 500 453 445 q 307 556 377 556 q 225 527 258 556 q 171 456 192 499 q 142 364 151 414 q 134 270 134 314 q 145 184 134 225 q 176 114 156 144 q 223 66 196 83 q 280 48 249 48 q 336 62 312 48 q 380 99 361 76 q 413 153 400 123 q 436 216 427 183 q 448 281 444 249 q 453 342 453 314 m 694 704 q 681 647 694 674 q 646 597 668 620 q 594 552 624 573 q 529 515 564 532 q 550 379 550 456 q 539 287 550 333 q 510 197 529 240 q 461 113 490 153 q 394 42 432 73 q 357 15 377 28 q 317 -7 337 2 q 276 -22 297 -17 q 234 -28 255 -28 q 150 -7 187 -28 q 87 46 113 12 q 49 129 62 81 q 36 233 36 177 q 44 327 36 282 q 70 414 52 372 q 119 495 88 456 q 194 569 149 533 q 270 616 229 597 q 354 635 311 635 q 450 612 411 635 q 512 551 489 590 q 564 593 547 568 q 581 653 581 618 q 575 679 581 665 q 550 704 570 694 l 664 758 q 687 733 681 748 q 694 704 694 719 m 285 -173 q 279 -210 285 -192 q 262 -244 273 -229 q 235 -269 251 -260 q 201 -279 220 -279 q 168 -266 180 -279 q 157 -231 157 -254 q 163 -194 157 -213 q 180 -160 169 -175 q 206 -134 191 -144 q 240 -125 221 -125 q 273 -137 261 -125 q 285 -173 285 -150 "},"Ẩ":{"x_min":-24,"x_max":726.40625,"ha":778,"o":"m 251 301 l 154 75 q 164 45 144 54 q 237 29 184 36 l 233 0 l -24 0 l -19 29 q 48 46 22 37 q 83 75 74 56 l 413 833 q 434 850 422 841 q 459 866 446 858 q 484 881 472 874 q 504 893 495 888 l 651 75 q 656 59 653 66 q 668 46 660 51 q 690 36 676 40 q 726 29 704 32 l 723 0 l 462 0 l 464 31 q 533 42 512 31 q 550 75 554 54 l 511 301 l 251 301 m 500 363 l 437 732 l 277 363 l 500 363 m 667 943 q 652 924 657 930 q 636 913 647 917 l 490 1052 l 310 913 q 299 923 304 917 q 287 943 294 930 l 474 1147 l 536 1147 l 667 943 m 643 1403 q 625 1354 643 1375 q 586 1317 607 1333 q 546 1286 564 1300 q 529 1254 529 1271 q 535 1237 529 1246 q 557 1217 541 1227 q 538 1209 547 1211 q 518 1206 529 1208 q 481 1235 492 1222 q 471 1259 471 1248 q 479 1279 471 1270 q 500 1297 487 1289 q 527 1315 512 1306 q 555 1336 542 1325 q 576 1361 567 1348 q 585 1394 585 1375 q 576 1426 585 1413 q 546 1439 567 1439 q 523 1434 534 1439 q 504 1421 512 1429 q 493 1404 497 1413 q 493 1385 490 1394 q 481 1381 489 1383 q 464 1376 473 1378 q 447 1372 456 1373 q 433 1369 439 1370 l 426 1377 q 441 1414 426 1397 q 476 1444 455 1432 q 521 1464 497 1457 q 565 1471 545 1471 q 623 1451 604 1471 q 643 1403 643 1431 "},"ǻ":{"x_min":36,"x_max":643.953125,"ha":626,"o":"m 409 292 q 419 355 414 322 q 431 419 425 388 q 441 475 437 449 q 448 515 445 500 q 426 532 438 523 q 400 548 414 540 q 370 559 386 555 q 339 564 355 564 q 280 548 308 564 q 229 508 253 533 q 187 450 206 483 q 156 384 169 418 q 136 316 143 350 q 129 257 129 283 q 136 177 129 213 q 156 117 143 142 q 187 78 169 92 q 225 65 205 65 q 265 85 241 65 q 314 139 288 106 q 364 212 339 172 q 409 292 389 253 m 611 45 q 516 -10 552 7 q 460 -28 479 -28 q 436 -19 448 -28 q 416 12 425 -11 q 403 77 408 35 q 398 184 398 118 q 354 116 380 153 q 300 47 329 79 q 240 -6 270 14 q 180 -28 209 -28 q 132 -15 158 -28 q 85 25 107 -2 q 50 98 64 54 q 36 206 36 143 q 48 311 36 260 q 86 409 61 362 q 147 497 111 456 q 232 571 183 538 q 272 594 250 583 q 317 615 294 606 q 364 629 341 624 q 408 635 387 635 q 436 631 422 635 q 462 621 449 627 q 487 608 475 615 q 509 594 498 601 q 542 616 524 605 q 578 635 559 626 l 591 611 q 572 594 580 601 q 559 577 565 586 q 549 552 553 567 q 540 515 545 538 q 521 415 530 466 q 505 318 512 364 q 495 238 499 273 q 492 188 492 203 q 494 123 492 150 q 500 81 496 97 q 511 58 504 65 q 525 51 517 51 q 557 54 538 51 q 603 70 576 58 l 611 45 m 452 842 q 441 885 452 866 q 410 904 431 904 q 377 895 391 904 q 353 872 363 886 q 338 841 343 858 q 334 808 334 824 q 345 764 334 783 q 377 746 356 746 q 409 755 395 746 q 433 778 423 764 q 447 809 442 792 q 452 842 452 826 m 509 868 q 497 810 509 840 q 464 754 485 780 q 416 712 443 729 q 357 696 388 696 q 325 702 340 696 q 299 721 310 709 q 282 747 288 732 q 277 779 277 762 q 288 841 277 810 q 321 897 300 872 q 369 939 342 923 q 429 956 397 956 q 487 931 465 956 q 509 868 509 906 m 643 1217 l 403 981 q 387 988 392 983 q 372 1004 382 993 l 557 1274 q 574 1269 563 1272 q 596 1262 584 1266 q 618 1255 608 1259 q 633 1247 628 1251 l 643 1217 "},"ʉ":{"x_min":-4.125,"x_max":662.828125,"ha":693,"o":"m 238 54 q 273 66 251 54 q 321 105 294 78 q 380 177 348 133 q 446 285 412 221 l 197 285 q 189 223 192 251 q 186 177 186 195 q 199 83 186 112 q 238 54 213 54 m 661 45 q 568 -9 606 9 q 505 -28 530 -28 q 480 -16 492 -28 q 458 22 467 -4 q 445 93 449 50 q 442 201 442 137 q 386 109 416 151 q 322 36 355 67 q 253 -11 288 5 q 181 -28 218 -28 q 150 -17 168 -28 q 118 14 133 -6 q 92 66 103 35 q 82 139 82 97 q 86 201 82 162 q 98 285 91 240 l 8 285 l -4 299 q 5 322 0 310 q 16 346 10 335 l 109 346 q 117 397 113 372 q 124 445 121 423 q 129 486 127 468 q 132 515 132 504 q 129 540 132 531 q 124 553 127 549 q 115 559 120 558 q 104 561 110 561 q 86 558 98 561 q 63 552 75 556 q 34 544 50 549 l 26 569 q 83 594 54 582 q 136 615 112 606 q 179 629 161 624 q 206 635 198 635 q 233 622 226 635 q 240 578 240 609 q 236 535 240 561 q 229 478 233 509 q 218 413 224 447 q 207 346 213 379 l 463 346 q 480 438 472 394 q 488 515 488 483 q 486 540 488 531 q 481 553 484 549 q 473 559 477 558 q 462 561 468 561 q 445 558 456 561 q 424 552 435 556 q 398 544 412 549 l 388 569 q 444 594 417 582 q 496 615 472 606 q 537 629 519 624 q 563 635 554 635 q 588 622 582 635 q 595 578 595 609 q 591 535 595 561 q 584 478 588 509 q 573 414 579 448 q 561 346 567 379 l 649 346 l 662 329 l 641 285 l 550 285 q 542 221 545 250 q 539 172 539 191 q 547 80 539 110 q 573 51 556 51 q 609 55 591 51 q 651 70 627 60 l 661 45 "},"Ổ":{"x_min":61,"x_max":736,"ha":757,"o":"m 635 512 q 622 620 635 569 q 586 708 610 670 q 528 767 563 745 q 449 790 493 790 q 356 770 397 790 q 283 716 315 750 q 229 639 251 683 q 192 547 206 595 q 170 452 177 500 q 164 360 164 403 q 177 243 164 297 q 214 151 190 190 q 273 90 239 112 q 349 68 307 68 q 443 89 402 68 q 517 144 485 110 q 571 225 548 179 q 607 320 593 271 q 628 420 622 370 q 635 512 635 470 m 736 525 q 728 427 736 476 q 704 329 720 377 q 665 236 688 281 q 611 152 641 191 q 550 84 582 116 q 481 29 518 52 q 405 -7 445 6 q 319 -21 364 -21 q 205 6 254 -21 q 125 82 157 34 q 76 194 92 130 q 61 328 61 257 q 68 419 61 371 q 91 515 76 467 q 126 608 105 563 q 174 690 147 653 q 236 762 203 728 q 306 820 269 795 q 387 860 344 845 q 478 875 430 875 q 593 847 544 875 q 673 771 642 819 q 720 659 705 723 q 736 525 736 596 m 670 943 q 655 923 660 929 q 639 913 650 917 l 493 1052 l 313 913 q 302 923 307 917 q 290 943 297 929 l 477 1147 l 539 1147 l 670 943 m 646 1403 q 628 1354 646 1375 q 589 1317 610 1333 q 549 1285 567 1300 q 532 1254 532 1271 q 538 1237 532 1246 q 560 1216 544 1227 q 541 1209 550 1210 q 521 1206 532 1208 q 484 1235 495 1222 q 474 1259 474 1248 q 482 1279 474 1270 q 503 1297 490 1288 q 530 1315 515 1306 q 558 1336 545 1324 q 579 1361 570 1348 q 588 1394 588 1375 q 579 1426 588 1413 q 549 1439 570 1439 q 526 1434 537 1439 q 507 1421 515 1429 q 496 1404 500 1413 q 496 1385 493 1394 q 484 1380 492 1383 q 467 1376 476 1378 q 450 1372 459 1373 q 436 1369 442 1370 l 429 1377 q 444 1414 429 1397 q 479 1444 458 1432 q 524 1464 500 1457 q 568 1471 548 1471 q 626 1451 607 1471 q 646 1403 646 1431 "},"Ừ":{"x_min":113.796875,"x_max":976,"ha":925,"o":"m 976 962 q 959 897 976 928 q 915 841 943 867 q 851 793 888 815 q 772 754 814 771 l 715 347 q 673 189 703 258 q 601 73 644 120 q 501 3 557 27 q 377 -21 444 -21 q 275 -4 321 -21 q 195 45 229 12 q 144 125 162 78 q 126 236 126 173 q 132 313 126 271 l 198 783 q 178 803 199 791 q 113 825 157 815 l 117 854 l 395 854 l 391 825 q 322 804 348 815 q 294 783 296 792 l 234 345 q 232 306 232 325 q 232 268 232 286 q 243 182 232 221 q 277 116 255 144 q 334 73 300 88 q 412 58 368 58 q 493 79 456 58 q 559 137 530 101 q 606 220 587 173 q 631 317 625 266 l 694 783 q 676 803 695 791 q 613 825 657 815 l 617 855 l 849 855 q 864 911 864 878 q 858 937 864 923 q 833 962 853 952 l 946 1016 q 969 991 963 1006 q 976 962 976 977 m 615 945 q 600 925 606 931 q 583 913 594 919 l 311 1078 l 319 1110 q 336 1122 325 1115 q 359 1135 347 1129 q 383 1148 371 1142 q 403 1158 394 1154 l 615 945 "},"̂":{"x_min":-420.46875,"x_max":-41.375,"ha":0,"o":"m -41 726 q -55 706 -50 712 q -71 695 -61 700 l -212 875 l -398 695 q -408 706 -404 699 q -420 726 -413 712 l -227 978 l -165 978 l -41 726 "},"Á":{"x_min":-23.28125,"x_max":726.765625,"ha":778,"o":"m 252 301 l 155 75 q 165 45 145 54 q 237 29 185 36 l 233 0 l -23 0 l -19 29 q 49 46 23 37 q 83 75 75 56 l 414 833 q 435 850 422 841 q 460 866 447 858 q 485 881 473 874 q 505 893 496 888 l 652 75 q 657 59 653 66 q 669 46 660 51 q 691 36 677 40 q 726 29 705 32 l 724 0 l 462 0 l 465 31 q 534 42 513 31 q 551 75 555 54 l 512 301 l 252 301 m 501 363 l 437 732 l 278 363 l 501 363 m 701 1078 l 392 913 q 379 925 382 919 q 370 945 376 931 l 635 1158 l 650 1148 q 669 1135 659 1142 q 688 1122 679 1128 q 701 1110 696 1115 l 701 1078 "},"ṑ":{"x_min":36,"x_max":577.796875,"ha":586,"o":"m 453 342 q 415 500 453 445 q 307 556 377 556 q 225 527 258 556 q 171 456 192 499 q 142 364 151 414 q 134 270 134 314 q 145 184 134 225 q 176 114 156 144 q 223 66 196 83 q 280 48 249 48 q 336 62 312 48 q 380 99 361 76 q 413 153 400 123 q 436 216 427 183 q 448 281 444 249 q 453 342 453 314 m 550 379 q 539 287 550 333 q 510 196 529 240 q 461 113 490 153 q 394 42 432 73 q 357 15 377 28 q 317 -7 337 2 q 276 -22 297 -17 q 234 -28 255 -28 q 150 -7 187 -28 q 87 46 113 12 q 49 129 62 81 q 36 233 36 177 q 44 327 36 282 q 70 414 52 372 q 119 495 88 456 q 194 569 149 533 q 270 616 229 597 q 354 635 311 635 q 444 616 406 635 q 504 563 481 597 q 539 482 528 529 q 550 379 550 435 m 577 853 q 571 836 575 845 q 561 817 566 826 q 552 799 556 807 q 543 785 547 790 l 171 785 l 161 801 q 167 817 163 807 q 176 835 171 826 q 185 854 180 845 q 194 870 190 863 l 564 870 l 577 853 m 425 961 q 403 949 411 952 q 383 947 395 947 l 213 1208 l 235 1232 q 256 1236 243 1234 q 282 1238 268 1238 q 309 1238 296 1238 q 331 1238 322 1238 l 425 961 "},"Ȯ":{"x_min":61,"x_max":736,"ha":757,"o":"m 635 512 q 622 620 635 569 q 586 708 610 670 q 528 767 563 745 q 449 790 493 790 q 356 770 397 790 q 283 716 315 750 q 229 639 251 683 q 192 547 206 595 q 170 452 177 500 q 164 360 164 403 q 177 243 164 297 q 214 151 190 190 q 273 90 239 112 q 349 68 307 68 q 443 89 402 68 q 517 144 485 110 q 571 225 548 179 q 607 320 593 271 q 628 420 622 370 q 635 512 635 470 m 736 525 q 728 427 736 476 q 704 329 720 377 q 665 236 688 281 q 611 152 641 191 q 550 84 582 116 q 481 29 518 52 q 405 -7 445 6 q 319 -21 364 -21 q 205 6 254 -21 q 125 82 157 34 q 76 194 92 130 q 61 328 61 257 q 68 419 61 371 q 91 515 76 467 q 126 608 105 563 q 174 690 147 653 q 236 762 203 728 q 306 820 269 795 q 387 860 344 845 q 478 875 430 875 q 593 847 544 875 q 673 771 642 819 q 720 659 705 723 q 736 525 736 596 m 555 1050 q 549 1013 555 1031 q 532 979 543 994 q 506 954 521 964 q 471 945 490 945 q 439 957 450 945 q 428 992 428 969 q 434 1029 428 1010 q 450 1063 440 1048 q 476 1089 461 1079 q 511 1099 492 1099 q 543 1086 532 1099 q 555 1050 555 1073 "},"ĥ":{"x_min":57.96875,"x_max":656.03125,"ha":685,"o":"m 656 48 q 552 -8 593 11 q 483 -28 511 -28 q 448 -6 463 -28 q 433 51 433 14 q 437 95 433 63 q 448 168 441 126 q 462 258 454 210 q 475 348 469 305 q 486 425 482 391 q 491 474 491 459 q 488 518 491 500 q 481 546 486 535 q 467 561 476 557 q 443 566 458 566 q 412 555 434 566 q 361 523 389 544 q 301 470 332 502 q 244 394 270 438 q 213 313 226 362 q 191 203 200 265 q 181 138 184 166 q 178 87 178 109 q 178 48 178 65 q 177 16 178 30 q 155 6 168 11 q 128 -5 142 0 q 101 -17 114 -11 q 80 -28 88 -23 l 57 -7 q 73 83 64 29 q 92 202 82 137 q 114 339 103 267 q 136 482 125 411 q 157 622 147 554 q 174 747 167 690 q 185 847 181 804 q 190 912 190 890 q 187 937 190 928 q 181 950 185 946 q 172 956 177 955 q 162 958 167 958 q 143 954 155 958 q 116 948 130 951 q 84 939 101 944 l 76 966 q 133 990 104 979 q 187 1011 162 1002 q 231 1025 212 1020 q 259 1031 250 1031 q 288 1018 278 1031 q 299 975 299 1006 q 294 921 299 959 q 284 835 290 883 q 269 730 278 786 q 253 623 261 675 q 239 527 246 571 q 228 460 232 484 q 306 542 267 508 q 381 596 345 576 q 451 625 418 616 q 515 635 485 635 q 576 608 558 635 q 595 515 595 581 q 590 456 595 491 q 579 380 586 421 q 566 296 573 339 q 552 213 558 252 q 541 142 545 174 q 537 91 537 110 q 545 59 537 67 q 561 51 553 51 q 600 56 580 51 q 645 73 620 62 l 656 48 m 639 1119 q 625 1100 630 1106 q 609 1089 620 1094 l 464 1228 l 283 1089 q 272 1099 277 1093 q 261 1119 267 1106 l 447 1324 l 509 1324 l 639 1119 "},"»":{"x_min":40.515625,"x_max":546,"ha":598,"o":"m 546 329 q 545 320 546 327 q 543 303 544 312 l 540 280 l 286 4 l 262 24 l 439 305 q 432 325 440 304 q 414 376 425 346 q 389 444 403 407 q 365 511 376 480 q 346 562 353 542 l 338 583 l 367 603 l 546 329 m 324 329 q 323 320 324 327 q 321 303 322 312 l 318 280 l 63 4 l 40 24 l 217 305 q 210 325 218 304 q 192 376 203 346 q 167 444 180 407 q 142 511 154 480 q 123 562 131 542 l 116 583 l 144 603 l 324 329 "},"Ḻ":{"x_min":0,"x_max":575.09375,"ha":623,"o":"m 575 165 q 547 63 561 106 q 524 0 533 19 l 0 0 l 4 29 q 72 49 46 38 q 99 70 98 61 l 198 783 q 179 803 200 791 q 113 825 158 816 l 118 854 l 396 854 l 391 825 q 323 804 349 816 q 295 783 297 793 l 202 104 q 205 83 201 92 q 222 70 209 75 q 256 63 234 65 q 312 61 278 61 l 398 61 q 447 64 427 61 q 483 79 467 67 q 514 114 499 91 q 548 177 529 137 l 575 165 m 458 -159 q 452 -176 456 -167 q 442 -195 447 -186 q 432 -213 437 -205 q 424 -228 427 -222 l 52 -228 l 41 -211 q 48 -195 44 -205 q 56 -177 52 -186 q 65 -158 61 -167 q 74 -143 70 -149 l 445 -143 l 458 -159 "},"∆":{"x_min":34.265625,"x_max":666.328125,"ha":754,"o":"m 546 112 q 500 335 523 226 q 481 432 491 382 q 461 531 471 482 q 442 626 451 581 q 425 711 433 672 q 383 619 405 668 q 337 520 360 570 q 290 420 313 470 q 245 325 266 371 q 145 112 195 218 q 137 92 139 99 q 140 80 135 84 q 161 77 146 77 q 206 77 177 77 l 473 77 q 519 77 502 77 q 542 80 535 77 q 549 91 549 84 q 546 112 549 99 m 648 0 l 39 0 l 34 34 q 183 347 111 196 q 246 480 213 412 q 308 613 278 548 q 365 736 338 678 q 412 838 392 794 q 430 854 420 847 q 451 869 440 862 q 472 882 462 876 q 491 893 482 888 q 512 779 500 842 q 538 646 524 716 q 567 504 553 576 q 597 363 582 431 q 666 34 630 204 l 648 0 "},"ṟ":{"x_min":-113.890625,"x_max":520.5,"ha":493,"o":"m 520 576 q 502 550 512 565 q 482 520 492 534 q 464 495 473 505 q 448 485 455 485 q 426 492 435 485 q 409 508 417 499 q 393 524 401 517 q 375 532 386 532 q 334 507 358 532 q 287 444 310 483 q 242 357 263 405 q 206 259 220 308 q 192 202 198 233 q 182 139 186 172 q 178 75 178 106 q 178 16 178 43 q 155 6 168 11 q 128 -5 142 0 q 101 -17 114 -11 q 80 -28 88 -23 l 58 -7 q 78 92 68 40 q 96 195 87 144 q 111 295 104 246 q 123 386 118 344 q 131 461 128 428 q 135 515 135 495 q 132 540 135 531 q 126 553 130 549 q 117 559 122 558 q 107 561 112 561 q 88 558 100 561 q 65 552 77 556 q 37 544 52 549 l 27 569 q 85 594 56 582 q 139 615 114 606 q 183 629 164 624 q 209 635 201 635 q 224 631 219 635 q 232 619 230 628 q 235 595 235 611 q 235 556 235 580 q 233 531 235 549 q 228 493 231 514 q 223 452 225 472 q 218 419 220 432 q 279 528 250 486 q 335 594 308 570 q 384 626 361 618 q 430 635 408 635 q 452 628 442 635 q 472 611 462 621 q 494 592 482 602 q 520 576 505 582 m 302 -159 q 296 -176 300 -167 q 286 -195 291 -186 q 277 -213 281 -205 q 268 -228 272 -222 l -103 -228 l -113 -211 q -107 -195 -111 -205 q -98 -177 -103 -186 q -89 -158 -94 -167 q -80 -143 -84 -149 l 289 -143 l 302 -159 "},"ỹ":{"x_min":-123,"x_max":621.59375,"ha":628,"o":"m 606 583 q 593 524 606 560 q 552 427 580 487 q 478 276 524 366 q 367 55 432 185 q 276 -105 321 -33 q 183 -230 231 -178 q 84 -310 136 -282 q -24 -339 33 -339 q -62 -335 -44 -339 q -94 -327 -80 -332 q -115 -315 -107 -322 q -123 -304 -123 -309 q -116 -281 -123 -296 q -100 -251 -110 -267 q -79 -221 -91 -235 q -59 -203 -68 -208 q -30 -221 -42 -214 q -7 -230 -17 -227 q 14 -233 3 -233 q 37 -233 25 -233 q 145 -179 92 -233 q 254 -29 197 -126 q 238 59 248 9 q 216 160 228 108 q 191 265 204 213 q 165 364 178 318 q 141 447 153 410 q 119 505 129 484 q 92 550 103 539 q 70 561 81 561 q 53 558 64 561 q 31 552 41 556 q 3 544 18 549 l -4 570 q 49 595 24 583 q 96 615 75 606 q 132 629 117 624 q 156 635 148 635 q 173 630 165 635 q 187 615 180 625 q 200 588 193 605 q 214 548 206 571 q 242 462 227 512 q 273 354 258 412 q 304 235 289 297 q 331 112 319 173 q 375 199 353 154 q 417 287 397 244 q 455 370 438 331 q 485 444 472 410 q 506 501 499 477 q 514 537 514 525 q 478 572 514 572 q 416 556 456 575 l 404 582 q 490 622 453 610 q 550 635 527 635 q 572 633 561 635 q 589 626 582 631 q 601 610 597 620 q 606 583 606 600 m 621 899 q 589 845 607 872 q 550 797 571 818 q 505 762 529 776 q 454 749 480 749 q 415 761 432 749 q 382 786 398 772 q 350 811 366 800 q 316 823 334 823 q 268 801 292 823 q 215 742 244 780 l 186 757 q 218 810 200 784 q 257 858 236 837 q 303 892 279 879 q 353 906 328 906 q 394 894 376 906 q 429 869 413 883 q 460 844 446 855 q 488 833 474 833 q 538 854 512 833 q 591 912 565 875 l 621 899 "},"«":{"x_min":39.328125,"x_max":545.25,"ha":598,"o":"m 39 280 q 42 303 40 293 q 45 319 44 312 q 47 328 46 327 l 299 602 l 322 583 l 315 570 q 295 539 307 559 q 266 494 282 520 q 234 443 250 469 q 202 392 217 417 q 173 347 186 367 q 153 316 161 328 q 147 305 146 305 l 247 24 l 219 4 l 39 280 m 261 280 q 265 303 263 293 q 267 319 266 312 q 269 328 268 327 l 522 602 l 545 583 l 537 570 q 517 539 530 559 q 489 494 505 520 q 456 443 473 469 q 424 392 440 417 q 396 347 408 367 q 376 316 383 328 q 369 305 368 305 l 469 24 l 441 4 l 261 280 "},"ử":{"x_min":26.390625,"x_max":802,"ha":751,"o":"m 802 704 q 784 637 802 668 q 738 580 767 607 q 669 531 708 553 q 585 491 630 508 q 571 406 579 451 q 556 316 564 360 q 544 234 549 273 q 539 171 539 196 q 547 80 539 110 q 573 51 556 51 q 609 55 591 51 q 651 70 627 60 l 661 45 q 568 -9 606 9 q 505 -28 530 -28 q 480 -16 492 -28 q 458 22 467 -4 q 445 93 449 50 q 442 201 442 137 q 385 109 416 151 q 321 36 354 66 q 253 -11 288 5 q 181 -28 218 -28 q 150 -17 168 -28 q 118 14 133 -6 q 92 66 102 35 q 82 138 82 97 q 85 190 82 159 q 94 257 89 221 q 107 332 100 293 q 119 406 113 370 q 128 470 124 441 q 132 515 132 499 q 129 540 132 531 q 124 553 127 549 q 115 559 120 558 q 104 561 110 561 q 86 558 98 561 q 63 552 75 556 q 34 544 50 549 l 26 569 q 83 594 54 582 q 136 615 112 606 q 179 629 161 624 q 206 635 198 635 q 233 622 226 635 q 240 577 240 609 q 235 526 240 558 q 225 456 231 494 q 213 377 219 418 q 200 299 206 337 q 190 229 194 261 q 186 177 186 197 q 199 83 186 112 q 238 54 213 54 q 274 67 252 54 q 325 109 297 80 q 387 187 353 139 q 456 303 420 234 q 466 361 461 332 q 476 418 472 391 q 484 471 481 446 q 488 515 488 495 q 486 540 488 531 q 481 553 484 549 q 473 559 477 558 q 462 561 468 561 q 445 558 456 561 q 424 552 435 556 q 398 544 411 549 l 388 569 q 444 594 416 582 q 495 615 472 606 q 536 629 518 624 q 562 635 554 635 q 587 622 581 635 q 594 577 594 609 q 594 559 594 569 q 591 537 594 549 q 665 584 641 556 q 690 653 690 612 q 684 679 690 665 q 659 704 679 693 l 772 758 q 795 733 789 748 q 802 704 802 719 m 525 904 q 507 855 525 876 q 468 818 490 834 q 428 787 446 801 q 411 755 411 772 q 417 738 411 748 q 439 718 424 728 q 420 710 429 712 q 400 708 411 709 q 363 736 374 723 q 353 761 353 749 q 361 781 353 771 q 382 799 369 790 q 409 816 394 807 q 437 837 424 826 q 458 863 449 849 q 467 895 467 876 q 458 927 467 914 q 428 940 449 940 q 405 935 416 940 q 386 922 394 930 q 375 905 379 914 q 375 886 372 895 q 363 882 371 884 q 346 877 355 879 q 329 873 338 874 q 315 870 321 871 l 308 878 q 323 916 308 898 q 358 945 337 933 q 403 965 379 958 q 447 972 427 972 q 505 952 486 972 q 525 904 525 932 "},"í":{"x_min":47.703125,"x_max":475.984375,"ha":342,"o":"m 308 48 q 251 15 276 29 q 204 -8 225 1 q 166 -23 183 -18 q 135 -28 150 -28 q 98 -6 112 -28 q 85 51 85 14 q 90 109 85 71 q 102 192 95 146 q 119 288 110 238 q 135 383 127 338 q 147 463 142 428 q 153 515 153 499 q 150 540 153 531 q 145 553 148 549 q 136 559 142 558 q 125 561 131 561 q 108 558 119 561 q 85 552 97 556 q 57 544 72 549 l 47 569 q 104 594 76 582 q 156 615 132 606 q 199 629 181 624 q 226 635 217 635 q 253 622 245 635 q 261 577 261 609 q 255 519 261 558 q 242 434 250 481 q 226 334 234 386 q 209 235 217 282 q 196 149 201 187 q 191 91 191 110 q 195 60 191 70 q 211 51 199 51 q 251 56 232 51 q 298 73 270 61 l 308 48 m 475 932 l 235 696 q 219 703 224 698 q 205 719 214 708 l 389 989 q 406 984 395 987 q 428 977 416 981 q 450 970 440 974 q 465 962 460 966 l 475 932 "},"ʠ":{"x_min":36,"x_max":925.328125,"ha":622,"o":"m 429 299 q 448 409 439 354 q 465 514 457 463 q 441 531 454 522 q 414 547 428 540 q 382 559 399 554 q 346 564 365 564 q 287 548 315 564 q 233 508 258 533 q 188 450 209 483 q 153 384 168 418 q 131 316 139 350 q 123 257 123 283 q 133 177 123 213 q 159 117 143 142 q 195 78 175 92 q 235 65 215 65 q 277 85 253 65 q 327 139 301 106 q 380 215 353 172 q 429 299 406 257 m 925 951 q 894 929 911 941 q 863 907 878 917 q 834 891 848 897 q 813 885 821 885 q 796 896 804 885 q 778 923 788 908 q 755 949 768 937 q 723 961 742 961 q 683 949 701 961 q 650 913 665 937 q 624 849 635 888 q 602 756 612 811 q 582 647 594 713 q 557 503 571 581 q 529 337 543 424 q 502 166 515 251 q 478 2 489 81 q 460 -140 467 -76 q 454 -246 454 -203 q 458 -303 454 -289 q 434 -311 448 -306 q 405 -320 420 -315 q 376 -330 390 -325 q 354 -339 362 -335 l 330 -319 q 345 -224 335 -281 q 365 -97 354 -167 q 389 51 376 -27 q 415 212 401 130 l 409 177 q 358 100 385 137 q 301 35 330 63 q 243 -10 272 6 q 187 -28 214 -28 q 138 -15 164 -28 q 89 25 111 -2 q 51 98 66 54 q 36 206 36 143 q 49 312 36 260 q 90 411 63 364 q 154 499 116 458 q 239 571 191 539 q 280 594 258 583 q 324 615 302 606 q 370 629 347 624 q 414 635 393 635 q 449 629 432 635 q 482 616 466 623 l 500 722 q 521 813 509 775 q 550 879 534 851 q 586 928 566 908 q 631 967 606 949 q 665 992 648 980 q 700 1012 683 1003 q 737 1026 718 1021 q 776 1031 755 1031 q 829 1019 806 1031 q 870 994 852 1008 q 901 967 888 980 q 925 951 915 954 "},"ǜ":{"x_min":26.390625,"x_max":660.9375,"ha":693,"o":"m 660 45 q 568 -9 606 9 q 505 -28 530 -28 q 479 -16 492 -28 q 458 22 467 -4 q 445 93 449 50 q 442 201 442 137 q 386 109 416 151 q 321 36 355 66 q 253 -11 288 5 q 181 -28 218 -28 q 150 -17 168 -28 q 118 14 133 -6 q 92 66 103 35 q 82 138 82 97 q 85 190 82 159 q 94 257 89 221 q 107 332 100 293 q 119 406 113 370 q 128 470 124 441 q 132 515 132 499 q 129 540 132 531 q 124 553 127 549 q 115 559 120 558 q 104 561 110 561 q 86 558 98 561 q 63 552 75 556 q 34 544 50 549 l 26 569 q 83 594 54 582 q 136 615 112 606 q 179 629 161 624 q 206 635 198 635 q 233 622 226 635 q 240 577 240 609 q 235 526 240 558 q 225 456 231 494 q 212 377 219 418 q 200 299 206 337 q 190 229 194 261 q 186 177 186 197 q 199 83 186 112 q 238 54 213 54 q 274 67 252 54 q 325 109 297 80 q 387 187 353 139 q 456 303 420 234 q 466 361 461 332 q 476 418 472 391 q 484 471 481 446 q 488 515 488 495 q 486 540 488 531 q 481 553 484 549 q 473 559 477 558 q 462 561 468 561 q 445 558 456 561 q 424 552 435 556 q 398 544 412 549 l 388 569 q 444 594 416 582 q 496 615 472 606 q 537 629 519 624 q 563 635 554 635 q 588 622 582 635 q 595 577 595 609 q 590 526 595 558 q 580 457 586 495 q 567 378 574 419 q 553 299 559 337 q 543 227 547 261 q 539 171 539 194 q 547 80 539 110 q 573 51 556 51 q 609 55 591 51 q 651 70 627 60 l 660 45 m 353 855 q 346 818 353 836 q 329 784 340 799 q 303 759 319 769 q 268 750 287 750 q 234 762 246 750 q 222 797 222 774 q 228 834 222 815 q 246 868 234 853 q 273 894 257 884 q 308 904 289 904 q 341 891 329 904 q 353 855 353 878 m 606 855 q 599 818 606 836 q 582 784 593 799 q 555 759 571 769 q 519 750 539 750 q 486 762 498 750 q 475 797 475 774 q 481 834 475 815 q 498 868 487 853 q 524 894 508 884 q 559 904 540 904 q 593 891 580 904 q 606 855 606 878 m 476 961 q 454 949 462 952 q 434 947 446 947 l 265 1209 l 286 1233 q 307 1237 294 1235 q 333 1239 319 1239 q 360 1239 347 1239 q 382 1239 373 1239 l 476 961 "},"ṥ":{"x_min":-3,"x_max":529.6875,"ha":482,"o":"m 472 572 q 445 544 459 556 q 421 521 432 531 q 400 507 409 512 q 386 502 391 502 q 368 513 378 502 q 345 540 358 525 q 316 566 333 554 q 277 578 300 578 q 240 570 258 578 q 207 551 222 563 q 184 520 193 538 q 175 480 175 502 q 197 430 175 456 q 274 378 220 403 q 330 348 302 365 q 380 309 358 331 q 416 259 402 287 q 430 195 430 231 q 405 107 430 148 q 344 36 381 66 q 260 -10 306 6 q 170 -28 214 -28 q 107 -18 138 -28 q 51 4 76 -9 q 12 35 27 18 q -3 66 -3 52 q 5 87 -3 73 q 24 116 13 102 q 47 140 35 129 q 66 151 58 151 q 75 142 70 151 q 88 121 80 134 q 107 93 96 108 q 134 66 118 79 q 172 45 150 53 q 224 37 194 37 q 269 46 248 37 q 306 70 290 55 q 331 106 322 85 q 341 150 341 127 q 330 198 341 177 q 301 237 319 220 q 260 268 283 254 q 210 295 236 283 q 150 329 175 312 q 110 363 125 346 q 89 401 95 381 q 83 442 83 420 q 104 520 83 485 q 158 581 125 556 q 232 621 191 607 q 313 635 273 635 q 371 626 347 635 q 413 607 395 618 q 444 586 431 597 q 472 572 458 576 m 529 931 l 289 696 q 273 703 278 698 q 258 719 268 708 l 442 989 q 460 984 449 987 q 482 977 470 981 q 503 969 493 973 q 519 962 514 965 l 529 931 m 415 1106 q 409 1069 415 1087 q 392 1035 403 1050 q 365 1010 381 1020 q 331 1001 350 1001 q 298 1013 310 1001 q 287 1048 287 1025 q 293 1085 287 1066 q 310 1119 299 1104 q 336 1145 321 1135 q 370 1155 351 1155 q 403 1142 391 1155 q 415 1106 415 1129 "},"µ":{"x_min":4.859375,"x_max":693.25,"ha":713,"o":"m 485 339 q 497 408 491 375 q 506 470 502 442 q 510 515 510 499 q 507 559 510 537 q 498 594 505 582 q 525 605 510 599 q 555 615 539 610 q 586 626 571 621 q 616 635 602 631 q 625 621 622 627 q 630 608 628 614 q 620 554 626 588 q 605 480 613 521 q 589 394 597 438 q 575 307 582 349 q 565 230 569 265 q 561 172 561 194 q 563 123 561 142 q 568 95 565 105 q 576 83 571 86 q 586 81 580 81 q 599 82 592 81 q 614 92 605 84 q 636 117 624 100 q 669 165 649 135 l 693 146 q 642 60 664 93 q 599 6 619 26 q 560 -20 580 -13 q 519 -28 541 -28 q 462 165 462 -28 q 413 87 437 123 q 364 26 389 51 q 312 -13 338 0 q 258 -28 285 -28 q 216 -18 236 -28 q 178 9 195 -8 q 148 53 161 27 q 125 110 134 78 l 120 70 q 112 -59 112 0 q 119 -167 112 -120 q 136 -245 127 -214 q 148 -285 145 -276 q 121 -296 138 -289 q 86 -311 104 -303 q 51 -327 67 -319 q 27 -339 35 -335 l 4 -319 q 17 -231 9 -281 q 34 -126 25 -182 q 54 -11 43 -70 q 74 105 64 47 q 93 217 84 163 q 109 316 102 271 q 117 370 112 343 q 125 424 121 398 q 131 473 128 449 q 134 515 134 497 q 131 540 134 531 q 126 553 129 549 q 117 559 122 558 q 107 561 112 561 q 89 558 100 561 q 65 552 77 556 q 37 544 52 549 l 27 569 q 85 594 56 582 q 139 615 114 606 q 183 629 164 624 q 210 635 201 635 q 235 622 229 635 q 242 578 242 609 q 238 531 242 558 q 231 473 235 504 q 221 411 226 443 q 210 350 215 379 q 203 294 206 320 q 200 250 200 268 q 206 182 200 213 q 223 128 212 150 q 248 93 233 106 q 281 81 263 81 q 334 98 306 81 q 392 154 362 116 q 456 250 423 192 q 476 287 466 268 q 485 339 480 312 "},"ỳ":{"x_min":-123,"x_max":606,"ha":628,"o":"m 606 583 q 593 524 606 560 q 552 427 580 487 q 478 276 524 366 q 367 55 432 185 q 276 -105 321 -33 q 183 -230 231 -178 q 84 -310 136 -282 q -24 -339 33 -339 q -62 -335 -44 -339 q -94 -327 -80 -332 q -115 -315 -107 -322 q -123 -304 -123 -309 q -116 -281 -123 -296 q -100 -251 -110 -267 q -79 -221 -91 -235 q -59 -203 -68 -208 q -30 -221 -42 -214 q -7 -230 -17 -227 q 14 -233 3 -233 q 37 -233 25 -233 q 145 -179 92 -233 q 254 -29 197 -126 q 238 59 248 9 q 216 160 228 108 q 191 265 204 213 q 165 364 178 318 q 141 447 153 410 q 119 505 129 484 q 92 550 103 539 q 70 561 81 561 q 53 558 64 561 q 31 552 41 556 q 3 544 18 549 l -4 569 q 49 594 24 582 q 96 615 75 606 q 132 629 117 624 q 156 635 148 635 q 173 630 165 635 q 187 615 180 625 q 200 588 193 605 q 214 548 206 571 q 242 462 227 512 q 273 354 258 412 q 304 235 289 297 q 331 112 319 173 q 375 199 353 154 q 417 287 397 243 q 455 370 438 330 q 485 443 472 410 q 506 500 499 476 q 514 537 514 524 q 478 571 514 571 q 416 556 456 574 l 404 581 q 490 622 453 610 q 550 635 527 635 q 572 633 561 635 q 589 626 582 631 q 601 610 597 620 q 606 583 606 600 m 430 710 q 408 698 417 701 q 388 696 400 696 l 218 958 l 240 982 q 261 986 248 984 q 287 988 273 988 q 314 988 301 988 q 336 988 327 988 l 430 710 "},"Ḟ":{"x_min":0.265625,"x_max":640.875,"ha":605,"o":"m 640 837 q 632 799 637 820 q 620 757 627 778 q 607 717 614 736 q 595 685 600 698 l 567 685 q 569 737 569 716 q 564 770 569 757 q 551 787 559 782 q 530 793 543 793 l 296 793 l 255 498 l 474 498 l 490 479 q 474 459 482 469 q 457 439 465 449 q 439 421 448 429 q 423 406 430 412 q 370 436 400 429 q 295 444 340 444 l 248 444 l 197 70 q 219 51 196 62 q 301 28 242 41 l 297 0 l 0 0 l 4 28 q 72 49 47 38 q 99 70 98 60 l 198 783 q 179 803 200 791 q 114 825 158 816 l 118 855 l 624 855 l 640 837 m 465 1051 q 459 1013 465 1031 q 442 979 453 994 q 416 954 431 964 q 381 945 400 945 q 349 957 360 945 q 338 992 338 969 q 344 1029 338 1010 q 360 1063 350 1048 q 386 1089 371 1079 q 421 1099 402 1099 q 453 1086 442 1099 q 465 1051 465 1074 "},"M":{"x_min":2.71875,"x_max":1041.671875,"ha":1025,"o":"m 1038 826 q 996 819 1020 826 q 948 801 973 813 l 866 70 q 887 50 865 62 q 954 29 910 39 l 950 0 l 672 0 l 676 29 q 746 50 718 39 q 775 70 773 61 l 848 718 l 482 0 l 454 0 l 265 710 l 173 70 q 192 50 172 62 q 257 29 212 39 l 252 0 l 2 0 l 6 29 q 75 50 50 39 q 101 70 100 61 l 207 800 q 163 820 186 814 q 123 826 141 826 l 127 855 l 307 855 q 316 852 312 855 q 323 844 320 850 q 329 827 326 838 q 337 798 332 816 l 506 191 l 817 798 q 833 827 827 816 q 845 844 840 838 q 854 852 850 850 q 865 855 859 855 l 1041 855 l 1038 826 "},"Ḏ":{"x_min":0.015625,"x_max":731,"ha":759,"o":"m 731 505 q 719 384 731 445 q 684 268 707 324 q 627 163 661 212 q 548 77 593 113 q 447 20 503 41 q 326 0 392 0 l 0 0 l 4 29 q 72 49 46 38 q 99 70 98 61 l 200 808 l 97 797 l 97 840 q 251 867 175 859 q 397 875 327 875 q 538 848 477 875 q 643 773 600 822 q 708 657 686 725 q 731 505 731 589 m 342 817 l 321 817 q 301 817 311 817 l 202 94 q 205 77 201 84 q 221 65 209 70 q 254 59 232 61 q 308 57 275 57 q 401 75 359 57 q 478 127 443 94 q 539 203 513 159 q 584 295 566 246 q 611 394 602 343 q 621 492 621 445 q 602 624 621 565 q 549 726 584 684 q 461 793 513 769 q 342 817 409 817 m 506 -159 q 500 -176 504 -167 q 491 -195 496 -186 q 481 -213 485 -205 q 473 -228 476 -222 l 100 -228 l 89 -211 q 96 -195 92 -205 q 104 -177 100 -186 q 113 -158 109 -167 q 122 -143 118 -149 l 494 -143 l 506 -159 "},"ũ":{"x_min":26.390625,"x_max":661.46875,"ha":693,"o":"m 661 45 q 568 -9 606 9 q 505 -28 530 -28 q 480 -16 492 -28 q 458 22 467 -4 q 445 93 449 50 q 442 201 442 137 q 386 109 416 151 q 322 36 355 66 q 253 -11 288 5 q 181 -28 218 -28 q 150 -17 168 -28 q 118 14 133 -6 q 92 66 103 35 q 82 138 82 97 q 85 190 82 159 q 94 257 89 221 q 107 332 100 293 q 119 406 113 370 q 128 470 124 441 q 132 515 132 499 q 129 540 132 531 q 124 553 127 549 q 115 559 120 558 q 104 561 110 561 q 86 558 98 561 q 63 552 75 556 q 34 544 50 549 l 26 569 q 83 594 54 582 q 136 615 112 606 q 179 629 161 624 q 206 635 198 635 q 233 622 226 635 q 240 577 240 609 q 235 526 240 558 q 225 456 231 494 q 213 377 219 418 q 200 299 206 337 q 190 229 194 261 q 186 177 186 197 q 199 83 186 112 q 238 54 213 54 q 274 67 252 54 q 325 109 297 80 q 387 187 354 139 q 457 303 421 234 q 467 361 461 332 q 477 418 472 391 q 484 471 481 446 q 488 515 488 495 q 486 540 488 531 q 481 553 484 549 q 473 559 477 558 q 462 561 468 561 q 445 558 456 561 q 424 552 435 556 q 398 544 412 549 l 388 569 q 444 594 417 582 q 496 615 472 606 q 537 629 519 624 q 563 635 554 635 q 588 622 582 635 q 595 577 595 609 q 590 526 595 558 q 580 457 586 495 q 567 378 574 419 q 553 299 559 337 q 543 227 547 261 q 539 171 539 194 q 547 80 539 110 q 573 51 556 51 q 609 55 591 51 q 651 70 627 60 l 661 45 m 632 899 q 600 845 618 872 q 560 796 582 818 q 515 762 539 775 q 465 749 491 749 q 426 760 443 749 q 392 786 408 772 q 361 811 376 799 q 327 823 345 823 q 279 801 303 823 q 226 742 254 780 l 197 756 q 229 810 211 783 q 268 858 247 836 q 314 892 290 879 q 364 906 339 906 q 405 894 387 906 q 440 869 424 882 q 471 843 457 855 q 500 832 485 832 q 549 853 523 832 q 601 912 575 874 l 632 899 "},"ŭ":{"x_min":26.390625,"x_max":661.46875,"ha":693,"o":"m 661 45 q 568 -9 606 9 q 505 -28 530 -28 q 480 -16 492 -28 q 458 22 467 -4 q 445 93 449 50 q 442 201 442 137 q 386 109 416 151 q 322 36 355 66 q 253 -11 288 5 q 181 -28 218 -28 q 150 -17 168 -28 q 118 14 133 -6 q 92 66 103 35 q 82 138 82 97 q 85 190 82 159 q 94 257 89 221 q 107 332 100 293 q 119 406 113 370 q 128 470 124 441 q 132 515 132 499 q 129 540 132 531 q 124 553 127 549 q 115 559 120 558 q 104 561 110 561 q 86 558 98 561 q 63 552 75 556 q 34 544 50 549 l 26 569 q 83 594 54 582 q 136 615 112 606 q 179 629 161 624 q 206 635 198 635 q 233 622 226 635 q 240 577 240 609 q 235 526 240 558 q 225 456 231 494 q 213 377 219 418 q 200 299 206 337 q 190 229 194 261 q 186 177 186 197 q 199 83 186 112 q 238 54 213 54 q 274 67 252 54 q 325 109 297 80 q 387 187 354 139 q 457 303 421 234 q 467 361 461 332 q 477 418 472 391 q 484 471 481 446 q 488 515 488 495 q 486 540 488 531 q 481 553 484 549 q 473 559 477 558 q 462 561 468 561 q 445 558 456 561 q 424 552 435 556 q 398 544 412 549 l 388 569 q 444 594 417 582 q 496 615 472 606 q 537 629 519 624 q 563 635 554 635 q 588 622 582 635 q 595 577 595 609 q 590 526 595 558 q 580 457 586 495 q 567 378 574 419 q 553 299 559 337 q 543 227 547 261 q 539 171 539 194 q 547 80 539 110 q 573 51 556 51 q 609 55 591 51 q 651 70 627 60 l 661 45 m 620 905 q 568 813 595 850 q 512 754 540 776 q 455 721 483 731 q 399 712 426 712 q 343 721 369 712 q 295 754 317 731 q 257 814 274 777 q 228 905 240 851 q 246 923 238 917 q 265 935 255 929 q 291 871 275 897 q 326 830 307 846 q 366 807 345 814 q 407 800 387 800 q 453 807 428 800 q 501 830 477 814 q 548 871 525 846 q 591 935 571 897 q 607 924 601 929 q 620 905 614 918 "},"{":{"x_min":69.484375,"x_max":502.515625,"ha":435,"o":"m 502 1053 q 451 1016 475 1037 q 409 969 428 995 q 377 914 390 944 q 359 849 364 884 q 354 784 354 809 q 354 737 354 759 q 354 690 354 715 q 351 625 354 665 q 335 570 347 597 q 306 519 324 543 q 265 475 289 495 q 212 443 241 455 q 263 422 243 437 q 293 383 283 406 q 304 329 304 360 q 298 261 304 298 q 285 192 293 220 q 270 138 278 163 q 254 88 261 113 q 242 29 246 63 q 237 -36 237 -7 q 246 -88 237 -65 q 274 -132 255 -112 q 323 -171 293 -152 l 304 -213 q 220 -164 255 -190 q 166 -108 186 -139 q 140 -38 146 -76 q 140 49 133 0 q 153 115 146 89 q 169 165 161 141 q 186 217 178 189 q 200 286 194 244 q 185 369 207 341 q 116 398 163 398 l 104 398 q 97 397 100 398 q 89 396 93 397 q 75 393 84 395 l 69 429 q 191 492 147 450 q 242 585 234 534 q 246 632 246 612 q 246 667 246 651 q 244 697 246 683 q 243 727 243 711 q 243 762 243 742 q 247 810 243 782 q 324 970 260 902 q 490 1085 388 1039 l 502 1053 "},"¼":{"x_min":89.734375,"x_max":739.109375,"ha":753,"o":"m 597 332 l 450 153 l 572 153 l 597 332 m 675 142 q 659 124 666 132 q 643 111 652 116 l 625 111 l 615 39 q 616 34 615 36 q 621 29 617 32 q 633 24 625 27 q 655 19 641 22 l 652 0 l 485 0 l 487 19 q 523 25 509 22 q 545 31 537 28 q 555 37 552 34 q 558 42 558 39 l 567 111 l 397 111 l 387 121 l 593 381 q 625 393 609 387 q 652 405 641 400 l 663 393 l 630 153 l 667 153 l 675 142 m 89 432 l 93 455 q 137 461 120 457 q 165 468 155 465 q 179 476 175 472 q 184 484 184 480 l 217 732 q 220 752 220 745 q 215 763 220 759 q 209 766 214 765 q 195 768 205 768 q 170 765 185 768 q 131 759 154 763 l 127 781 q 163 792 141 785 q 206 807 184 799 q 248 822 228 814 q 280 837 268 831 l 291 825 l 245 484 q 247 477 245 480 q 257 469 249 473 q 281 461 266 465 q 322 455 296 457 l 319 432 l 89 432 m 165 1 q 136 -10 149 -5 q 105 -20 122 -15 l 93 0 l 669 815 q 697 827 681 820 q 726 837 712 833 l 739 818 l 165 1 "},"Ḿ":{"x_min":2.359375,"x_max":1041.3125,"ha":1025,"o":"m 1038 826 q 996 819 1020 826 q 948 801 972 813 l 866 70 q 887 50 864 62 q 953 29 909 39 l 949 0 l 671 0 l 675 29 q 745 50 718 39 q 774 70 773 61 l 848 718 l 481 0 l 454 0 l 265 710 l 173 70 q 192 50 171 62 q 256 29 212 39 l 252 0 l 2 0 l 6 29 q 75 50 50 39 q 101 70 100 61 l 207 800 q 163 820 186 814 q 123 826 140 826 l 127 855 l 306 855 q 316 852 312 855 q 322 844 319 850 q 329 827 325 838 q 337 798 332 816 l 506 191 l 817 798 q 833 827 827 816 q 844 844 839 838 q 854 852 850 850 q 864 855 858 855 l 1041 855 l 1038 826 m 827 1078 l 518 913 q 505 925 508 919 q 496 945 502 931 l 761 1158 l 776 1148 q 795 1135 785 1142 q 814 1122 805 1129 q 827 1110 822 1115 l 827 1078 "},"Ĳ":{"x_min":14.015625,"x_max":815.609375,"ha":781,"o":"m 406 825 q 337 804 363 816 q 310 783 311 793 l 211 70 q 231 50 210 62 q 296 29 252 38 l 292 0 l 14 0 l 18 29 q 86 49 61 38 q 114 70 112 61 l 211 783 q 191 804 212 791 q 127 825 170 816 l 132 855 l 410 855 l 406 825 m 811 825 q 742 804 768 816 q 715 783 716 793 l 626 139 q 597 4 615 58 q 558 -86 580 -49 q 510 -148 536 -123 q 456 -195 484 -174 q 417 -221 438 -209 q 374 -241 395 -232 q 334 -253 353 -249 q 304 -258 316 -258 q 268 -251 285 -258 q 238 -236 251 -245 q 217 -219 225 -228 q 210 -203 210 -209 q 219 -185 210 -197 q 242 -163 229 -173 q 270 -144 256 -152 q 292 -136 283 -136 q 305 -142 298 -136 q 322 -155 313 -148 q 346 -168 332 -162 q 382 -175 361 -175 q 418 -163 398 -175 q 457 -122 437 -151 q 494 -40 477 -92 q 522 90 511 10 l 618 783 q 614 792 618 787 q 597 802 610 797 q 562 813 585 808 q 502 825 539 819 l 505 855 l 815 855 l 811 825 "},"Ê":{"x_min":-0.203125,"x_max":634.5625,"ha":642,"o":"m 580 165 q 552 63 566 106 q 531 0 538 19 l 0 0 l 3 29 q 72 49 46 38 q 99 70 98 61 l 198 783 q 178 803 199 791 q 113 825 157 816 l 117 855 l 617 855 l 634 837 q 626 799 631 820 q 614 757 621 778 q 601 717 608 736 q 588 685 594 698 l 559 685 q 562 737 562 716 q 557 770 562 757 q 544 787 552 782 q 523 793 536 793 l 296 793 l 256 498 l 509 498 l 523 479 q 508 459 516 469 q 490 439 499 449 q 472 421 481 429 q 456 406 463 412 q 433 425 446 418 q 403 437 421 433 q 359 442 385 442 q 295 442 333 442 l 248 442 l 202 104 q 204 86 201 94 q 220 72 208 78 q 258 64 233 67 q 323 61 282 61 l 405 61 q 453 64 433 61 q 489 79 473 67 q 519 114 505 91 q 553 177 534 137 l 580 165 m 595 943 q 581 924 586 930 q 565 913 576 918 l 419 1052 l 239 913 q 228 923 233 917 q 216 943 223 930 l 403 1148 l 465 1148 l 595 943 "},")":{"x_min":-55.390625,"x_max":349,"ha":409,"o":"m 334 425 q 284 212 318 313 q 202 27 250 111 q 92 -118 153 -56 q -38 -213 31 -180 l -55 -183 q 35 -95 -9 -150 q 117 34 79 -40 q 184 203 155 109 q 229 405 214 296 q 243 601 243 504 q 228 785 243 699 q 186 943 213 872 q 119 1057 158 1013 l 144 1088 q 254 986 209 1054 q 324 830 299 919 q 349 637 349 741 q 334 425 349 533 "},"Ṽ":{"x_min":94.265625,"x_max":885.015625,"ha":823,"o":"m 880 826 q 812 808 837 817 q 777 781 786 800 l 438 40 q 418 14 432 25 q 389 -3 404 3 q 359 -14 373 -10 q 336 -20 344 -18 l 173 781 q 152 809 170 798 q 94 826 134 820 l 98 855 l 368 855 l 364 824 q 295 813 315 824 q 279 781 274 802 l 408 132 l 706 781 q 694 810 716 800 q 623 826 672 819 l 627 855 l 885 855 l 880 826 m 731 1094 q 699 1040 717 1067 q 660 991 681 1013 q 615 957 639 970 q 564 944 591 944 q 525 955 543 944 q 492 981 508 967 q 460 1006 476 994 q 427 1018 444 1018 q 379 996 403 1018 q 326 937 354 975 l 297 951 q 329 1005 311 978 q 368 1053 347 1031 q 414 1087 389 1074 q 464 1101 438 1101 q 505 1089 486 1101 q 540 1064 524 1077 q 571 1038 556 1050 q 599 1027 585 1027 q 649 1048 623 1027 q 701 1107 675 1069 l 731 1094 "},"a":{"x_min":36,"x_max":611.359375,"ha":626,"o":"m 409 292 q 419 355 414 322 q 431 419 425 388 q 441 475 437 449 q 448 515 446 500 q 426 532 438 523 q 400 548 414 540 q 370 559 386 555 q 339 564 355 564 q 280 548 308 564 q 229 508 253 533 q 187 450 206 483 q 156 384 169 418 q 136 316 143 350 q 129 257 129 283 q 136 177 129 213 q 156 117 143 142 q 187 78 169 92 q 225 65 205 65 q 265 85 241 65 q 314 139 288 106 q 364 212 339 172 q 409 292 389 253 m 611 45 q 516 -10 552 7 q 460 -28 479 -28 q 436 -19 448 -28 q 416 12 425 -11 q 403 77 408 35 q 398 184 398 118 q 354 116 380 153 q 300 47 329 79 q 240 -6 271 14 q 180 -28 209 -28 q 132 -15 158 -28 q 85 25 107 -2 q 50 98 64 54 q 36 206 36 143 q 48 311 36 260 q 86 409 61 362 q 147 497 111 456 q 232 571 183 538 q 272 594 250 583 q 317 615 294 606 q 364 629 341 624 q 408 635 387 635 q 436 631 422 635 q 462 621 449 627 q 487 608 475 615 q 508 594 498 601 q 542 616 524 605 q 578 635 559 626 l 591 611 q 572 594 580 601 q 559 577 565 586 q 549 552 553 567 q 540 515 545 538 q 521 415 530 466 q 505 318 512 364 q 495 238 499 273 q 492 188 492 203 q 494 123 492 150 q 500 81 496 97 q 510 58 504 65 q 525 51 517 51 q 557 54 538 51 q 603 70 576 58 l 611 45 "},"Ɲ":{"x_min":-207.578125,"x_max":877.546875,"ha":811,"o":"m 873 825 q 806 806 828 818 q 781 783 783 794 l 670 -21 q 644 -16 656 -19 q 623 -8 633 -14 q 606 5 614 -3 q 590 29 598 15 l 252 681 l 183 167 q 166 60 174 106 q 146 -21 157 13 q 124 -82 136 -56 q 99 -129 113 -108 q 70 -165 86 -149 q 37 -195 54 -181 q -2 -221 18 -209 q -44 -241 -23 -232 q -83 -253 -65 -249 q -113 -258 -101 -258 q -149 -251 -132 -258 q -180 -236 -166 -245 q -200 -219 -193 -228 q -207 -203 -208 -210 q -197 -188 -206 -198 q -175 -168 -188 -178 q -149 -148 -162 -157 q -127 -136 -136 -139 q -100 -156 -112 -148 q -78 -168 -88 -164 q -57 -173 -67 -172 q -35 -175 -47 -175 q -1 -162 -20 -175 q 37 -117 18 -150 q 74 -28 56 -85 q 104 118 92 28 l 195 783 q 157 811 177 803 q 107 825 136 820 l 111 854 l 231 854 q 255 854 246 854 q 270 848 263 854 q 282 832 276 843 q 298 801 288 821 l 626 174 l 710 783 q 706 793 710 787 q 692 804 702 799 q 666 816 682 810 q 626 825 650 821 l 630 855 l 877 855 l 873 825 "},"Z":{"x_min":21.015625,"x_max":694.453125,"ha":693,"o":"m 164 68 l 493 68 q 518 74 506 68 q 543 97 531 80 q 570 142 556 114 q 601 215 583 171 l 634 205 q 625 155 630 183 q 616 100 621 128 q 606 45 611 71 q 598 0 602 19 l 33 0 l 21 30 l 556 792 l 270 792 q 247 784 260 792 q 219 760 233 777 q 190 718 204 744 q 164 653 176 691 l 128 661 l 177 872 q 207 862 193 865 q 234 856 221 858 q 262 855 248 855 q 294 855 276 855 l 682 855 l 694 823 l 164 68 "},"":{"x_min":36,"x_max":694.34375,"ha":627,"o":"m 235 65 q 277 85 253 65 q 326 138 300 105 q 378 213 352 171 q 428 296 405 254 l 465 515 q 441 531 454 523 q 413 547 428 540 q 381 559 398 554 q 347 564 365 564 q 287 548 315 564 q 233 508 258 533 q 188 450 209 483 q 153 384 168 418 q 131 316 139 350 q 123 257 123 283 q 133 177 123 213 q 159 117 143 142 q 195 78 175 92 q 235 65 216 65 m 606 611 q 587 594 595 601 q 574 577 579 586 q 565 553 569 567 q 557 515 561 538 q 546 450 553 496 q 530 344 539 405 q 512 215 521 284 q 495 82 503 146 q 482 -37 487 17 q 478 -126 478 -93 q 478 -179 478 -154 q 483 -222 478 -204 q 500 -251 489 -240 q 529 -262 511 -262 q 553 -256 542 -262 q 572 -241 564 -250 q 584 -220 580 -232 q 589 -195 589 -207 q 585 -173 589 -182 q 577 -154 582 -165 q 596 -142 584 -149 q 624 -129 609 -136 q 654 -115 639 -122 q 682 -107 669 -109 l 694 -130 q 678 -193 694 -163 q 629 -256 663 -223 q 599 -282 617 -268 q 558 -309 581 -296 q 510 -330 535 -322 q 459 -339 484 -339 q 416 -322 432 -339 q 391 -279 400 -305 q 380 -219 383 -252 q 377 -151 377 -185 q 385 5 377 -78 q 408 177 394 89 q 357 99 385 136 q 301 34 330 62 q 243 -11 272 5 q 187 -28 214 -28 q 138 -15 164 -28 q 89 25 111 -2 q 51 98 66 54 q 36 206 36 143 q 49 312 36 260 q 90 411 63 364 q 154 499 116 458 q 240 571 191 539 q 280 594 259 583 q 325 615 302 606 q 370 629 347 624 q 414 635 393 635 q 444 630 429 635 q 472 620 459 626 q 499 607 486 614 q 523 593 511 599 q 555 615 538 604 q 591 635 572 626 l 606 611 "},"k":{"x_min":58.609375,"x_max":610,"ha":610,"o":"m 299 961 q 294 894 299 934 q 284 805 290 855 q 269 699 277 756 q 250 583 260 643 q 231 462 241 523 q 212 343 221 401 l 358 454 q 435 514 405 489 q 473 554 465 539 q 466 576 481 570 q 404 583 450 583 l 401 608 q 478 622 441 614 q 558 631 515 631 q 600 621 591 631 q 610 588 610 612 q 595 560 610 578 q 552 517 580 542 q 484 463 524 492 q 393 402 444 434 l 314 354 q 350 302 332 332 q 386 237 368 271 q 421 170 404 203 q 454 110 438 137 q 486 67 471 84 q 514 51 500 51 q 548 52 530 51 q 591 68 565 54 l 603 45 q 524 -9 558 7 q 465 -27 491 -27 q 418 -3 441 -27 q 373 55 395 19 q 330 134 351 91 q 289 218 309 178 q 250 292 269 259 q 212 339 231 325 q 196 229 203 282 q 184 134 189 177 q 180 62 180 92 q 183 17 180 32 q 159 6 173 13 q 131 -5 146 0 q 104 -17 117 -12 q 82 -28 90 -23 l 58 -7 q 68 56 61 12 q 84 161 74 101 q 106 293 94 221 q 129 440 118 365 q 152 588 141 515 q 172 724 163 661 q 185 836 180 787 q 191 910 191 884 q 188 937 191 927 q 182 951 186 946 q 172 956 178 955 q 158 958 166 958 q 140 954 152 958 q 116 948 128 951 q 85 939 102 944 l 75 966 q 133 990 104 979 q 187 1011 162 1002 q 231 1025 212 1020 q 258 1031 250 1031 q 275 1028 268 1031 q 288 1019 283 1026 q 296 998 293 1012 q 299 961 299 984 "},"Ù":{"x_min":113.796875,"x_max":871.515625,"ha":832,"o":"m 867 825 q 800 804 824 815 q 775 783 777 792 l 714 347 q 673 189 702 258 q 601 73 644 120 q 501 3 557 27 q 377 -21 444 -21 q 275 -4 321 -21 q 195 45 229 12 q 144 125 162 78 q 126 236 126 173 q 132 313 126 271 l 198 783 q 178 803 199 791 q 113 825 157 815 l 117 854 l 395 854 l 391 825 q 322 804 348 815 q 294 783 296 792 l 234 345 q 232 306 232 325 q 232 268 232 286 q 243 182 232 221 q 277 116 255 144 q 334 73 300 88 q 412 58 368 58 q 493 79 456 58 q 558 137 530 101 q 606 220 587 173 q 631 317 624 266 l 693 783 q 676 803 695 791 q 613 825 657 815 l 617 855 l 871 855 l 867 825 m 615 945 q 599 925 605 931 q 583 913 594 919 l 311 1078 l 319 1110 q 336 1122 325 1115 q 359 1135 347 1129 q 383 1148 371 1142 q 402 1158 394 1154 l 615 945 "},"Ů":{"x_min":113.796875,"x_max":872.109375,"ha":832,"o":"m 868 825 q 801 804 825 815 q 776 783 777 792 l 715 347 q 674 189 703 258 q 601 73 644 120 q 501 3 558 27 q 377 -21 444 -21 q 275 -4 322 -21 q 195 45 229 12 q 144 125 162 78 q 126 236 126 173 q 132 313 126 271 l 198 783 q 178 803 199 791 q 113 825 157 815 l 117 854 l 395 854 l 391 825 q 322 804 348 815 q 294 783 296 792 l 234 345 q 232 306 232 325 q 232 268 232 286 q 243 182 232 221 q 277 116 255 144 q 334 73 300 88 q 412 58 368 58 q 493 79 456 58 q 559 137 531 101 q 606 220 587 173 q 632 317 625 266 l 694 783 q 676 803 695 791 q 613 825 657 815 l 617 855 l 872 855 l 868 825 m 592 1059 q 581 1102 592 1083 q 550 1121 571 1121 q 517 1112 531 1121 q 493 1089 503 1103 q 478 1058 483 1075 q 474 1025 474 1041 q 485 981 474 1000 q 517 963 496 963 q 549 972 535 963 q 573 995 563 981 q 587 1026 582 1009 q 592 1059 592 1043 m 649 1085 q 637 1027 649 1057 q 604 971 625 997 q 556 929 583 946 q 497 913 528 913 q 465 919 480 913 q 439 938 450 926 q 422 964 428 949 q 417 996 417 979 q 428 1058 417 1027 q 461 1114 440 1089 q 509 1156 482 1140 q 569 1173 537 1173 q 627 1148 605 1173 q 649 1085 649 1123 "},"¢":{"x_min":71,"x_max":586.390625,"ha":559,"o":"m 170 345 q 177 280 170 310 q 198 227 184 251 q 229 187 211 204 q 269 161 247 170 l 334 641 q 264 599 295 631 q 212 526 233 568 q 180 435 191 483 q 170 345 170 388 m 397 711 q 416 713 407 712 q 435 715 426 715 q 488 703 465 715 q 530 678 511 692 q 562 650 548 664 q 586 634 576 637 q 558 611 572 624 q 531 588 544 598 q 508 570 519 577 q 489 563 497 563 q 475 573 482 563 q 457 597 468 584 q 429 624 446 611 q 388 642 412 637 l 321 152 q 350 156 333 152 q 388 173 366 161 q 437 204 410 184 q 500 252 465 223 q 511 236 505 243 q 521 223 517 229 q 453 165 483 189 q 398 124 423 141 q 351 97 372 107 q 311 82 330 87 l 298 -12 q 288 -20 292 -17 q 279 -26 283 -24 q 270 -29 275 -28 q 257 -33 265 -30 l 244 -18 l 257 75 l 249 75 q 214 79 233 75 q 175 95 195 84 q 137 125 155 106 q 103 171 118 144 q 79 235 88 198 q 71 319 71 271 q 80 410 71 364 q 111 501 89 457 q 167 585 132 545 q 252 659 201 626 q 294 681 271 671 q 342 699 317 691 l 357 803 q 370 813 365 809 q 377 817 374 816 q 384 820 380 819 q 397 824 388 822 l 411 809 l 397 711 "},"Ɂ":{"x_min":89,"x_max":615.8125,"ha":612,"o":"m 118 0 l 122 29 q 202 49 176 39 q 229 70 227 58 l 256 268 q 283 354 263 317 q 329 421 303 391 q 386 475 356 451 q 443 525 417 500 q 487 576 469 550 q 511 637 506 603 q 482 765 522 721 q 360 810 442 810 q 301 796 329 810 q 252 762 273 783 q 217 715 231 741 q 200 662 203 688 q 198 633 198 646 q 203 609 198 621 q 156 592 181 597 q 103 583 131 586 l 89 603 l 89 619 q 90 639 89 629 q 125 730 96 687 q 199 805 154 773 q 300 856 244 837 q 416 875 356 875 q 510 860 470 875 q 575 819 550 845 q 609 753 600 792 q 613 668 619 715 q 586 582 606 617 q 539 520 566 547 q 484 472 513 494 q 428 428 455 451 q 383 376 402 404 q 359 308 364 348 l 326 70 q 349 49 325 60 q 421 29 372 38 l 418 0 l 118 0 "},"ē":{"x_min":43,"x_max":581.5625,"ha":546,"o":"m 264 530 q 220 480 241 510 q 181 417 198 451 q 152 346 164 383 q 141 273 141 309 q 280 336 229 308 q 358 389 332 364 q 392 438 385 415 q 400 485 400 461 q 394 521 400 506 q 380 545 389 536 q 360 559 371 555 q 337 563 348 563 q 305 556 326 563 q 264 530 284 548 m 509 515 q 504 475 509 496 q 486 431 500 454 q 447 385 472 409 q 381 334 422 360 q 281 280 340 308 q 140 221 222 252 q 156 152 144 183 q 184 98 168 120 q 218 63 200 76 q 255 51 237 51 q 290 54 269 51 q 337 67 310 57 q 397 97 364 77 q 472 149 431 116 q 485 136 479 145 q 493 121 491 127 q 394 44 437 73 q 318 -1 352 14 q 258 -22 285 -17 q 207 -28 231 -28 q 156 -15 184 -28 q 102 24 127 -2 q 60 96 77 52 q 43 205 43 140 q 55 309 43 258 q 92 408 68 360 q 152 497 116 455 q 232 573 187 539 q 267 597 247 586 q 308 617 287 608 q 351 630 329 625 q 395 635 374 635 q 445 624 424 635 q 481 596 466 613 q 502 558 495 580 q 509 515 509 537 m 581 853 q 575 836 579 845 q 565 817 570 826 q 555 799 560 807 q 547 785 551 790 l 174 785 l 164 801 q 170 817 166 807 q 179 835 174 826 q 188 854 183 845 q 197 870 193 863 l 568 870 l 581 853 "},"Ẹ":{"x_min":-0.5,"x_max":634.5625,"ha":641,"o":"m 580 165 q 552 63 566 106 q 531 0 538 19 l 0 0 l 3 29 q 72 49 46 38 q 99 70 97 61 l 198 783 q 178 803 199 791 q 113 825 157 816 l 117 855 l 617 855 l 634 837 q 626 799 631 820 q 614 757 621 778 q 601 717 608 736 q 588 685 594 698 l 559 685 q 562 737 562 716 q 557 770 562 757 q 544 787 552 782 q 523 793 536 793 l 296 793 l 256 498 l 509 498 l 523 479 q 508 459 516 469 q 490 439 499 449 q 472 421 481 429 q 456 406 463 412 q 433 425 446 418 q 403 437 421 433 q 359 442 385 442 q 295 442 333 442 l 248 442 l 202 104 q 204 86 201 94 q 220 72 207 78 q 258 64 233 67 q 323 61 282 61 l 405 61 q 453 64 433 61 q 489 79 473 67 q 519 114 505 91 q 553 177 534 137 l 580 165 m 314 -173 q 308 -210 314 -192 q 291 -244 302 -229 q 264 -269 280 -259 q 230 -278 249 -278 q 197 -266 209 -278 q 186 -231 186 -254 q 192 -194 186 -213 q 209 -160 198 -175 q 235 -134 220 -144 q 269 -125 250 -125 q 302 -137 290 -125 q 314 -173 314 -150 "},"≠":{"x_min":33.90625,"x_max":545.921875,"ha":570,"o":"m 518 302 q 513 287 516 295 l 506 270 q 499 254 503 262 q 492 241 495 246 l 238 241 l 144 106 q 127 97 138 101 q 103 87 116 92 q 79 79 90 82 q 59 72 67 75 l 48 95 l 149 241 l 46 241 l 33 257 q 46 288 39 270 q 61 319 54 305 l 204 319 l 292 445 l 73 445 l 61 461 q 73 492 66 474 q 88 523 81 509 l 346 523 l 438 653 q 479 672 456 664 q 522 686 503 681 l 537 664 l 437 523 l 533 523 l 545 506 q 540 491 543 499 l 533 474 q 526 458 530 466 q 519 445 522 450 l 382 445 l 293 319 l 506 319 l 518 302 "},"¥":{"x_min":15.15625,"x_max":662.8125,"ha":558,"o":"m 659 799 q 601 782 622 791 q 570 756 580 773 l 340 354 l 340 346 l 482 346 l 493 330 l 474 286 l 332 286 l 306 75 q 323 53 305 66 q 389 28 341 40 l 386 0 l 123 0 l 127 28 q 199 52 178 40 q 221 75 219 65 l 247 286 l 102 286 l 93 302 l 110 346 l 254 346 l 256 361 q 228 465 245 409 q 191 575 211 521 q 149 677 171 629 q 108 758 127 725 q 95 774 101 768 q 79 783 89 780 q 55 786 69 786 q 20 783 40 786 l 15 811 q 49 820 30 815 q 87 829 68 825 q 123 835 106 833 q 151 837 139 837 q 181 812 166 837 q 208 761 194 791 q 236 697 222 731 q 264 628 251 664 q 289 560 278 593 q 309 496 300 526 q 322 445 317 466 l 504 756 q 501 783 514 773 q 447 799 487 793 l 451 827 l 662 827 l 659 799 "},"Ƚ":{"x_min":0,"x_max":575.09375,"ha":623,"o":"m 575 165 q 547 63 561 106 q 524 0 533 19 l 0 0 l 4 29 q 72 49 46 38 q 99 70 98 61 l 140 364 l 38 364 l 28 380 q 36 402 31 391 q 47 425 42 414 l 148 425 l 198 783 q 179 803 200 791 q 113 825 158 815 l 118 854 l 396 854 l 391 825 q 323 804 349 815 q 295 783 297 792 l 246 425 l 404 425 l 417 409 l 395 364 l 238 364 l 202 104 q 205 83 201 92 q 222 70 209 75 q 256 63 234 65 q 312 61 278 61 l 398 61 q 447 64 427 61 q 483 79 467 67 q 514 114 499 91 q 548 177 529 137 l 575 165 "},"Ĥ":{"x_min":0,"x_max":872.125,"ha":838,"o":"m 391 826 q 323 805 349 816 q 295 784 297 793 l 254 479 l 631 479 l 673 784 q 653 804 674 792 q 590 826 632 816 l 592 855 l 872 855 l 868 826 q 799 805 825 816 q 772 784 773 793 l 673 71 q 693 51 672 62 q 758 29 714 39 l 754 0 l 476 0 l 480 29 q 548 50 523 39 q 575 71 573 61 l 622 417 l 245 417 l 198 71 q 218 51 196 62 q 282 29 239 39 l 278 0 l 0 0 l 4 29 q 72 50 46 39 q 99 71 98 61 l 198 784 q 179 804 200 792 q 113 826 158 816 l 118 855 l 396 855 l 391 826 m 695 944 q 680 924 685 930 q 664 913 675 918 l 518 1052 l 338 913 q 327 924 332 917 q 316 944 322 930 l 502 1148 l 564 1148 l 695 944 "},"U":{"x_min":113.796875,"x_max":871.515625,"ha":832,"o":"m 867 825 q 800 804 824 815 q 775 783 777 792 l 714 347 q 673 189 702 258 q 601 73 644 120 q 501 3 557 27 q 377 -21 444 -21 q 275 -4 321 -21 q 195 45 229 12 q 144 125 162 78 q 126 236 126 173 q 132 313 126 271 l 198 783 q 178 803 199 791 q 113 825 157 815 l 117 854 l 395 854 l 391 825 q 322 804 348 815 q 294 783 296 792 l 234 345 q 232 306 232 325 q 232 268 232 286 q 243 182 232 221 q 277 116 255 144 q 334 73 300 88 q 412 58 368 58 q 493 79 456 58 q 558 137 530 101 q 606 220 587 173 q 631 317 624 266 l 693 783 q 676 803 695 791 q 613 825 657 815 l 617 855 l 871 855 l 867 825 "},"Ñ":{"x_min":0,"x_max":877.546875,"ha":840,"o":"m 873 825 q 806 806 828 818 q 781 783 783 794 l 670 -21 q 644 -16 656 -19 q 623 -8 633 -13 q 606 6 614 -2 q 590 30 598 15 l 252 681 l 169 70 q 186 49 167 62 q 251 29 205 36 l 247 0 l 0 0 l 4 29 q 72 48 50 35 q 96 70 95 61 l 195 782 q 157 811 178 803 q 107 825 136 820 l 111 854 l 231 854 q 255 854 246 854 q 270 848 263 854 q 282 832 276 843 q 298 801 288 821 l 626 175 l 710 783 q 706 793 710 787 q 692 804 702 799 q 666 816 682 810 q 626 825 650 821 l 630 855 l 877 855 l 873 825 m 734 1094 q 702 1040 720 1067 q 663 991 684 1013 q 618 957 642 970 q 567 944 594 944 q 528 955 545 944 q 495 981 511 967 q 463 1006 479 994 q 429 1018 447 1018 q 381 996 406 1018 q 328 937 357 975 l 299 951 q 331 1005 314 978 q 371 1053 349 1031 q 417 1087 392 1074 q 467 1101 441 1101 q 508 1089 489 1101 q 543 1064 526 1077 q 573 1038 559 1050 q 602 1027 587 1027 q 652 1048 625 1027 q 703 1107 678 1069 l 734 1094 "},"F":{"x_min":-0.3125,"x_max":639.875,"ha":604,"o":"m 639 837 q 631 799 636 820 q 619 757 626 778 q 606 717 613 736 q 594 685 599 698 l 566 685 q 568 737 568 716 q 563 770 568 757 q 550 787 558 782 q 529 793 542 793 l 296 793 l 255 498 l 474 498 l 490 479 q 474 459 482 469 q 456 439 465 449 q 439 421 447 429 q 423 406 430 412 q 370 436 400 429 q 295 444 340 444 l 247 444 l 197 70 q 218 51 195 62 q 300 28 241 41 l 296 0 l 0 0 l 3 28 q 72 49 46 38 q 99 70 98 60 l 198 783 q 178 803 199 791 q 113 825 157 816 l 117 855 l 623 855 l 639 837 "},"ả":{"x_min":36,"x_max":611.15625,"ha":625,"o":"m 409 292 q 419 355 414 322 q 431 419 425 388 q 441 475 436 449 q 448 515 445 500 q 425 532 437 523 q 399 548 413 540 q 370 559 385 555 q 339 564 355 564 q 280 548 307 564 q 229 508 252 533 q 187 450 206 483 q 156 384 168 418 q 136 316 143 350 q 129 257 129 283 q 136 177 129 213 q 156 117 143 142 q 187 78 169 92 q 225 65 205 65 q 265 85 241 65 q 313 139 288 106 q 364 212 339 172 q 409 292 389 253 m 611 45 q 516 -10 552 7 q 460 -28 479 -28 q 436 -19 448 -28 q 416 12 425 -11 q 403 77 408 35 q 398 184 398 118 q 354 116 380 153 q 300 47 329 79 q 240 -6 270 14 q 180 -28 209 -28 q 132 -15 158 -28 q 85 25 107 -2 q 50 98 64 54 q 36 206 36 143 q 48 311 36 260 q 86 409 61 362 q 147 497 111 456 q 232 571 183 538 q 272 594 250 583 q 317 615 294 606 q 364 629 341 624 q 408 635 387 635 q 436 631 422 635 q 462 621 449 627 q 487 608 475 615 q 508 594 498 601 q 541 616 524 605 q 577 635 559 626 l 591 611 q 572 594 579 601 q 559 577 565 586 q 549 552 553 567 q 540 515 545 538 q 521 415 530 466 q 505 318 512 364 q 495 238 499 273 q 492 188 492 203 q 494 123 492 150 q 500 81 496 97 q 510 58 504 65 q 525 51 517 51 q 557 54 538 51 q 603 70 575 58 l 611 45 m 504 904 q 486 855 504 876 q 447 818 468 834 q 408 787 426 801 q 391 755 391 772 q 397 738 391 748 q 419 718 404 728 q 400 710 409 712 q 380 708 391 709 q 343 736 354 723 q 333 761 333 749 q 341 781 333 771 q 362 799 349 790 q 389 816 374 807 q 417 837 404 826 q 437 863 429 849 q 446 895 446 876 q 437 927 446 914 q 408 940 428 940 q 385 935 396 940 q 366 922 374 930 q 355 905 359 914 q 355 886 352 895 q 343 882 351 884 q 326 877 335 879 q 308 873 317 874 q 294 870 300 871 l 287 878 q 302 916 287 898 q 337 945 316 933 q 382 965 358 958 q 426 972 406 972 q 484 952 465 972 q 504 904 504 932 "},"ʔ":{"x_min":55.90625,"x_max":561.203125,"ha":535,"o":"m 55 0 l 59 28 q 167 69 164 49 l 201 327 q 228 420 208 378 q 275 499 249 462 q 332 568 302 536 q 388 633 362 601 q 433 698 414 665 q 457 770 452 732 q 456 847 463 811 q 432 910 449 883 q 387 951 415 936 q 323 967 359 967 q 277 954 299 967 q 236 921 255 941 q 206 876 218 901 q 190 824 194 850 q 190 805 190 815 q 192 785 190 795 q 146 767 171 775 q 93 757 121 760 l 81 777 q 81 788 81 782 q 83 799 81 794 q 116 888 89 846 q 184 962 144 930 q 275 1012 225 993 q 379 1031 326 1031 q 464 1012 428 1031 q 524 962 501 993 q 556 889 547 930 q 558 800 565 847 q 531 712 551 751 q 486 640 512 673 q 430 578 459 608 q 374 516 400 548 q 329 449 348 485 q 303 366 310 412 l 264 69 q 288 49 263 59 q 360 28 312 38 l 357 0 l 55 0 "},"ờ":{"x_min":36,"x_max":694,"ha":643,"o":"m 453 342 q 415 500 453 445 q 307 556 377 556 q 225 527 258 556 q 171 456 192 499 q 142 364 151 414 q 134 270 134 314 q 145 184 134 225 q 176 114 156 144 q 223 66 196 83 q 280 48 249 48 q 336 62 312 48 q 380 99 361 76 q 413 153 400 123 q 436 216 427 183 q 448 281 444 249 q 453 342 453 314 m 694 704 q 681 647 694 674 q 646 597 668 620 q 594 552 624 573 q 529 515 564 532 q 550 379 550 456 q 539 287 550 333 q 510 197 529 240 q 461 113 490 153 q 394 42 432 73 q 357 15 377 28 q 317 -7 337 2 q 276 -22 297 -17 q 234 -28 255 -28 q 150 -7 187 -28 q 87 46 113 12 q 49 129 62 81 q 36 233 36 177 q 44 327 36 282 q 70 414 52 372 q 119 495 88 456 q 194 569 149 533 q 270 616 229 597 q 354 635 311 635 q 450 612 411 635 q 512 551 489 590 q 564 593 547 568 q 581 653 581 618 q 575 679 581 665 q 550 704 570 693 l 664 758 q 687 733 681 748 q 694 704 694 719 m 390 710 q 368 698 376 701 q 348 696 360 696 l 178 957 l 200 982 q 221 985 208 984 q 247 987 233 987 q 274 987 261 987 q 295 987 287 987 l 390 710 "},"̿":{"x_min":-559.484375,"x_max":139.703125,"ha":0,"o":"m 139 1021 q 133 1004 137 1013 q 123 985 128 994 q 113 967 118 975 q 105 953 109 958 l -524 953 l -535 969 q -528 985 -532 975 q -519 1003 -524 994 q -510 1022 -515 1013 q -501 1038 -505 1031 l 126 1038 l 139 1021 m 115 851 q 108 834 113 843 q 99 815 104 824 q 89 797 94 805 q 81 783 84 788 l -548 783 l -559 799 q -552 815 -556 805 q -544 833 -548 824 q -535 852 -539 843 q -526 868 -530 861 l 102 868 l 115 851 "},"å":{"x_min":36,"x_max":611.40625,"ha":626,"o":"m 409 292 q 419 355 414 322 q 431 419 425 388 q 441 475 437 449 q 448 515 445 500 q 426 532 438 523 q 400 548 414 540 q 370 559 386 555 q 339 564 355 564 q 280 548 308 564 q 229 508 253 533 q 187 450 206 483 q 156 384 169 418 q 136 316 143 350 q 129 257 129 283 q 136 177 129 213 q 156 117 143 142 q 187 78 169 92 q 225 65 205 65 q 265 85 241 65 q 314 139 288 106 q 364 212 339 172 q 409 292 389 253 m 611 45 q 516 -10 552 7 q 460 -28 479 -28 q 436 -19 448 -28 q 416 12 425 -11 q 403 77 408 35 q 398 184 398 118 q 354 116 380 153 q 300 47 329 79 q 240 -6 270 14 q 180 -28 209 -28 q 132 -15 158 -28 q 85 25 107 -2 q 50 98 64 54 q 36 206 36 143 q 48 311 36 260 q 86 409 61 362 q 147 497 111 456 q 232 571 183 538 q 272 594 250 583 q 317 615 294 606 q 364 629 341 624 q 408 635 387 635 q 436 631 422 635 q 462 621 449 627 q 487 608 475 615 q 509 594 498 601 q 542 616 524 605 q 578 635 559 626 l 591 611 q 572 594 580 601 q 559 577 565 586 q 549 552 553 567 q 540 515 545 538 q 521 415 530 466 q 505 318 512 364 q 495 238 499 273 q 492 188 492 203 q 494 123 492 150 q 500 81 496 97 q 511 58 504 65 q 525 51 517 51 q 557 54 538 51 q 603 70 576 58 l 611 45 m 452 842 q 441 885 452 866 q 410 904 431 904 q 377 895 391 904 q 353 872 363 886 q 338 841 343 858 q 334 808 334 824 q 345 764 334 783 q 377 746 356 746 q 409 755 395 746 q 433 778 423 764 q 447 809 442 792 q 452 842 452 826 m 509 868 q 497 810 509 840 q 464 754 485 780 q 416 712 443 729 q 357 696 388 696 q 325 702 340 696 q 299 721 310 709 q 282 747 288 732 q 277 779 277 762 q 288 841 277 810 q 321 897 300 872 q 369 939 342 923 q 429 956 397 956 q 487 931 465 956 q 509 868 509 906 "},"0":{"x_min":32,"x_max":545,"ha":559,"o":"m 437 533 q 427 631 437 588 q 402 702 418 673 q 365 745 386 730 q 320 760 343 760 q 253 734 282 760 q 203 668 224 709 q 168 576 182 627 q 146 474 154 525 q 138 376 138 423 q 138 298 138 330 q 169 118 138 178 q 255 58 201 58 q 324 84 295 58 q 374 152 353 110 q 408 247 394 194 q 429 352 421 299 q 437 453 437 405 q 437 533 437 500 m 545 531 q 540 444 545 491 q 526 349 536 398 q 499 252 516 300 q 456 160 481 203 q 408 89 433 122 q 353 31 382 56 q 290 -6 324 7 q 216 -21 255 -21 q 134 2 169 -21 q 77 66 99 25 q 43 164 54 107 q 32 286 32 220 q 36 371 32 325 q 50 463 40 416 q 76 559 60 510 q 116 652 92 607 q 162 724 137 690 q 218 783 188 758 q 282 823 248 808 q 358 838 317 838 q 441 814 405 838 q 499 751 476 791 q 533 654 522 710 q 545 531 545 597 "},"ɋ":{"x_min":36,"x_max":694.34375,"ha":627,"o":"m 235 65 q 277 85 253 65 q 326 138 300 105 q 378 213 352 171 q 428 296 405 254 l 465 515 q 441 531 454 523 q 413 547 428 540 q 381 559 398 554 q 347 564 365 564 q 287 548 315 564 q 233 508 258 533 q 188 450 209 483 q 153 384 168 418 q 131 316 139 350 q 123 257 123 283 q 133 177 123 213 q 159 117 143 142 q 195 78 175 92 q 235 65 216 65 m 606 611 q 587 594 595 601 q 574 577 579 586 q 565 553 569 567 q 557 515 561 538 q 546 450 553 496 q 530 344 539 405 q 512 215 521 284 q 495 82 503 146 q 482 -37 487 17 q 478 -126 478 -93 q 478 -179 478 -154 q 483 -222 478 -204 q 500 -251 489 -240 q 529 -262 511 -262 q 553 -256 542 -262 q 572 -241 564 -250 q 584 -220 580 -232 q 589 -195 589 -207 q 585 -173 589 -182 q 577 -154 582 -165 q 596 -142 584 -149 q 624 -129 609 -136 q 654 -115 639 -122 q 682 -107 669 -109 l 694 -130 q 678 -193 694 -163 q 629 -256 663 -223 q 599 -282 617 -268 q 558 -309 581 -296 q 510 -330 535 -322 q 459 -339 484 -339 q 416 -322 432 -339 q 391 -279 400 -305 q 380 -219 383 -252 q 377 -151 377 -185 q 385 5 377 -78 q 408 177 394 89 q 357 99 385 136 q 301 34 330 62 q 243 -11 272 5 q 187 -28 214 -28 q 138 -15 164 -28 q 89 25 111 -2 q 51 98 66 54 q 36 206 36 143 q 49 312 36 260 q 90 411 63 364 q 154 499 116 458 q 240 571 191 539 q 280 594 259 583 q 325 615 302 606 q 370 629 347 624 q 414 635 393 635 q 444 630 429 635 q 472 620 459 626 q 499 607 486 614 q 523 593 511 599 q 555 615 538 604 q 591 635 572 626 l 606 611 "},"ō":{"x_min":36,"x_max":577.796875,"ha":586,"o":"m 453 342 q 415 500 453 445 q 307 556 377 556 q 225 527 258 556 q 171 456 192 499 q 142 364 151 414 q 134 270 134 314 q 145 184 134 225 q 176 114 156 144 q 223 66 196 83 q 280 48 249 48 q 336 62 312 48 q 380 99 361 76 q 413 153 400 123 q 436 216 427 183 q 448 281 444 249 q 453 342 453 314 m 550 379 q 539 287 550 333 q 510 196 529 240 q 461 113 490 153 q 394 42 432 73 q 357 15 377 28 q 317 -7 337 2 q 276 -22 297 -17 q 234 -28 255 -28 q 150 -7 187 -28 q 87 46 113 12 q 49 129 62 81 q 36 233 36 177 q 44 327 36 282 q 70 414 52 372 q 119 495 88 456 q 194 569 149 533 q 270 616 229 597 q 354 635 311 635 q 444 616 406 635 q 504 563 481 597 q 539 482 528 529 q 550 379 550 435 m 577 853 q 571 836 575 845 q 561 817 566 826 q 552 799 556 807 q 543 785 547 790 l 171 785 l 161 801 q 167 817 163 807 q 176 835 171 826 q 185 854 180 845 q 194 870 190 863 l 564 870 l 577 853 "},"”":{"x_min":123.296875,"x_max":574,"ha":566,"o":"m 308 898 q 292 827 308 862 q 254 759 277 791 q 202 698 230 726 q 147 650 173 670 l 123 674 q 149 703 135 686 q 175 741 163 721 q 195 782 187 762 q 204 820 204 803 q 186 863 204 847 q 133 879 168 879 l 127 908 q 153 927 134 917 q 194 948 172 938 q 237 964 216 958 q 268 971 257 971 q 297 940 287 958 q 308 898 308 923 m 574 898 q 558 827 574 862 q 519 759 543 791 q 468 698 496 726 q 413 650 439 670 l 389 674 q 415 703 401 686 q 441 741 429 721 q 461 782 453 762 q 469 820 469 803 q 451 863 469 847 q 399 879 433 879 l 394 908 q 420 927 401 917 q 461 948 439 938 q 504 964 483 958 q 536 971 525 971 q 564 940 554 958 q 574 898 574 923 "},"ḕ":{"x_min":43,"x_max":581.5625,"ha":546,"o":"m 264 530 q 220 480 241 510 q 181 417 198 451 q 152 346 164 383 q 141 273 141 309 q 280 336 229 308 q 358 389 332 364 q 392 438 385 415 q 400 485 400 461 q 394 521 400 506 q 380 545 389 536 q 360 559 371 555 q 337 563 348 563 q 305 556 326 563 q 264 530 284 548 m 509 515 q 504 475 509 496 q 486 431 500 454 q 447 385 472 409 q 381 334 422 360 q 281 280 340 308 q 140 221 222 252 q 156 152 144 183 q 184 98 168 120 q 218 63 200 76 q 255 51 237 51 q 290 54 269 51 q 337 67 310 57 q 397 97 364 77 q 472 149 431 116 q 485 136 479 145 q 493 121 491 127 q 394 44 437 73 q 318 -1 352 14 q 258 -22 285 -17 q 207 -28 231 -28 q 156 -15 184 -28 q 102 24 127 -2 q 60 96 77 52 q 43 205 43 140 q 55 309 43 258 q 92 408 68 360 q 152 497 116 455 q 232 573 187 539 q 267 597 247 586 q 308 617 287 608 q 351 630 329 625 q 395 635 374 635 q 445 624 424 635 q 481 596 466 613 q 502 558 495 580 q 509 515 509 537 m 581 853 q 575 836 579 845 q 565 817 570 826 q 555 799 560 807 q 547 785 551 790 l 174 785 l 164 801 q 170 817 166 807 q 179 835 174 826 q 188 854 183 845 q 197 870 193 863 l 568 870 l 581 853 m 428 961 q 406 949 415 952 q 386 947 398 947 l 216 1208 l 238 1232 q 259 1236 246 1234 q 285 1238 271 1238 q 312 1238 299 1238 q 334 1238 325 1238 l 428 961 "},"ö":{"x_min":36,"x_max":555,"ha":586,"o":"m 453 342 q 415 500 453 445 q 307 556 377 556 q 225 527 258 556 q 171 456 192 499 q 142 364 151 414 q 134 270 134 314 q 145 184 134 225 q 176 114 156 144 q 223 66 196 83 q 280 48 249 48 q 336 62 312 48 q 380 99 361 76 q 413 153 400 123 q 436 216 427 183 q 448 281 444 249 q 453 342 453 314 m 550 379 q 539 287 550 333 q 510 196 529 240 q 461 113 490 153 q 394 42 432 73 q 357 15 377 28 q 317 -7 337 2 q 276 -22 297 -17 q 234 -28 255 -28 q 150 -7 187 -28 q 87 46 113 12 q 49 129 62 81 q 36 233 36 177 q 44 327 36 282 q 70 414 52 372 q 119 495 88 456 q 194 569 149 533 q 270 616 229 597 q 354 635 311 635 q 444 616 406 635 q 504 563 481 597 q 539 482 528 529 q 550 379 550 435 m 302 856 q 295 818 302 837 q 278 784 289 799 q 252 759 268 769 q 217 750 236 750 q 183 762 195 750 q 171 797 171 774 q 177 834 171 815 q 195 868 183 853 q 222 894 206 884 q 257 904 238 904 q 290 891 278 904 q 302 856 302 879 m 555 856 q 548 818 555 837 q 531 784 542 799 q 504 759 520 769 q 468 750 488 750 q 435 762 447 750 q 424 797 424 774 q 430 834 424 815 q 447 868 436 853 q 473 894 457 884 q 508 904 489 904 q 542 891 529 904 q 555 856 555 879 "},"ẉ":{"x_min":3.15625,"x_max":867,"ha":875,"o":"m 867 583 q 863 541 867 565 q 851 484 860 517 q 825 406 841 451 q 783 303 809 362 q 720 170 757 244 q 632 1 683 95 q 618 -5 625 -2 q 601 -13 610 -9 q 584 -21 592 -17 q 569 -27 576 -25 l 547 -6 q 536 75 542 31 q 524 165 530 119 q 510 256 517 211 q 497 341 504 301 q 483 414 490 381 q 471 468 477 447 q 462 424 471 453 q 441 357 454 396 q 409 273 427 318 q 370 182 391 229 q 326 90 349 135 q 281 6 303 45 q 266 -1 274 3 q 248 -10 258 -5 q 229 -20 239 -15 q 214 -27 220 -25 l 192 -6 q 182 77 187 31 q 172 173 177 124 q 161 271 167 222 q 150 365 156 321 q 139 445 145 409 q 127 505 134 482 q 118 534 123 523 q 105 551 112 545 q 92 559 99 557 q 79 561 85 561 q 62 558 73 561 q 40 552 51 556 q 12 544 27 549 l 3 570 q 57 594 31 583 q 104 615 83 606 q 141 629 125 624 q 165 635 157 635 q 194 612 184 635 q 215 542 203 590 q 225 488 219 523 q 236 412 230 454 q 247 324 242 370 q 258 237 253 278 q 265 162 262 195 q 269 112 269 129 q 325 228 296 165 q 377 354 353 290 q 417 478 401 418 q 434 586 434 538 q 456 604 444 595 q 480 619 468 612 q 503 630 492 626 q 521 635 513 635 q 528 623 524 635 q 537 594 532 612 q 547 551 541 575 q 557 502 552 527 l 566 452 q 574 406 571 427 q 586 336 579 375 q 599 257 592 297 q 611 175 605 216 q 620 99 617 134 q 703 264 671 193 q 754 389 736 335 q 778 479 772 442 q 785 542 785 516 q 775 564 785 556 q 747 573 765 573 q 724 570 738 573 q 695 562 710 567 l 683 587 q 727 610 706 601 q 765 624 748 619 q 793 632 782 630 q 809 635 805 635 q 831 633 821 635 q 849 626 841 631 q 862 610 857 620 q 867 583 867 600 m 453 -173 q 447 -210 453 -192 q 430 -244 441 -229 q 403 -269 419 -260 q 369 -279 388 -279 q 336 -266 348 -279 q 325 -231 325 -254 q 331 -194 325 -213 q 348 -160 337 -175 q 374 -134 359 -144 q 408 -125 389 -125 q 441 -137 429 -125 q 453 -173 453 -150 "},"Ȧ":{"x_min":-23.953125,"x_max":725.609375,"ha":777,"o":"m 251 301 l 154 75 q 164 45 144 54 q 237 29 184 36 l 233 0 l -23 0 l -19 29 q 48 46 22 37 q 83 75 74 56 l 413 833 q 434 850 422 841 q 459 866 446 858 q 484 881 472 874 q 504 893 495 888 l 651 75 q 656 59 652 66 q 667 46 659 51 q 690 36 676 40 q 725 29 703 32 l 722 0 l 462 0 l 464 31 q 533 42 512 31 q 550 75 554 54 l 511 301 l 251 301 m 500 363 l 437 732 l 277 363 l 500 363 m 552 1050 q 546 1013 552 1031 q 529 979 540 994 q 503 954 518 964 q 468 945 487 945 q 436 957 447 945 q 425 992 425 969 q 431 1029 425 1010 q 447 1063 437 1048 q 473 1089 458 1079 q 508 1099 489 1099 q 540 1086 529 1099 q 552 1050 552 1073 "},"ć":{"x_min":36,"x_max":593.4375,"ha":539,"o":"m 551 553 q 521 531 537 542 q 490 510 505 519 q 462 495 475 501 q 440 489 449 489 q 421 500 432 489 q 396 526 411 512 q 363 552 381 540 q 323 564 345 564 q 266 549 292 564 q 219 508 240 534 q 182 450 198 483 q 156 382 166 417 q 140 310 145 346 q 135 242 135 274 q 144 163 135 198 q 172 102 154 127 q 214 64 189 78 q 267 51 238 51 q 299 55 280 51 q 342 70 318 59 q 398 100 367 81 q 465 149 428 119 q 476 134 470 142 q 486 121 482 127 q 391 44 433 73 q 315 -1 349 14 q 253 -22 280 -17 q 201 -28 225 -28 q 149 -16 178 -28 q 96 23 121 -4 q 53 99 70 52 q 36 218 36 147 q 45 312 36 263 q 76 407 55 360 q 131 495 97 453 q 216 571 166 537 q 258 594 235 583 q 306 615 281 606 q 355 629 331 624 q 400 635 379 635 q 453 623 430 635 q 495 597 476 612 q 527 569 513 582 q 551 553 541 556 m 593 932 l 352 696 q 336 703 341 698 q 322 719 331 708 l 506 989 q 523 984 513 987 q 545 977 534 981 q 567 970 557 974 q 583 962 577 966 l 593 932 "},"þ":{"x_min":-1.703125,"x_max":600,"ha":654,"o":"m 412 546 q 368 530 395 546 q 312 484 342 514 q 253 413 282 455 q 202 322 224 372 l 183 208 q 212 160 193 186 q 254 111 231 134 q 305 73 278 89 q 358 58 332 58 q 394 65 377 58 q 423 84 410 72 q 447 113 436 97 q 466 148 457 129 q 485 203 478 174 q 496 260 493 232 q 500 314 500 288 q 500 360 500 340 q 492 443 500 408 q 472 500 485 478 q 444 534 460 523 q 412 546 429 546 m 293 967 q 288 910 293 953 q 274 801 283 868 q 252 643 265 733 q 221 442 239 552 q 301 546 264 507 q 370 603 338 584 q 426 629 401 623 q 471 635 452 635 q 521 621 498 635 q 562 581 544 607 q 589 515 579 554 q 600 425 600 476 q 581 281 600 357 q 519 127 562 205 q 482 72 503 100 q 435 22 461 45 q 380 -13 410 0 q 319 -28 351 -28 q 277 -15 298 -28 q 238 16 257 -3 q 201 62 219 37 q 167 116 184 88 q 156 60 161 88 q 145 3 151 32 q 119 -210 119 -135 q 121 -303 119 -284 q 97 -310 111 -306 q 69 -320 84 -314 q 42 -330 55 -325 q 20 -339 28 -335 l -1 -319 q 22 -179 8 -259 q 50 -8 35 -99 q 81 178 66 81 q 112 370 97 275 q 140 552 127 464 q 163 712 153 640 q 179 836 173 784 q 185 912 185 888 q 182 937 185 928 q 174 950 179 946 q 162 956 169 955 q 148 958 156 958 q 131 954 142 958 q 108 948 120 951 q 81 939 95 944 l 72 966 q 130 990 100 979 q 185 1011 160 1002 q 231 1025 211 1020 q 259 1031 251 1031 q 287 1016 281 1031 q 293 967 293 1001 "},"]":{"x_min":-58.328125,"x_max":405.546875,"ha":397,"o":"m 222 -228 l -38 -228 l -58 -208 q -45 -175 -52 -192 q -33 -150 -38 -158 l 144 -150 l 307 1009 l 134 1009 l 115 1026 q 126 1057 119 1041 q 140 1085 134 1073 l 405 1085 l 222 -228 "},"Ǒ":{"x_min":61,"x_max":736,"ha":757,"o":"m 635 512 q 622 620 635 569 q 586 708 610 670 q 528 767 563 745 q 449 790 493 790 q 356 770 397 790 q 283 716 315 750 q 229 639 251 683 q 192 547 206 595 q 170 452 177 500 q 164 360 164 403 q 177 243 164 297 q 214 151 190 190 q 273 90 239 112 q 349 68 307 68 q 443 89 402 68 q 517 144 485 110 q 571 225 548 179 q 607 320 593 271 q 628 420 622 370 q 635 512 635 470 m 736 525 q 728 427 736 476 q 704 329 720 377 q 665 236 688 281 q 611 152 641 191 q 550 84 582 116 q 481 29 518 52 q 405 -7 445 6 q 319 -21 364 -21 q 205 6 254 -21 q 125 82 157 34 q 76 194 92 130 q 61 328 61 257 q 68 419 61 371 q 91 515 76 467 q 126 608 105 563 q 174 690 147 653 q 236 762 203 728 q 306 820 269 795 q 387 860 344 845 q 478 875 430 875 q 593 847 544 875 q 673 771 642 819 q 720 659 705 723 q 736 525 736 596 m 512 929 l 449 929 l 322 1167 q 337 1184 332 1180 q 353 1197 343 1189 l 495 1032 l 680 1197 q 692 1185 688 1190 q 702 1167 696 1180 l 512 929 "},"ẁ":{"x_min":3.15625,"x_max":867,"ha":875,"o":"m 867 583 q 863 541 867 565 q 851 484 860 517 q 825 406 841 451 q 783 303 809 362 q 720 170 757 244 q 632 1 683 95 q 618 -5 625 -2 q 601 -13 610 -9 q 584 -21 592 -17 q 569 -27 576 -25 l 547 -6 q 536 75 542 31 q 524 165 530 120 q 510 256 517 211 q 497 341 504 301 q 483 414 490 381 q 471 468 477 447 q 462 424 471 453 q 441 357 454 396 q 409 274 427 318 q 370 182 391 229 q 326 90 349 135 q 281 6 304 45 q 266 -1 275 3 q 248 -10 258 -5 q 229 -20 239 -15 q 214 -27 220 -25 l 192 -6 q 182 77 187 31 q 172 173 177 124 q 161 272 167 222 q 150 365 156 321 q 139 446 145 409 q 127 505 134 482 q 118 534 123 523 q 105 551 112 545 q 92 559 99 557 q 79 561 85 561 q 62 558 73 561 q 40 552 51 556 q 12 544 27 549 l 3 570 q 57 594 31 583 q 104 615 83 606 q 141 629 125 624 q 165 635 157 635 q 194 612 184 635 q 215 542 203 590 q 225 488 219 523 q 236 412 230 454 q 247 324 242 370 q 258 237 253 278 q 265 162 262 196 q 269 112 269 129 q 325 228 296 165 q 377 354 353 291 q 417 478 401 418 q 434 586 434 538 q 456 604 444 595 q 480 619 468 612 q 503 630 492 626 q 521 635 513 635 q 528 623 524 635 q 537 594 532 612 q 547 551 541 575 q 557 502 552 527 l 566 452 q 574 407 571 427 q 586 336 579 375 q 599 257 592 297 q 611 175 605 216 q 620 99 617 134 q 703 264 671 193 q 754 389 736 335 q 778 479 772 442 q 785 542 785 516 q 775 564 785 556 q 747 573 765 573 q 724 570 738 573 q 695 562 710 567 l 683 587 q 727 610 706 601 q 765 624 748 619 q 793 632 782 630 q 809 635 805 635 q 831 633 821 635 q 849 626 841 631 q 862 610 857 620 q 867 583 867 600 m 558 710 q 536 698 544 701 q 515 696 528 696 l 346 958 l 368 982 q 388 986 376 984 q 415 988 401 988 q 441 988 429 988 q 463 988 454 988 l 558 710 "},"Ȟ":{"x_min":0,"x_max":872.125,"ha":838,"o":"m 391 826 q 323 805 349 816 q 295 784 297 793 l 254 479 l 631 479 l 673 784 q 653 804 674 792 q 590 826 632 816 l 592 855 l 872 855 l 868 826 q 799 805 825 816 q 772 784 773 793 l 673 71 q 693 51 672 62 q 758 29 714 39 l 754 0 l 476 0 l 480 29 q 548 50 523 39 q 575 71 573 61 l 622 417 l 245 417 l 198 71 q 218 51 196 62 q 282 29 239 39 l 278 0 l 0 0 l 4 29 q 72 50 46 39 q 99 71 98 61 l 198 784 q 179 804 200 792 q 113 826 158 816 l 118 855 l 396 855 l 391 826 m 535 930 l 473 930 l 342 1134 q 357 1151 351 1147 q 373 1164 362 1156 l 518 1026 l 699 1164 q 711 1152 708 1157 q 721 1134 715 1147 l 535 930 "},"ệ":{"x_min":43,"x_max":543.59375,"ha":546,"o":"m 264 530 q 220 481 241 510 q 181 417 198 451 q 152 346 164 383 q 141 273 141 309 q 280 336 229 308 q 358 390 332 364 q 392 438 385 415 q 400 485 400 461 q 394 521 400 506 q 380 545 389 536 q 360 559 371 555 q 337 564 348 564 q 305 556 326 564 q 264 530 284 548 m 509 515 q 504 475 509 496 q 486 432 500 454 q 447 385 472 409 q 381 334 422 360 q 281 280 340 308 q 140 221 222 252 q 156 152 144 183 q 184 98 168 120 q 218 63 200 76 q 255 51 237 51 q 290 54 269 51 q 337 67 310 57 q 397 97 364 77 q 472 149 431 116 q 485 136 479 145 q 493 121 491 127 q 394 44 437 73 q 318 -1 352 14 q 258 -22 285 -17 q 207 -28 231 -28 q 156 -15 184 -28 q 102 24 127 -2 q 60 96 77 52 q 43 205 43 140 q 55 309 43 258 q 92 408 68 360 q 152 497 116 455 q 232 573 187 539 q 267 597 247 586 q 308 617 287 608 q 351 630 329 625 q 395 635 374 635 q 445 624 424 635 q 481 596 466 613 q 502 558 495 580 q 509 515 509 537 m 278 -173 q 272 -210 278 -192 q 255 -244 266 -229 q 228 -269 244 -260 q 194 -279 213 -279 q 161 -266 173 -279 q 150 -231 150 -254 q 156 -194 150 -213 q 173 -160 162 -175 q 199 -134 184 -144 q 233 -125 214 -125 q 266 -137 254 -125 q 278 -173 278 -150 m 543 726 q 529 706 534 712 q 513 696 523 700 l 371 875 l 186 696 q 175 706 179 700 q 163 726 170 712 l 356 978 l 419 978 l 543 726 "},"ĭ":{"x_min":47.703125,"x_max":468.515625,"ha":342,"o":"m 308 48 q 251 15 276 29 q 204 -8 225 1 q 166 -23 183 -18 q 135 -28 150 -28 q 98 -6 112 -28 q 85 51 85 14 q 90 109 85 71 q 102 192 95 146 q 119 288 110 238 q 135 383 127 338 q 147 463 142 428 q 153 515 153 499 q 150 540 153 531 q 145 553 148 549 q 136 559 142 558 q 125 561 131 561 q 108 558 119 561 q 85 552 97 556 q 57 544 72 549 l 47 569 q 104 594 76 582 q 156 615 132 606 q 199 629 181 624 q 226 635 217 635 q 253 622 245 635 q 261 577 261 609 q 255 519 261 558 q 242 434 250 481 q 226 334 234 386 q 209 235 217 282 q 196 149 201 187 q 191 91 191 110 q 195 60 191 70 q 211 51 199 51 q 251 56 232 51 q 298 73 270 61 l 308 48 m 468 905 q 416 813 443 850 q 360 754 388 776 q 303 721 331 731 q 247 712 274 712 q 191 721 217 712 q 143 754 165 731 q 105 814 122 777 q 76 905 88 851 q 95 923 86 917 q 114 935 104 929 q 139 871 123 897 q 174 830 155 846 q 215 807 194 814 q 255 800 236 800 q 301 807 276 800 q 349 830 325 814 q 396 871 373 846 q 439 935 419 897 q 455 924 448 929 q 468 905 461 918 "},"8":{"x_min":22,"x_max":527,"ha":558,"o":"m 194 637 q 205 590 194 611 q 236 553 217 570 q 280 521 255 536 q 332 492 305 506 q 373 524 354 506 q 405 562 392 541 q 427 607 419 582 q 435 661 435 631 q 403 745 435 716 q 318 774 371 774 q 268 762 291 774 q 229 731 246 750 q 203 688 212 712 q 194 637 194 663 m 401 232 q 389 296 401 269 q 357 344 377 323 q 312 382 337 365 q 261 414 287 399 q 201 369 227 392 q 157 319 175 346 q 129 259 139 292 q 120 186 120 227 q 128 132 120 157 q 154 88 137 106 q 195 58 171 69 q 249 48 219 48 q 315 64 286 48 q 363 107 344 81 q 391 166 382 134 q 401 232 401 199 m 527 679 q 514 610 527 641 q 480 553 501 579 q 431 506 459 527 q 375 466 404 484 q 423 431 401 450 q 463 389 446 413 q 491 336 481 366 q 502 269 502 306 q 478 159 502 211 q 414 66 454 106 q 320 2 373 26 q 210 -21 268 -21 q 128 -5 163 -21 q 69 36 93 10 q 33 97 45 63 q 22 169 22 131 q 38 256 22 216 q 83 330 55 296 q 146 391 110 363 q 219 439 181 418 q 177 467 197 452 q 143 502 158 483 q 119 546 128 522 q 111 603 111 571 q 131 695 111 652 q 186 770 152 738 q 266 820 221 802 q 358 838 310 838 q 431 826 400 838 q 484 793 463 814 q 516 743 506 772 q 527 679 527 713 "},"Ữ":{"x_min":113.796875,"x_max":976,"ha":925,"o":"m 976 962 q 959 897 976 928 q 915 841 943 867 q 851 793 888 815 q 772 754 814 771 l 715 347 q 673 189 703 258 q 601 73 644 120 q 501 3 557 27 q 377 -21 444 -21 q 275 -4 321 -21 q 195 45 229 12 q 144 125 162 78 q 126 236 126 173 q 132 313 126 271 l 198 783 q 178 803 199 791 q 113 825 157 815 l 117 854 l 395 854 l 391 825 q 322 804 348 815 q 294 783 296 792 l 234 345 q 232 306 232 325 q 232 268 232 286 q 243 182 232 221 q 277 116 255 144 q 334 73 300 88 q 412 58 368 58 q 493 79 456 58 q 559 137 530 101 q 606 220 587 173 q 631 317 625 266 l 694 783 q 676 803 695 791 q 613 825 657 815 l 617 855 l 849 855 q 864 911 864 878 q 858 937 864 923 q 833 962 853 952 l 946 1016 q 969 991 963 1006 q 976 962 976 977 m 747 1094 q 715 1040 733 1067 q 676 991 697 1013 q 631 957 655 970 q 580 944 607 944 q 541 955 559 944 q 508 981 524 967 q 476 1006 492 994 q 443 1018 460 1018 q 394 996 419 1018 q 341 937 370 975 l 312 951 q 345 1005 327 978 q 384 1053 363 1031 q 430 1087 405 1074 q 480 1101 454 1101 q 521 1089 502 1101 q 556 1064 540 1077 q 587 1038 572 1050 q 615 1027 601 1027 q 665 1048 639 1027 q 717 1107 691 1069 l 747 1094 "},"R":{"x_min":0.375,"x_max":730.46875,"ha":730,"o":"m 730 73 q 678 40 704 56 q 630 14 652 25 q 591 -3 609 2 q 565 -10 574 -10 q 543 -6 554 -10 q 522 6 533 -3 q 500 34 512 16 q 476 79 489 51 l 323 400 q 282 403 303 400 q 245 410 262 406 l 199 70 q 218 50 196 62 q 282 29 239 38 l 278 0 l 0 0 l 4 29 q 72 49 47 38 q 100 70 98 61 l 201 808 q 148 801 174 805 q 96 791 122 796 l 96 832 q 157 848 126 840 q 222 862 188 856 q 294 871 255 868 q 379 875 333 875 q 487 861 438 875 q 570 819 535 847 q 624 751 605 792 q 642 658 642 711 q 631 593 642 632 q 592 517 619 555 q 522 448 565 480 q 415 404 478 417 l 573 124 q 597 91 586 103 q 623 77 608 79 q 661 80 638 74 q 718 99 683 86 l 730 73 m 348 817 l 324 817 q 300 817 312 817 l 251 459 q 290 451 271 454 q 329 449 310 449 q 411 460 371 449 q 480 496 450 472 q 528 554 510 519 q 546 638 546 590 q 527 722 546 688 q 479 777 508 756 q 416 807 451 798 q 348 817 381 817 "},"Ḇ":{"x_min":0.375,"x_max":634,"ha":688,"o":"m 374 817 q 335 817 353 817 q 300 817 317 817 l 256 492 l 278 492 q 370 499 325 492 q 449 526 414 507 q 503 580 483 546 q 524 669 524 615 q 509 738 524 710 q 472 784 494 767 q 423 809 450 802 q 374 817 397 817 m 351 439 q 296 436 321 439 q 248 430 271 433 l 199 70 q 206 57 197 65 q 235 46 219 51 q 267 39 250 42 q 300 37 283 37 q 330 37 316 37 q 411 55 375 37 q 473 104 447 74 q 513 174 499 135 q 528 254 528 213 q 518 321 528 288 q 487 381 508 354 q 432 423 466 407 q 351 439 399 439 m 634 279 q 608 159 634 213 q 538 65 582 104 q 435 4 494 26 q 313 -17 377 -17 q 280 -17 299 -17 q 240 -17 261 -17 q 196 -17 218 -17 q 151 -10 173 -17 q 45 0 100 -6 l 0 0 l 4 29 q 72 50 47 39 q 100 70 98 61 l 201 808 q 145 800 170 804 q 96 789 120 795 l 96 832 q 159 848 127 840 q 228 862 192 856 q 304 871 264 868 q 392 875 345 875 q 491 863 447 875 q 565 829 535 851 q 613 776 596 807 q 630 705 630 744 q 618 637 630 670 q 587 575 607 604 q 539 525 567 547 q 479 490 512 503 q 542 463 514 482 q 591 417 570 444 q 622 355 611 390 q 634 279 634 320 m 472 -159 q 466 -176 470 -167 q 456 -195 461 -186 q 446 -213 451 -205 q 438 -228 441 -222 l 66 -228 l 55 -211 q 62 -195 58 -205 q 70 -177 66 -186 q 79 -158 74 -167 q 88 -143 84 -149 l 459 -143 l 472 -159 "},"Ż":{"x_min":21.453125,"x_max":694.40625,"ha":693,"o":"m 164 68 l 493 68 q 518 74 506 68 q 543 97 531 80 q 569 142 556 114 q 601 215 583 171 l 634 205 q 625 155 630 183 q 616 100 621 128 q 606 45 611 71 q 598 0 602 19 l 33 0 l 21 30 l 556 792 l 270 792 q 247 784 260 792 q 219 760 234 777 q 190 718 205 744 q 164 653 176 691 l 129 661 l 178 872 q 207 862 194 865 q 235 856 221 858 q 262 855 248 855 q 294 855 277 855 l 682 855 l 694 823 l 164 68 m 514 1051 q 508 1013 514 1031 q 491 979 502 994 q 465 954 480 964 q 430 945 449 945 q 398 957 409 945 q 387 992 387 969 q 393 1029 387 1010 q 409 1063 399 1048 q 435 1089 420 1079 q 470 1099 451 1099 q 502 1086 491 1099 q 514 1051 514 1074 "},"ḝ":{"x_min":43,"x_max":572.75,"ha":546,"o":"m 326 -149 q 304 -215 326 -185 q 250 -262 283 -245 q 174 -279 216 -279 q 92 -254 132 -279 l 92 -228 q 154 -246 126 -246 q 201 -237 182 -246 q 230 -213 220 -229 q 240 -182 240 -198 q 224 -154 240 -164 q 176 -145 208 -145 q 192 -101 186 -120 q 204 -65 199 -82 q 212 -32 208 -48 l 213 -28 l 206 -28 q 155 -15 184 -28 q 102 24 127 -2 q 60 96 77 52 q 43 205 43 140 q 55 309 43 258 q 92 408 68 360 q 152 497 116 455 q 232 573 187 539 q 267 597 247 586 q 308 617 287 608 q 351 630 329 625 q 395 635 374 635 q 445 624 424 635 q 481 596 466 613 q 502 558 495 579 q 509 515 509 537 q 504 475 509 496 q 486 431 500 454 q 447 385 472 409 q 381 334 422 360 q 281 280 340 308 q 140 221 222 251 q 156 152 144 183 q 184 98 168 120 q 218 63 200 76 q 255 51 237 51 q 290 54 269 51 q 337 67 310 57 q 397 97 364 77 q 472 149 431 116 q 485 136 479 145 q 493 121 491 127 q 394 44 437 73 q 317 0 351 14 q 261 -21 286 -15 q 256 -43 258 -34 q 248 -78 252 -60 q 304 -97 282 -78 q 326 -149 326 -116 m 264 530 q 220 480 241 509 q 181 417 198 451 q 152 346 164 383 q 141 273 141 309 q 280 336 229 308 q 358 389 332 364 q 392 437 385 414 q 400 484 400 460 q 394 520 400 505 q 380 545 389 536 q 360 559 371 554 q 337 563 348 563 q 305 555 326 563 q 264 530 284 547 m 572 905 q 520 813 547 850 q 464 754 492 776 q 407 721 435 731 q 351 712 378 712 q 295 721 321 712 q 247 754 269 731 q 208 814 225 777 q 180 905 191 851 q 198 923 189 917 q 217 935 207 929 q 243 871 227 897 q 278 830 259 846 q 318 807 297 814 q 359 800 339 800 q 405 807 380 800 q 453 830 429 814 q 500 871 477 846 q 543 935 523 897 q 559 924 553 929 q 572 905 565 918 "},"õ":{"x_min":36,"x_max":580.515625,"ha":586,"o":"m 453 342 q 415 500 453 445 q 307 556 377 556 q 225 527 258 556 q 171 456 192 499 q 142 364 151 414 q 134 270 134 314 q 145 184 134 225 q 176 114 156 144 q 223 66 196 83 q 280 48 249 48 q 336 62 312 48 q 380 99 361 76 q 413 153 400 123 q 436 216 427 183 q 448 281 444 249 q 453 342 453 314 m 550 379 q 539 287 550 333 q 510 196 529 240 q 461 113 490 153 q 394 42 432 73 q 357 15 377 28 q 317 -7 337 2 q 276 -22 297 -17 q 234 -28 255 -28 q 150 -7 187 -28 q 87 46 113 12 q 49 129 62 81 q 36 233 36 177 q 44 327 36 282 q 70 414 52 372 q 119 495 88 456 q 194 569 149 533 q 270 616 229 597 q 354 635 311 635 q 444 616 406 635 q 504 563 481 597 q 539 482 528 529 q 550 379 550 435 m 580 899 q 548 845 566 872 q 509 796 530 818 q 464 762 488 775 q 413 749 440 749 q 374 760 392 749 q 341 786 357 772 q 309 811 325 799 q 276 823 293 823 q 228 801 252 823 q 175 742 203 780 l 146 756 q 178 810 160 783 q 217 858 196 836 q 263 892 238 879 q 313 906 287 906 q 354 894 335 906 q 389 869 373 882 q 419 843 405 855 q 448 832 434 832 q 498 853 472 832 q 550 912 524 874 l 580 899 "},"ẘ":{"x_min":3.15625,"x_max":867,"ha":875,"o":"m 867 583 q 863 541 867 565 q 851 484 860 517 q 825 406 841 451 q 783 303 809 362 q 720 170 757 244 q 632 1 683 95 q 618 -5 626 -2 q 602 -13 611 -9 q 585 -21 593 -17 q 570 -27 577 -25 l 547 -6 q 537 75 543 31 q 525 165 531 120 q 511 256 518 211 q 498 341 504 301 q 484 414 491 381 q 472 468 478 447 q 463 424 472 453 q 442 357 455 396 q 410 274 428 318 q 370 182 391 229 q 327 90 349 135 q 281 6 304 45 q 266 -1 275 3 q 248 -10 258 -5 q 230 -20 239 -15 q 214 -27 220 -25 l 192 -6 q 182 77 187 31 q 172 173 177 124 q 161 272 167 222 q 150 365 156 321 q 139 446 145 409 q 127 505 134 482 q 118 534 123 523 q 105 551 112 545 q 92 559 99 557 q 79 561 85 561 q 62 558 73 561 q 40 552 51 556 q 12 544 27 549 l 3 570 q 57 594 31 583 q 104 615 83 606 q 141 629 125 624 q 165 635 157 635 q 194 612 184 635 q 215 542 203 590 q 225 488 219 523 q 236 412 230 454 q 247 324 242 370 q 258 237 253 278 q 265 162 262 196 q 269 112 269 129 q 325 228 296 165 q 377 354 353 291 q 417 478 401 418 q 434 586 434 538 q 456 604 444 595 q 480 619 468 612 q 503 630 492 626 q 521 635 514 635 q 528 623 524 635 q 537 594 532 612 q 547 551 542 575 q 557 502 552 527 l 567 452 q 575 407 572 427 q 586 336 580 375 q 599 257 593 297 q 612 175 606 216 q 621 99 617 134 q 704 264 671 193 q 754 389 736 335 q 778 479 772 442 q 785 542 785 516 q 775 564 785 556 q 747 573 765 573 q 724 570 738 573 q 696 562 711 567 l 684 587 q 728 610 707 601 q 765 624 749 619 q 793 632 782 630 q 810 635 805 635 q 831 633 821 635 q 849 626 841 631 q 862 610 857 620 q 867 583 867 600 m 590 842 q 579 885 590 866 q 548 904 569 904 q 515 895 529 904 q 491 872 501 886 q 476 841 481 858 q 472 808 472 824 q 483 764 472 783 q 515 746 494 746 q 547 755 533 746 q 571 778 561 764 q 585 809 580 792 q 590 842 590 826 m 647 868 q 635 810 647 840 q 602 754 623 780 q 554 712 581 729 q 495 696 526 696 q 463 702 478 696 q 437 721 448 709 q 420 747 426 732 q 415 779 415 762 q 426 841 415 810 q 459 897 438 872 q 507 939 480 923 q 567 956 535 956 q 625 931 603 956 q 647 868 647 906 "},"ẫ":{"x_min":36,"x_max":660.859375,"ha":626,"o":"m 409 292 q 419 355 414 322 q 431 419 425 388 q 441 475 437 449 q 448 515 446 500 q 426 532 438 523 q 400 548 414 540 q 370 559 386 555 q 339 564 355 564 q 280 548 308 564 q 229 508 253 533 q 187 450 206 483 q 156 384 169 418 q 136 316 143 350 q 129 257 129 283 q 136 177 129 213 q 156 117 143 142 q 187 78 169 92 q 225 65 205 65 q 265 85 241 65 q 314 139 288 106 q 364 212 339 172 q 409 292 389 253 m 611 45 q 516 -10 552 7 q 460 -28 479 -28 q 436 -19 448 -28 q 416 12 425 -11 q 403 77 408 35 q 398 184 398 118 q 354 116 380 153 q 300 47 329 79 q 240 -6 271 14 q 180 -28 209 -28 q 132 -15 158 -28 q 85 25 107 -2 q 50 98 64 54 q 36 206 36 143 q 48 311 36 260 q 86 409 61 362 q 147 497 111 456 q 232 571 183 538 q 272 594 250 583 q 317 615 294 606 q 364 629 341 624 q 408 635 387 635 q 436 631 422 635 q 462 621 449 627 q 487 608 475 615 q 508 594 498 601 q 542 616 524 605 q 578 635 559 626 l 591 611 q 572 594 580 601 q 559 577 565 586 q 549 552 553 567 q 540 515 545 538 q 521 415 530 466 q 505 318 512 364 q 495 238 499 273 q 492 188 492 203 q 494 123 492 150 q 500 81 496 97 q 510 58 504 65 q 525 51 517 51 q 557 54 538 51 q 603 70 576 58 l 611 45 m 570 726 q 556 706 561 712 q 540 696 551 700 l 399 875 l 213 696 q 203 706 207 700 q 191 726 198 712 l 384 978 l 446 978 l 570 726 m 660 1231 q 628 1177 646 1204 q 589 1128 610 1150 q 544 1094 568 1107 q 494 1081 520 1081 q 455 1092 472 1081 q 422 1118 437 1104 q 390 1143 406 1131 q 356 1155 374 1155 q 308 1133 332 1155 q 255 1074 283 1112 l 226 1088 q 258 1142 240 1115 q 297 1190 276 1168 q 343 1224 319 1211 q 393 1238 367 1238 q 434 1226 416 1238 q 469 1201 453 1214 q 500 1175 485 1187 q 528 1164 514 1164 q 578 1185 552 1164 q 630 1244 604 1206 l 660 1231 "},"Ṡ":{"x_min":32,"x_max":593.015625,"ha":610,"o":"m 591 812 q 591 803 594 810 q 583 786 588 795 q 568 766 577 776 q 551 745 560 755 q 534 728 542 735 q 522 717 527 720 l 502 721 q 476 752 491 738 q 445 778 462 767 q 410 797 428 790 q 371 804 391 804 q 306 792 334 804 q 258 761 277 780 q 229 719 239 742 q 219 674 219 696 q 223 643 219 659 q 243 609 228 627 q 285 571 258 591 q 358 528 313 551 q 449 475 412 500 q 509 423 486 450 q 542 366 532 397 q 553 298 553 336 q 526 176 553 234 q 454 75 500 119 q 349 5 409 31 q 222 -21 289 -21 q 163 -12 196 -21 q 101 10 131 -3 q 52 42 72 25 q 32 77 32 60 q 40 101 32 86 q 59 133 48 117 q 83 160 70 148 q 104 172 95 172 q 124 155 112 172 q 154 118 135 138 q 200 81 173 98 q 268 65 228 65 q 345 78 309 65 q 407 116 380 92 q 448 173 433 140 q 464 243 464 205 q 455 295 464 271 q 427 342 447 319 q 373 387 407 365 q 288 434 339 410 q 214 479 243 455 q 168 528 184 503 q 144 579 151 553 q 138 629 138 604 q 158 718 138 674 q 216 796 179 762 q 307 853 254 831 q 426 875 361 875 q 517 856 475 875 q 591 812 559 837 m 470 1050 q 464 1013 470 1031 q 447 979 458 994 q 421 954 436 964 q 386 945 405 945 q 354 957 365 945 q 343 992 343 969 q 349 1029 343 1010 q 365 1063 355 1048 q 391 1089 376 1079 q 426 1099 407 1099 q 458 1086 447 1099 q 470 1050 470 1073 "},"ǝ":{"x_min":43,"x_max":509,"ha":546,"o":"m 300 76 q 344 128 324 97 q 380 195 365 158 q 403 272 395 232 q 412 353 412 313 q 271 285 322 317 q 192 225 219 254 q 159 171 166 197 q 152 122 152 145 q 157 85 152 100 q 171 61 162 70 q 190 47 179 51 q 214 43 202 43 q 255 51 231 43 q 300 76 279 59 m 509 401 q 499 297 509 348 q 468 198 489 246 q 414 109 447 151 q 334 33 380 67 q 297 10 317 20 q 254 -9 277 0 q 207 -22 232 -17 q 156 -28 182 -28 q 106 -17 127 -28 q 70 9 85 -6 q 49 48 56 26 q 43 91 43 69 q 47 132 43 110 q 65 178 51 154 q 103 230 78 203 q 169 284 128 256 q 269 342 209 313 q 409 402 328 372 q 392 463 403 435 q 364 512 380 492 q 331 543 349 532 q 296 555 313 555 q 261 551 281 555 q 214 538 241 548 q 154 508 188 528 q 79 456 121 489 q 66 470 72 460 q 58 484 60 479 q 157 562 114 532 q 233 608 199 592 q 293 629 266 624 q 344 635 320 635 q 395 622 367 635 q 449 582 424 609 q 491 510 474 554 q 509 401 509 465 "},"˙":{"x_min":111,"x_max":238,"ha":228,"o":"m 238 855 q 232 818 238 836 q 215 784 226 799 q 189 759 204 769 q 154 750 173 750 q 122 762 133 750 q 111 797 111 774 q 117 834 111 815 q 133 868 123 853 q 159 894 144 884 q 194 904 175 904 q 226 891 215 904 q 238 855 238 878 "},"ê":{"x_min":43,"x_max":543.59375,"ha":546,"o":"m 264 530 q 220 481 241 510 q 181 417 198 451 q 152 346 164 383 q 141 273 141 309 q 280 336 229 308 q 358 390 332 364 q 392 438 385 415 q 400 485 400 461 q 394 521 400 506 q 380 545 389 536 q 360 559 371 555 q 337 564 348 564 q 305 556 326 564 q 264 530 284 548 m 509 515 q 504 475 509 496 q 486 432 500 454 q 447 385 472 409 q 381 334 422 360 q 281 280 340 308 q 140 221 222 252 q 156 152 144 183 q 184 98 168 120 q 218 63 200 76 q 255 51 237 51 q 290 54 269 51 q 337 67 310 57 q 397 97 364 77 q 472 149 431 116 q 485 136 479 145 q 493 121 491 127 q 394 44 437 73 q 318 -1 352 14 q 258 -22 285 -17 q 207 -28 231 -28 q 156 -15 184 -28 q 102 24 127 -2 q 60 96 77 52 q 43 205 43 140 q 55 309 43 258 q 92 408 68 360 q 152 497 116 455 q 232 573 187 539 q 267 597 247 586 q 308 617 287 608 q 351 630 329 625 q 395 635 374 635 q 445 624 424 635 q 481 596 466 613 q 502 558 495 580 q 509 515 509 537 m 543 726 q 529 706 534 712 q 513 696 523 700 l 371 875 l 186 696 q 175 706 180 700 q 164 726 170 712 l 356 978 l 419 978 l 543 726 "},"„":{"x_min":8.296875,"x_max":459,"ha":566,"o":"m 193 76 q 177 5 193 40 q 139 -62 162 -30 q 87 -123 115 -95 q 32 -170 58 -151 l 8 -147 q 34 -117 20 -134 q 60 -79 48 -99 q 80 -38 72 -59 q 89 0 89 -18 q 71 41 89 25 q 18 57 53 57 l 12 87 q 38 106 19 95 q 79 126 57 116 q 122 142 101 136 q 153 149 143 149 q 182 119 171 136 q 193 76 193 102 m 459 76 q 443 5 459 40 q 404 -62 428 -30 q 353 -123 381 -95 q 298 -170 324 -151 l 273 -147 q 300 -117 286 -134 q 326 -79 314 -99 q 346 -38 338 -59 q 354 0 354 -18 q 336 41 354 25 q 284 57 318 57 l 279 87 q 305 106 286 95 q 346 126 324 116 q 389 142 368 136 q 421 149 410 149 q 449 119 439 136 q 459 76 459 102 "},"Â":{"x_min":-23.734375,"x_max":726.3125,"ha":778,"o":"m 251 301 l 154 75 q 165 45 145 54 q 237 29 185 36 l 233 0 l -23 0 l -19 29 q 48 46 23 37 q 83 75 74 56 l 413 833 q 434 850 422 841 q 459 866 446 858 q 484 881 472 874 q 505 893 496 888 l 651 75 q 656 59 653 66 q 668 46 660 51 q 690 36 676 40 q 726 29 704 32 l 723 0 l 462 0 l 465 31 q 534 42 513 31 q 551 75 555 54 l 512 301 l 251 301 m 501 363 l 437 732 l 278 363 l 501 363 m 667 943 q 652 924 657 930 q 636 913 647 917 l 491 1052 l 310 913 q 299 923 304 917 q 288 943 295 930 l 474 1147 l 537 1147 l 667 943 "},"´":{"x_min":116.640625,"x_max":387.90625,"ha":411,"o":"m 387 932 l 147 696 q 131 703 136 698 q 116 719 126 708 l 301 989 q 318 984 307 987 q 340 977 328 981 q 362 970 351 974 q 377 962 372 966 l 387 932 "},"Ɛ":{"x_min":36,"x_max":641.125,"ha":636,"o":"m 641 804 q 607 758 628 781 q 567 715 586 735 l 542 720 q 509 752 525 739 q 473 775 492 766 q 433 789 455 784 q 384 794 411 794 q 314 781 347 794 q 255 747 281 769 q 215 694 230 725 q 201 628 201 664 q 212 576 201 602 q 250 528 224 550 q 320 492 276 507 q 426 478 363 478 l 418 428 q 329 416 378 428 q 238 379 280 404 q 166 316 195 355 q 138 225 138 278 q 150 156 138 185 q 184 107 162 127 q 236 77 206 87 q 302 68 266 68 q 356 71 332 68 q 406 87 380 75 q 466 119 433 98 q 548 175 499 140 l 569 144 q 475 60 516 93 q 397 10 435 28 q 322 -14 360 -8 q 237 -21 284 -21 q 147 -3 185 -21 q 85 43 109 14 q 48 108 60 72 q 36 183 36 145 q 53 269 36 228 q 98 343 70 309 q 160 403 125 377 q 228 444 194 429 q 184 469 205 455 q 147 502 163 484 q 123 544 132 521 q 114 594 114 567 q 148 720 114 667 q 244 815 183 773 q 336 859 288 844 q 434 875 385 875 q 554 857 500 875 q 641 804 607 840 "},"ỏ":{"x_min":36,"x_max":550,"ha":586,"o":"m 453 342 q 415 500 453 445 q 307 556 377 556 q 225 527 258 556 q 171 456 192 499 q 142 364 151 414 q 134 270 134 314 q 145 184 134 225 q 176 114 156 144 q 223 66 196 83 q 280 48 249 48 q 336 62 312 48 q 380 99 361 76 q 413 153 400 123 q 436 216 427 183 q 448 281 444 249 q 453 342 453 314 m 550 379 q 539 287 550 333 q 510 196 529 240 q 461 113 490 153 q 394 42 432 73 q 357 15 377 28 q 317 -7 337 2 q 276 -22 297 -17 q 234 -28 255 -28 q 150 -7 187 -28 q 87 46 113 12 q 49 129 62 81 q 36 233 36 177 q 44 327 36 282 q 70 414 52 372 q 119 495 88 456 q 194 569 149 533 q 270 616 229 597 q 354 635 311 635 q 444 616 406 635 q 504 563 481 597 q 539 482 528 529 q 550 379 550 435 m 474 904 q 456 855 474 876 q 416 818 438 834 q 377 787 395 801 q 360 755 360 772 q 366 738 360 748 q 388 718 372 728 q 369 710 378 712 q 349 708 360 709 q 312 736 323 723 q 302 761 302 749 q 310 781 302 771 q 331 799 318 790 q 358 816 343 807 q 386 837 373 826 q 407 863 398 849 q 416 895 416 876 q 407 927 416 914 q 377 940 398 940 q 354 935 365 940 q 335 922 343 930 q 324 905 328 914 q 324 886 321 895 q 312 882 320 884 q 295 877 304 879 q 278 873 287 874 q 264 870 270 871 l 257 878 q 272 916 257 898 q 307 945 286 933 q 352 965 328 958 q 396 972 376 972 q 454 952 435 972 q 474 904 474 932 "},"ʃ":{"x_min":-241,"x_max":586.703125,"ha":326,"o":"m 586 951 q 556 929 572 941 q 524 908 539 918 q 496 892 509 898 q 474 886 482 886 q 457 897 466 886 q 439 923 449 909 q 416 949 429 937 q 383 961 402 961 q 336 948 360 961 q 290 910 312 936 q 250 845 269 885 q 221 752 232 806 q 211 641 211 700 q 211 521 211 583 q 211 395 211 459 q 211 269 211 331 q 211 148 211 207 q 205 37 211 89 q 165 -115 196 -46 q 92 -234 135 -184 q -1 -311 49 -284 q -99 -339 -51 -339 q -148 -330 -123 -339 q -194 -309 -173 -322 q -227 -283 -214 -297 q -241 -256 -241 -268 q -232 -233 -241 -247 q -211 -206 -223 -219 q -189 -182 -200 -192 q -173 -173 -177 -173 q -162 -180 -168 -173 q -151 -197 -157 -187 q -135 -220 -144 -208 q -115 -243 -126 -232 q -88 -260 -103 -253 q -54 -268 -73 -268 q -1 -249 -26 -268 q 44 -194 24 -230 q 78 -108 64 -159 q 99 4 93 -58 q 110 197 110 103 q 110 380 110 291 q 110 554 110 470 q 124 718 110 638 q 148 801 132 763 q 184 870 163 839 q 229 925 205 901 q 277 968 253 949 q 354 1012 313 994 q 437 1031 395 1031 q 490 1019 467 1031 q 531 994 513 1008 q 562 967 549 980 q 586 951 576 954 "},"Ĉ":{"x_min":52,"x_max":689.796875,"ha":675,"o":"m 689 807 q 684 792 691 803 q 665 766 676 780 q 639 738 653 752 q 617 717 626 724 l 597 722 q 530 772 569 752 q 434 793 490 793 q 373 780 407 793 q 312 746 339 767 q 239 662 269 712 q 190 557 209 612 q 162 447 171 501 q 154 349 154 392 q 174 222 154 276 q 225 133 194 168 q 294 81 257 98 q 368 65 332 65 q 459 89 406 65 q 588 173 512 113 q 594 167 592 172 q 600 158 597 163 q 604 149 602 153 q 608 143 607 145 q 521 65 562 97 q 445 16 481 34 q 375 -10 408 -2 q 310 -18 342 -18 q 212 4 259 -18 q 130 68 165 26 q 73 171 94 110 q 52 311 52 232 q 64 441 52 375 q 103 570 77 507 q 171 689 129 632 q 269 791 212 746 q 376 852 319 830 q 497 875 433 875 q 611 855 564 875 q 689 807 659 835 m 660 943 q 646 923 651 929 q 630 913 640 917 l 484 1052 l 303 913 q 293 923 297 917 q 281 943 288 929 l 468 1147 l 530 1147 l 660 943 "},"Ɋ":{"x_min":61,"x_max":828.296875,"ha":778,"o":"m 627 731 q 560 772 599 753 q 472 791 521 791 q 390 770 430 791 q 316 714 351 749 q 254 634 282 680 q 205 537 226 587 q 174 434 185 486 q 163 334 163 381 q 177 213 163 262 q 213 133 191 164 q 261 89 234 103 q 313 76 288 76 q 364 101 331 76 q 433 170 396 126 q 507 271 470 213 q 573 395 544 329 q 586 477 579 433 q 600 565 593 521 q 614 652 607 609 q 627 731 622 695 m 719 710 q 709 651 716 691 q 694 559 702 612 q 675 444 685 507 q 655 316 665 382 q 636 184 645 250 q 620 58 627 118 q 614 -51 614 0 q 614 -135 614 -101 q 625 -228 614 -195 q 666 -262 636 -262 q 706 -243 690 -262 q 722 -192 722 -225 q 719 -176 722 -187 q 711 -154 717 -164 q 731 -143 719 -149 q 757 -130 743 -136 q 786 -117 771 -123 q 816 -106 801 -111 l 828 -130 q 811 -193 828 -163 q 768 -251 794 -223 q 739 -276 758 -261 q 698 -305 721 -292 q 647 -329 674 -319 q 592 -339 619 -339 q 534 -295 554 -339 q 514 -153 514 -251 q 514 -65 514 -110 q 521 27 514 -20 q 536 129 528 76 q 552 244 543 183 q 479 141 518 189 q 402 57 441 93 q 327 0 363 21 q 261 -21 291 -21 q 189 0 225 -21 q 124 62 153 22 q 78 158 96 101 q 61 285 61 215 q 79 430 61 359 q 130 567 97 502 q 212 688 164 632 q 322 787 261 744 q 376 820 346 804 q 438 848 406 836 q 501 867 469 860 q 559 875 532 875 q 597 869 578 875 q 634 855 616 864 q 667 837 651 847 q 698 817 684 826 q 736 844 717 833 q 778 868 754 856 l 799 836 q 747 777 769 810 q 719 710 725 744 "},"Ờ":{"x_min":61,"x_max":847,"ha":796,"o":"m 635 512 q 622 620 635 569 q 586 708 610 670 q 528 767 563 745 q 449 790 493 790 q 356 770 397 790 q 283 716 315 750 q 229 639 251 683 q 192 547 206 595 q 170 452 177 500 q 164 360 164 403 q 177 243 164 297 q 214 151 190 190 q 273 90 239 112 q 349 68 307 68 q 443 89 402 68 q 517 144 485 110 q 571 225 548 179 q 607 320 593 271 q 628 420 622 370 q 635 512 635 470 m 847 961 q 833 903 847 931 q 797 852 820 876 q 742 806 774 828 q 675 768 711 785 q 720 658 705 720 q 736 524 736 595 q 728 427 736 476 q 704 329 720 377 q 665 236 688 281 q 611 152 641 191 q 550 84 582 115 q 481 29 518 52 q 405 -7 445 6 q 319 -21 364 -21 q 205 6 254 -21 q 125 82 157 34 q 76 194 92 130 q 61 328 61 257 q 68 419 61 371 q 91 515 76 467 q 126 608 105 563 q 174 690 147 653 q 236 762 203 728 q 306 820 269 795 q 387 860 344 845 q 478 875 430 875 q 576 855 533 875 q 650 800 619 835 q 713 845 692 819 q 734 910 734 872 q 728 937 734 923 q 703 961 723 951 l 817 1016 q 840 991 834 1005 q 847 961 847 976 m 577 944 q 562 925 567 931 q 545 913 556 919 l 273 1078 l 281 1110 q 298 1121 287 1115 q 321 1135 309 1128 q 345 1148 333 1142 q 364 1158 356 1154 l 577 944 "},"Ω":{"x_min":15.109375,"x_max":756.1875,"ha":808,"o":"m 32 0 l 15 18 q 22 55 17 34 q 32 99 26 76 q 44 145 37 122 q 58 190 51 168 l 87 190 q 94 103 87 132 q 127 75 101 75 l 263 75 q 169 185 205 132 q 114 291 132 239 q 96 394 96 343 q 103 501 96 446 q 126 590 109 545 q 167 677 142 635 q 227 754 193 718 q 302 817 261 790 q 392 859 344 844 q 495 875 441 875 q 615 849 562 875 q 701 778 668 824 q 749 665 735 731 q 750 516 762 599 q 719 402 742 456 q 661 294 697 347 q 573 188 624 241 q 455 75 522 134 l 596 75 q 618 81 609 75 q 636 101 627 87 q 655 138 645 115 q 681 193 666 160 l 708 180 q 698 136 704 160 q 686 88 692 112 q 674 40 680 63 q 662 0 668 17 l 392 0 l 402 75 q 479 167 445 126 q 538 242 512 207 q 582 307 564 277 q 614 367 601 337 q 636 430 628 398 q 650 501 645 462 q 652 619 659 562 q 623 718 646 675 q 562 788 601 762 q 467 814 523 814 q 390 798 425 814 q 326 757 355 782 q 274 699 297 731 q 236 632 252 666 q 210 566 220 598 q 197 508 200 533 q 192 434 192 467 q 194 370 192 401 q 205 308 197 338 q 230 242 214 277 q 269 167 246 208 q 326 75 293 126 l 316 0 l 32 0 "},"ȧ":{"x_min":36,"x_max":611.359375,"ha":626,"o":"m 409 292 q 419 355 414 322 q 431 419 425 388 q 441 475 436 449 q 448 515 445 500 q 425 532 438 523 q 399 548 413 540 q 370 559 385 555 q 339 564 355 564 q 280 548 307 564 q 229 508 253 533 q 187 450 206 483 q 156 384 168 418 q 136 316 143 350 q 129 257 129 283 q 136 177 129 213 q 156 117 143 142 q 187 78 169 92 q 225 65 205 65 q 265 85 241 65 q 313 139 288 106 q 364 212 339 172 q 409 292 389 253 m 611 45 q 516 -10 552 7 q 460 -28 479 -28 q 436 -19 448 -28 q 416 12 425 -11 q 403 77 408 35 q 398 184 398 118 q 354 116 380 153 q 300 47 329 79 q 240 -6 270 14 q 180 -28 209 -28 q 132 -15 158 -28 q 85 25 107 -2 q 50 98 64 54 q 36 206 36 143 q 48 311 36 260 q 86 409 61 362 q 147 497 111 456 q 232 571 183 538 q 272 594 250 583 q 317 615 294 606 q 364 629 341 624 q 408 635 387 635 q 436 631 422 635 q 462 621 449 627 q 487 608 475 615 q 508 594 498 601 q 542 616 524 605 q 578 635 559 626 l 591 611 q 572 594 580 601 q 559 577 565 586 q 549 552 553 567 q 540 515 545 538 q 521 415 530 466 q 505 318 512 364 q 495 238 499 273 q 492 188 492 203 q 494 123 492 150 q 500 81 496 97 q 510 58 504 65 q 525 51 517 51 q 557 54 538 51 q 603 70 576 58 l 611 45 m 457 855 q 451 818 457 836 q 434 784 445 799 q 408 759 423 769 q 373 750 392 750 q 341 762 352 750 q 330 797 330 774 q 336 834 330 815 q 352 868 342 853 q 378 894 363 884 q 413 904 394 904 q 445 891 434 904 q 457 855 457 878 "},"Ö":{"x_min":61,"x_max":736,"ha":757,"o":"m 635 512 q 622 620 635 569 q 586 708 610 670 q 528 767 563 745 q 449 790 493 790 q 356 770 397 790 q 283 716 315 750 q 229 639 251 683 q 192 547 206 595 q 170 452 177 500 q 164 360 164 403 q 177 243 164 297 q 214 151 190 190 q 273 90 239 112 q 349 68 307 68 q 443 89 402 68 q 517 144 485 110 q 571 225 548 179 q 607 320 593 271 q 628 420 622 370 q 635 512 635 470 m 736 525 q 728 427 736 476 q 704 329 720 377 q 665 236 688 281 q 611 152 641 191 q 550 84 582 116 q 481 29 518 52 q 405 -7 445 6 q 319 -21 364 -21 q 205 6 254 -21 q 125 82 157 34 q 76 194 92 130 q 61 328 61 257 q 68 419 61 371 q 91 515 76 467 q 126 608 105 563 q 174 690 147 653 q 236 762 203 728 q 306 820 269 795 q 387 860 344 845 q 478 875 430 875 q 593 847 544 875 q 673 771 642 819 q 720 659 705 723 q 736 525 736 596 m 431 1050 q 424 1013 431 1031 q 407 979 418 994 q 381 954 397 963 q 346 945 365 945 q 312 957 324 945 q 300 992 300 969 q 306 1029 300 1010 q 324 1063 312 1048 q 351 1089 335 1079 q 386 1098 367 1098 q 419 1086 407 1098 q 431 1050 431 1073 m 684 1050 q 677 1013 684 1031 q 660 979 671 994 q 633 954 649 964 q 597 945 617 945 q 564 957 576 945 q 553 992 553 969 q 559 1029 553 1010 q 576 1063 565 1048 q 602 1089 586 1079 q 637 1099 618 1099 q 671 1086 658 1099 q 684 1050 684 1073 "},"ḏ":{"x_min":28.546875,"x_max":626.453125,"ha":657,"o":"m 421 287 q 435 380 427 328 q 453 489 444 432 q 428 515 442 502 q 400 539 415 528 q 368 557 384 550 q 332 564 351 564 q 273 548 300 564 q 224 508 247 533 q 184 450 201 483 q 154 384 166 418 q 135 316 141 349 q 129 256 129 283 q 138 177 129 212 q 162 116 147 142 q 196 78 177 91 q 234 64 215 64 q 275 81 253 64 q 322 128 298 98 q 371 199 346 159 q 421 287 397 240 m 626 46 q 532 -10 569 7 q 472 -28 495 -28 q 448 -17 459 -28 q 430 18 438 -7 q 417 85 422 43 q 413 190 413 127 q 363 108 389 147 q 307 38 336 68 q 247 -10 277 7 q 187 -28 216 -28 q 137 -14 164 -28 q 88 29 111 0 q 50 104 65 58 q 36 213 36 150 q 47 317 36 267 q 82 414 59 368 q 141 499 105 459 q 225 571 177 539 q 266 594 244 583 q 311 614 288 605 q 357 629 334 624 q 401 635 380 635 q 436 624 418 635 q 471 599 454 613 q 486 695 479 648 q 499 784 493 743 q 507 858 504 825 q 511 912 511 891 q 508 937 511 928 q 501 950 506 946 q 492 956 497 955 q 480 958 486 958 q 463 954 474 958 q 439 948 451 951 q 408 939 425 944 l 400 966 q 457 990 429 979 q 511 1011 486 1002 q 554 1025 535 1020 q 581 1031 573 1031 q 609 1018 600 1031 q 619 975 619 1006 q 614 906 619 948 q 601 812 609 864 q 584 701 593 760 q 563 582 574 642 q 543 464 553 522 q 525 355 533 405 q 513 265 517 305 q 509 202 509 225 q 516 88 509 124 q 539 53 523 53 q 575 56 556 53 q 617 70 593 60 l 626 46 m 446 -159 q 439 -176 444 -167 q 430 -195 435 -186 q 420 -213 425 -205 q 412 -228 415 -222 l 39 -228 l 28 -211 q 35 -195 31 -205 q 43 -177 39 -186 q 52 -158 48 -167 q 61 -143 57 -149 l 433 -143 l 446 -159 "},"z":{"x_min":-2.71875,"x_max":526.265625,"ha":526,"o":"m 526 599 q 425 480 470 539 q 338 359 381 420 q 252 233 296 298 q 155 101 208 169 q 173 107 157 102 q 210 112 189 112 q 247 105 224 112 q 297 91 269 99 q 352 76 324 82 q 405 70 380 70 q 420 71 411 70 q 439 80 429 73 q 461 103 449 88 q 487 143 474 118 l 511 130 q 478 60 492 88 q 447 16 463 32 q 408 -7 430 0 q 354 -14 387 -14 q 290 -6 320 -14 q 234 8 261 0 q 184 23 208 16 q 139 31 160 31 q 116 27 128 31 q 90 17 105 24 q 56 1 75 10 q 12 -21 37 -8 l -2 0 q 67 90 31 41 q 140 191 103 139 q 212 295 177 243 q 280 394 248 347 q 339 478 311 440 q 385 539 366 515 l 181 539 q 154 535 165 539 q 133 523 143 532 q 116 497 124 514 q 98 451 108 479 l 71 456 q 97 561 84 517 q 115 634 109 605 q 143 625 128 630 q 181 620 158 620 l 512 620 l 526 599 "},"Ḅ":{"x_min":0.375,"x_max":634,"ha":688,"o":"m 374 817 q 335 817 353 817 q 300 817 316 817 l 256 492 l 278 492 q 370 499 325 492 q 449 526 414 507 q 503 580 483 546 q 524 669 524 615 q 509 738 524 710 q 472 784 494 767 q 423 809 450 802 q 374 817 397 817 m 351 439 q 296 436 321 439 q 248 430 271 433 l 199 70 q 206 57 197 65 q 235 46 219 51 q 267 39 250 42 q 300 37 284 37 q 330 37 316 37 q 411 55 375 37 q 473 104 448 74 q 513 174 499 135 q 528 254 528 213 q 518 321 528 288 q 487 381 508 354 q 432 423 466 407 q 351 439 399 439 m 634 279 q 608 159 634 213 q 538 65 582 104 q 435 4 494 26 q 313 -17 377 -17 q 280 -17 299 -17 q 240 -17 261 -17 q 196 -17 218 -17 q 151 -10 173 -17 q 45 0 100 -6 l 0 0 l 4 29 q 72 50 47 39 q 100 70 98 61 l 201 808 q 145 800 170 804 q 96 789 120 795 l 96 832 q 159 848 127 840 q 228 862 192 856 q 304 871 264 868 q 392 875 345 875 q 491 863 447 875 q 565 829 535 851 q 613 776 596 807 q 630 705 630 744 q 618 637 630 670 q 587 575 607 604 q 539 525 567 547 q 479 490 512 503 q 542 463 514 482 q 591 417 570 444 q 622 355 611 390 q 634 279 634 320 m 325 -173 q 319 -210 325 -192 q 302 -244 313 -229 q 276 -269 291 -260 q 241 -279 260 -279 q 209 -266 220 -279 q 198 -231 198 -254 q 204 -194 198 -213 q 220 -160 210 -175 q 246 -134 231 -144 q 281 -125 262 -125 q 313 -137 302 -125 q 325 -173 325 -150 "},"™":{"x_min":117,"x_max":749.109375,"ha":786,"o":"m 379 847 q 376 832 378 841 q 372 814 374 823 q 368 796 370 804 q 364 782 366 788 l 352 782 q 349 814 352 803 q 336 826 347 826 l 271 826 l 238 580 q 244 573 237 578 q 272 563 250 568 l 269 546 l 154 546 l 157 563 q 186 572 178 568 q 195 580 195 576 l 228 826 l 161 826 q 154 824 157 826 q 147 818 151 822 q 139 805 144 813 q 126 782 133 796 l 117 786 q 120 801 117 792 q 124 820 122 810 q 130 840 127 830 q 135 854 133 849 l 373 854 l 379 847 m 746 837 q 717 831 733 837 l 684 578 q 690 571 684 575 q 713 563 696 566 l 710 546 l 604 546 l 606 563 q 632 571 623 566 q 642 578 642 575 l 668 788 l 538 547 l 519 547 l 452 784 l 422 578 q 428 571 421 575 q 452 563 435 566 l 449 547 l 352 547 l 355 563 q 380 571 372 566 q 389 578 389 575 l 426 830 q 411 835 419 834 q 396 837 403 837 l 399 854 l 468 854 q 475 850 473 854 q 481 834 477 846 l 543 620 l 660 834 q 669 851 667 849 q 676 854 672 854 l 749 854 l 746 837 "},"ặ":{"x_min":36,"x_max":611.359375,"ha":626,"o":"m 409 292 q 419 355 414 322 q 431 419 425 388 q 441 475 437 449 q 448 515 446 500 q 426 532 438 523 q 400 548 414 540 q 370 559 386 555 q 339 564 355 564 q 280 548 308 564 q 229 508 253 533 q 187 450 206 483 q 156 384 169 418 q 136 316 143 350 q 129 257 129 283 q 136 177 129 213 q 156 117 143 142 q 187 78 169 92 q 225 65 205 65 q 265 85 241 65 q 314 139 288 106 q 364 212 339 172 q 409 292 389 253 m 611 45 q 516 -10 552 7 q 460 -28 479 -28 q 436 -19 448 -28 q 416 12 425 -11 q 403 77 408 35 q 398 184 398 118 q 354 116 380 153 q 300 47 329 79 q 240 -6 270 14 q 180 -28 209 -28 q 132 -15 158 -28 q 85 25 107 -2 q 50 98 64 54 q 36 206 36 143 q 48 311 36 260 q 86 409 61 362 q 147 497 111 456 q 232 571 183 538 q 272 594 250 583 q 317 615 294 606 q 364 629 341 624 q 408 635 387 635 q 436 631 422 635 q 462 621 449 627 q 487 608 475 615 q 508 594 498 601 q 542 616 524 605 q 578 635 559 626 l 591 611 q 572 594 580 601 q 559 577 565 586 q 549 552 553 567 q 540 515 545 538 q 521 415 530 466 q 505 318 512 364 q 495 238 499 273 q 492 188 492 203 q 494 123 492 150 q 500 81 496 97 q 510 58 504 65 q 525 51 517 51 q 557 54 538 51 q 603 70 576 58 l 611 45 m 316 -173 q 310 -210 316 -192 q 293 -244 304 -229 q 267 -269 282 -260 q 232 -279 251 -279 q 200 -266 211 -279 q 189 -231 189 -254 q 195 -194 189 -213 q 211 -160 201 -175 q 237 -134 222 -144 q 272 -125 253 -125 q 304 -137 293 -125 q 316 -173 316 -150 m 599 905 q 547 813 574 850 q 491 754 519 776 q 434 721 462 731 q 378 712 405 712 q 322 721 348 712 q 275 754 296 731 q 236 814 253 777 q 207 905 219 851 q 226 923 217 917 q 245 935 234 929 q 270 871 254 897 q 305 830 286 846 q 346 807 325 814 q 386 800 367 800 q 432 807 407 800 q 480 830 456 814 q 527 871 504 846 q 570 935 551 897 q 586 924 580 929 q 599 905 593 918 "},"Ř":{"x_min":0.375,"x_max":730.46875,"ha":730,"o":"m 730 73 q 678 40 704 56 q 630 14 652 25 q 591 -3 609 2 q 565 -10 574 -10 q 543 -6 554 -10 q 522 6 533 -3 q 500 34 512 16 q 476 79 489 51 l 323 400 q 282 403 303 400 q 245 410 262 406 l 199 70 q 218 50 196 62 q 282 29 239 38 l 278 0 l 0 0 l 4 29 q 72 49 47 38 q 100 70 98 61 l 201 808 q 148 801 174 805 q 96 791 122 796 l 96 832 q 157 848 126 840 q 222 862 188 856 q 294 871 255 868 q 379 875 333 875 q 487 861 438 875 q 570 819 535 847 q 624 751 605 792 q 642 658 642 711 q 631 593 642 632 q 592 517 619 555 q 522 448 565 480 q 415 404 478 417 l 573 124 q 597 91 586 103 q 623 77 608 79 q 661 80 638 74 q 718 99 683 86 l 730 73 m 348 817 l 324 817 q 300 817 312 817 l 251 459 q 290 451 271 454 q 329 449 310 449 q 411 460 371 449 q 480 496 450 472 q 528 554 510 519 q 546 638 546 590 q 527 722 546 688 q 479 777 508 756 q 416 807 451 798 q 348 817 381 817 m 455 929 l 392 929 l 262 1133 q 276 1150 271 1146 q 292 1163 282 1155 l 438 1025 l 619 1163 q 631 1151 627 1156 q 640 1133 634 1146 l 455 929 "},"Ň":{"x_min":0,"x_max":877.546875,"ha":840,"o":"m 873 825 q 806 806 828 818 q 781 783 783 794 l 670 -21 q 644 -16 656 -19 q 623 -8 633 -13 q 606 6 614 -2 q 590 30 598 15 l 252 681 l 169 70 q 186 49 167 62 q 251 29 205 36 l 247 0 l 0 0 l 4 29 q 72 48 50 35 q 96 70 95 61 l 195 782 q 157 811 178 803 q 107 825 136 820 l 111 854 l 231 854 q 255 854 246 854 q 270 848 263 854 q 282 832 276 843 q 298 801 288 821 l 626 175 l 710 783 q 706 793 710 787 q 692 804 702 799 q 666 816 682 810 q 626 825 650 821 l 630 855 l 877 855 l 873 825 m 535 929 l 473 929 l 342 1133 q 357 1150 351 1146 q 373 1163 362 1155 l 518 1025 l 699 1163 q 711 1151 708 1156 q 721 1133 715 1146 l 535 929 "},"ừ":{"x_min":26.390625,"x_max":802,"ha":751,"o":"m 802 704 q 784 638 802 668 q 738 580 767 607 q 669 531 708 553 q 585 491 630 508 q 571 406 579 451 q 556 316 564 360 q 544 234 549 273 q 539 171 539 196 q 547 80 539 110 q 573 51 556 51 q 609 55 591 51 q 651 70 627 60 l 661 45 q 568 -9 606 9 q 505 -28 530 -28 q 480 -16 492 -28 q 458 22 467 -4 q 445 93 449 50 q 442 201 442 137 q 386 109 416 151 q 322 36 355 66 q 253 -11 288 5 q 181 -28 218 -28 q 150 -17 168 -28 q 118 14 133 -6 q 92 66 103 35 q 82 138 82 97 q 85 190 82 159 q 94 257 89 221 q 107 332 100 293 q 119 406 113 370 q 128 470 124 441 q 132 515 132 499 q 129 540 132 531 q 124 553 127 549 q 115 559 120 558 q 104 561 110 561 q 86 558 98 561 q 63 552 75 556 q 34 544 50 549 l 26 569 q 83 594 54 582 q 136 615 112 606 q 179 629 161 624 q 206 635 198 635 q 233 622 226 635 q 240 577 240 609 q 235 526 240 558 q 225 456 231 494 q 213 377 219 418 q 200 299 206 337 q 190 229 194 261 q 186 177 186 197 q 199 83 186 112 q 238 54 213 54 q 274 67 252 54 q 325 109 297 80 q 387 187 354 139 q 457 303 421 234 q 467 361 461 332 q 477 418 472 391 q 484 471 481 446 q 488 515 488 495 q 486 540 488 531 q 481 553 484 549 q 473 559 477 558 q 462 561 468 561 q 445 558 456 561 q 424 552 435 556 q 398 544 412 549 l 388 569 q 444 594 416 582 q 495 615 472 606 q 536 629 518 624 q 562 635 554 635 q 587 622 581 635 q 594 577 594 609 q 594 559 594 569 q 591 537 594 549 q 665 584 641 556 q 690 653 690 612 q 684 679 690 665 q 659 704 679 693 l 772 758 q 795 733 789 748 q 802 704 802 719 m 441 710 q 419 698 427 701 q 399 696 411 696 l 229 958 l 251 982 q 272 986 259 984 q 298 988 284 988 q 325 988 312 988 q 347 988 338 988 l 441 710 "},"Ợ":{"x_min":61,"x_max":847,"ha":796,"o":"m 635 512 q 622 620 635 569 q 586 708 610 670 q 528 767 563 745 q 449 790 493 790 q 356 770 397 790 q 283 716 315 750 q 229 639 251 683 q 192 547 206 595 q 170 452 177 500 q 164 360 164 403 q 177 243 164 297 q 214 151 190 190 q 273 90 239 112 q 349 68 307 68 q 443 89 402 68 q 517 144 485 110 q 571 225 548 179 q 607 320 593 271 q 628 420 622 370 q 635 512 635 470 m 847 961 q 833 903 847 931 q 797 852 820 876 q 742 806 774 828 q 675 768 711 785 q 720 658 705 720 q 736 524 736 595 q 728 427 736 476 q 704 329 720 377 q 665 236 688 281 q 611 152 641 191 q 550 84 582 115 q 481 29 518 52 q 405 -7 445 6 q 319 -21 364 -21 q 205 6 254 -21 q 125 82 157 34 q 76 194 92 130 q 61 328 61 257 q 68 419 61 371 q 91 515 76 467 q 126 608 105 563 q 174 690 147 653 q 236 762 203 728 q 306 820 269 795 q 387 860 344 845 q 478 875 430 875 q 576 855 533 875 q 650 800 619 835 q 713 845 692 819 q 734 910 734 872 q 728 937 734 923 q 703 961 723 951 l 817 1016 q 840 991 834 1005 q 847 961 847 976 m 389 -173 q 383 -210 389 -192 q 366 -244 377 -229 q 339 -269 355 -259 q 305 -278 324 -278 q 272 -266 284 -278 q 261 -231 261 -254 q 267 -194 261 -213 q 284 -160 273 -175 q 310 -134 295 -144 q 344 -125 325 -125 q 377 -137 365 -125 q 389 -173 389 -150 "},"ƴ":{"x_min":-123,"x_max":1004.125,"ha":642,"o":"m 1004 781 q 981 761 997 773 q 946 738 964 750 q 913 719 928 727 q 892 712 897 712 q 880 721 887 712 q 863 741 873 730 q 840 762 853 752 q 810 772 827 772 q 733 740 771 772 q 659 656 696 709 q 586 531 622 602 q 512 380 549 460 q 437 216 475 300 q 358 51 399 131 q 275 -99 318 -28 q 184 -223 231 -170 q 86 -307 137 -276 q -21 -339 35 -339 q -59 -335 -41 -339 q -92 -328 -78 -332 q -114 -316 -106 -323 q -123 -304 -123 -310 q -116 -280 -123 -296 q -100 -249 -110 -265 q -79 -220 -91 -234 q -59 -203 -68 -207 q -32 -219 -46 -213 q -7 -228 -19 -225 q 15 -232 5 -232 q 32 -232 25 -232 q 90 -215 62 -232 q 146 -169 119 -198 q 199 -98 173 -140 q 251 -9 225 -57 q 234 79 243 31 q 212 178 224 127 q 188 278 201 228 q 163 371 176 328 q 140 450 151 415 q 119 505 128 485 q 92 550 103 539 q 70 561 81 561 q 52 558 64 561 q 30 552 41 556 q 3 544 18 549 l -4 569 q 49 594 24 582 q 96 615 75 606 q 132 629 117 624 q 156 635 148 635 q 173 630 165 635 q 186 615 180 625 q 200 588 193 605 q 214 548 206 571 q 241 468 226 514 q 269 369 255 422 q 298 259 283 317 q 324 144 312 201 q 396 305 359 222 q 472 467 433 388 q 553 617 511 546 q 644 740 596 687 q 745 824 692 793 q 859 855 798 855 q 903 844 881 855 q 945 820 926 834 q 980 795 965 807 q 1004 781 995 784 "},"É":{"x_min":-0.203125,"x_max":634.421875,"ha":641,"o":"m 580 165 q 552 63 566 106 q 531 0 538 19 l 0 0 l 3 29 q 72 49 46 38 q 99 70 98 61 l 198 783 q 178 803 199 791 q 113 825 157 816 l 117 855 l 617 855 l 634 837 q 625 799 631 820 q 614 757 620 778 q 601 717 608 736 q 588 685 594 698 l 559 685 q 562 737 562 716 q 557 770 562 757 q 544 787 552 782 q 523 793 536 793 l 296 793 l 256 498 l 509 498 l 523 479 q 508 459 516 469 q 490 439 499 449 q 472 421 481 429 q 456 406 463 412 q 433 425 446 418 q 403 437 421 433 q 359 442 385 442 q 295 442 333 442 l 248 442 l 202 104 q 204 86 201 94 q 220 72 208 78 q 258 64 233 67 q 323 61 282 61 l 405 61 q 453 64 433 61 q 489 79 473 67 q 519 114 505 91 q 553 177 534 137 l 580 165 m 629 1078 l 320 913 q 307 925 311 919 q 298 945 304 931 l 563 1158 l 578 1148 q 597 1135 587 1142 q 616 1122 607 1129 q 629 1110 624 1115 l 629 1078 "},"ṅ":{"x_min":31.84375,"x_max":659.328125,"ha":686,"o":"m 659 48 q 554 -8 597 11 q 486 -28 511 -28 q 449 -6 462 -28 q 436 51 436 14 q 440 94 436 63 q 451 168 444 126 q 466 257 458 210 q 481 348 474 305 q 492 424 488 390 q 497 474 497 458 q 486 546 497 526 q 445 567 475 567 q 414 556 436 567 q 364 523 392 545 q 306 469 337 501 q 251 393 276 436 q 219 314 232 360 q 194 203 207 269 q 183 99 183 143 q 183 16 183 56 q 159 6 172 11 q 132 -5 146 0 q 105 -17 118 -11 q 84 -28 92 -23 l 62 -7 q 81 89 71 37 q 98 194 90 142 q 114 298 107 247 q 127 392 122 349 q 135 468 132 435 q 139 516 139 500 q 137 541 139 532 q 132 554 135 550 q 124 560 129 559 q 113 562 120 562 q 95 559 107 562 q 71 553 84 556 q 41 544 57 549 l 31 571 q 88 594 60 583 q 142 615 117 606 q 186 629 167 624 q 212 635 204 635 q 227 631 222 635 q 235 620 233 628 q 238 597 238 612 q 238 558 238 582 q 238 537 238 550 q 238 510 238 524 q 235 481 238 495 q 233 459 233 467 q 307 539 269 505 q 380 593 344 572 q 449 625 416 615 q 513 635 483 635 q 551 628 534 635 q 578 608 567 622 q 595 572 589 594 q 601 516 601 549 q 596 457 601 493 q 585 381 592 422 q 570 296 578 340 q 555 213 562 253 q 544 142 548 174 q 540 91 540 110 q 546 59 540 67 q 564 51 552 51 q 600 56 580 51 q 649 73 620 61 l 659 48 m 480 855 q 474 818 480 836 q 457 784 468 799 q 431 759 446 769 q 396 750 415 750 q 364 762 375 750 q 353 797 353 774 q 359 834 353 815 q 375 868 365 853 q 401 894 386 884 q 436 904 417 904 q 468 891 457 904 q 480 855 480 878 "},"³":{"x_min":25.15625,"x_max":385,"ha":390,"o":"m 385 820 q 377 779 385 798 q 355 744 369 760 q 322 716 341 728 q 279 696 303 704 q 318 684 301 694 q 347 659 335 674 q 366 626 359 644 q 373 587 373 607 q 358 514 373 549 q 316 455 343 480 q 251 414 289 429 q 165 400 212 400 q 96 414 131 400 q 25 461 61 428 l 43 495 q 77 473 61 482 q 106 458 92 463 q 133 451 120 453 q 160 449 146 449 q 215 458 191 449 q 256 485 239 468 q 281 526 273 503 q 290 576 290 549 q 282 615 290 599 q 262 643 275 632 q 234 658 250 653 q 202 663 218 663 l 193 663 q 189 662 191 663 q 184 661 187 662 q 174 660 181 660 l 171 691 q 223 707 198 698 q 265 730 247 716 q 293 762 282 743 q 304 809 304 781 q 288 852 304 834 q 239 871 272 871 q 192 853 211 871 q 173 808 173 836 q 136 796 156 800 q 97 793 115 793 l 87 805 q 106 841 90 822 q 147 877 122 861 q 202 905 171 894 q 265 916 233 916 q 319 907 296 916 q 356 886 342 899 q 378 856 371 873 q 385 820 385 839 "},"Ṧ":{"x_min":32,"x_max":611.328125,"ha":610,"o":"m 591 812 q 591 803 594 810 q 583 786 588 795 q 568 766 577 776 q 551 745 560 755 q 534 728 542 735 q 522 717 527 720 l 502 721 q 476 752 491 738 q 445 778 462 767 q 410 797 428 790 q 371 804 391 804 q 306 792 334 804 q 258 761 277 780 q 229 719 239 742 q 219 674 219 696 q 223 643 219 659 q 243 609 228 627 q 285 571 258 591 q 358 528 313 551 q 449 475 412 500 q 509 423 486 450 q 542 366 532 397 q 553 298 553 336 q 526 176 553 234 q 454 75 500 119 q 349 5 409 31 q 222 -21 289 -21 q 163 -12 196 -21 q 101 10 131 -3 q 52 42 72 25 q 32 77 32 60 q 40 101 32 86 q 59 133 48 117 q 83 160 70 148 q 104 172 95 172 q 124 155 112 172 q 154 118 135 138 q 200 81 173 98 q 268 65 228 65 q 345 78 309 65 q 407 116 380 92 q 448 173 433 140 q 464 243 464 205 q 455 295 464 271 q 427 342 447 319 q 373 387 407 365 q 288 434 339 410 q 214 479 243 455 q 168 528 184 503 q 144 579 151 553 q 138 629 138 604 q 158 718 138 674 q 216 796 179 762 q 307 853 254 831 q 426 875 361 875 q 517 856 475 875 q 591 812 559 837 m 425 929 l 363 929 l 232 1133 q 247 1151 242 1146 q 263 1164 252 1155 l 408 1025 l 589 1164 q 601 1151 597 1156 q 611 1133 605 1146 l 425 929 m 500 1267 q 494 1230 500 1248 q 477 1196 488 1211 q 451 1171 466 1181 q 416 1162 435 1162 q 384 1174 395 1162 q 373 1209 373 1186 q 379 1246 373 1227 q 395 1280 385 1265 q 421 1306 406 1296 q 456 1316 437 1316 q 488 1303 477 1316 q 500 1267 500 1290 "},"ṗ":{"x_min":-4.390625,"x_max":599,"ha":653,"o":"m 411 546 q 365 529 393 546 q 307 481 338 512 q 247 407 277 450 q 196 312 218 364 l 179 213 q 208 167 189 192 q 250 121 226 143 q 301 86 273 100 q 356 72 328 72 q 421 92 392 72 q 465 148 449 112 q 484 203 477 175 q 495 260 492 232 q 499 314 499 289 q 499 360 499 340 q 491 443 499 408 q 471 500 484 478 q 443 534 459 523 q 411 546 428 546 m 235 590 q 230 533 235 569 q 216 436 226 496 q 298 543 260 503 q 367 603 336 582 q 424 629 399 623 q 470 635 450 635 q 520 621 497 635 q 561 581 543 607 q 588 515 578 554 q 599 425 599 476 q 580 281 599 357 q 518 127 561 205 q 482 72 502 100 q 439 22 462 45 q 388 -13 415 0 q 332 -28 361 -28 q 287 -14 309 -28 q 244 22 265 0 q 203 73 222 44 q 165 130 183 101 l 142 4 q 117 -210 117 -135 q 118 -303 117 -284 q 95 -310 108 -306 q 67 -320 81 -314 q 39 -330 52 -325 q 17 -339 26 -335 l -4 -319 q 5 -258 -1 -300 q 22 -161 12 -217 q 43 -40 32 -106 q 67 93 55 25 q 90 227 79 161 q 109 351 101 294 q 123 450 118 407 q 128 515 128 493 q 125 540 128 531 q 117 553 122 549 q 107 559 113 558 q 96 561 102 561 q 79 558 90 561 q 56 552 68 556 q 28 544 43 549 l 19 569 q 76 594 47 582 q 131 615 105 606 q 175 629 156 624 q 203 635 195 635 q 225 625 216 635 q 235 590 235 616 m 464 855 q 458 818 464 836 q 441 784 452 799 q 415 759 430 769 q 380 750 399 750 q 348 762 359 750 q 337 797 337 774 q 343 834 337 815 q 359 868 349 853 q 385 894 370 884 q 420 904 401 904 q 452 891 441 904 q 464 855 464 878 "},"[":{"x_min":1.359375,"x_max":465.21875,"ha":397,"o":"m 465 1067 q 453 1033 461 1050 q 440 1009 445 1017 l 262 1009 l 99 -150 l 273 -150 l 292 -169 q 281 -199 288 -183 q 267 -228 274 -216 l 1 -228 l 185 1085 l 446 1085 l 465 1067 "},"Ǹ":{"x_min":0,"x_max":877.546875,"ha":840,"o":"m 873 825 q 806 806 828 818 q 781 783 783 794 l 670 -21 q 644 -16 656 -19 q 623 -8 633 -13 q 606 6 614 -2 q 590 30 598 15 l 252 681 l 169 70 q 186 49 167 62 q 251 29 205 36 l 247 0 l 0 0 l 4 29 q 72 48 50 35 q 96 70 95 61 l 195 782 q 157 811 178 803 q 107 825 136 820 l 111 854 l 231 854 q 255 854 246 854 q 270 848 263 854 q 282 832 276 843 q 298 801 288 821 l 626 175 l 710 783 q 706 793 710 787 q 692 804 702 799 q 666 816 682 810 q 626 825 650 821 l 630 855 l 877 855 l 873 825 m 602 945 q 586 925 592 931 q 570 913 581 919 l 298 1078 l 306 1110 q 323 1122 312 1115 q 346 1135 334 1129 q 370 1148 358 1142 q 389 1158 381 1154 l 602 945 "},"Ḗ":{"x_min":-0.203125,"x_max":659,"ha":641,"o":"m 580 165 q 552 63 566 106 q 531 0 538 19 l 0 0 l 3 29 q 72 49 46 38 q 99 70 98 61 l 198 783 q 178 803 199 791 q 113 825 157 816 l 117 855 l 617 855 l 634 837 q 626 799 631 820 q 614 757 621 778 q 601 717 608 736 q 588 685 594 698 l 559 685 q 562 737 562 716 q 557 770 562 757 q 544 787 552 782 q 523 793 536 793 l 296 793 l 256 498 l 509 498 l 523 479 q 508 459 516 469 q 490 439 499 449 q 472 421 481 429 q 456 406 463 412 q 433 425 446 418 q 403 437 421 433 q 359 442 385 442 q 295 442 333 442 l 248 442 l 202 104 q 204 86 201 94 q 220 72 208 78 q 258 64 233 67 q 323 61 282 61 l 405 61 q 453 64 433 61 q 489 79 473 67 q 519 114 505 91 q 553 177 534 137 l 580 165 m 632 1048 q 626 1031 630 1040 q 616 1012 621 1021 q 606 994 611 1002 q 598 980 602 985 l 226 980 l 215 996 q 222 1012 218 1002 q 230 1030 226 1021 q 239 1049 235 1040 q 248 1065 244 1058 l 619 1065 l 632 1048 m 659 1295 l 350 1130 q 337 1142 340 1136 q 328 1162 334 1148 l 593 1375 l 608 1365 q 627 1352 617 1359 q 646 1339 637 1345 q 659 1327 654 1332 l 659 1295 "},"∏":{"x_min":0,"x_max":834.140625,"ha":800,"o":"m 0 0 l 3 29 q 71 49 46 38 q 98 70 96 60 l 197 783 q 178 803 198 791 q 114 825 157 816 l 118 855 l 834 855 l 830 825 q 761 804 786 816 q 734 783 735 792 l 635 70 q 655 50 634 62 q 718 29 676 38 l 715 0 l 440 0 l 443 29 q 511 49 486 38 q 537 70 536 60 l 632 752 q 626 768 633 760 q 604 783 619 776 q 567 794 590 790 q 514 799 545 799 l 413 799 q 362 794 384 799 q 324 783 339 790 q 300 769 308 777 q 290 752 291 761 l 195 70 q 215 50 194 62 q 278 29 236 38 l 275 0 l 0 0 "},"Ḥ":{"x_min":0.171875,"x_max":872.796875,"ha":838,"o":"m 392 826 q 323 805 349 816 q 295 784 297 793 l 254 479 l 632 479 l 674 784 q 654 804 675 792 q 590 826 633 816 l 593 855 l 872 855 l 868 826 q 800 805 826 816 q 773 784 774 793 l 674 71 q 693 51 672 62 q 758 29 714 39 l 754 0 l 476 0 l 481 29 q 549 50 524 39 q 575 71 574 61 l 623 417 l 245 417 l 198 71 q 218 51 196 62 q 282 29 239 39 l 278 0 l 0 0 l 4 29 q 72 50 46 39 q 99 71 98 61 l 198 784 q 179 804 200 792 q 114 826 158 816 l 118 855 l 396 855 l 392 826 m 413 -172 q 407 -210 413 -191 q 390 -244 401 -228 q 363 -268 379 -259 q 329 -278 348 -278 q 296 -266 308 -278 q 285 -230 285 -253 q 291 -193 285 -212 q 308 -159 297 -175 q 334 -133 319 -143 q 368 -124 349 -124 q 401 -136 389 -124 q 413 -172 413 -149 "},"ḥ":{"x_min":57.96875,"x_max":656.03125,"ha":685,"o":"m 656 48 q 552 -8 593 11 q 483 -28 511 -28 q 448 -6 463 -28 q 433 51 433 14 q 437 95 433 63 q 448 168 441 126 q 462 258 454 210 q 475 348 469 305 q 486 425 482 391 q 491 474 491 459 q 488 518 491 500 q 481 546 486 535 q 467 561 476 557 q 443 566 458 566 q 412 555 434 566 q 361 523 389 544 q 301 470 332 502 q 244 394 270 438 q 213 313 225 362 q 191 203 200 265 q 181 138 184 166 q 178 87 178 109 q 178 48 178 65 q 177 16 178 30 q 155 6 168 11 q 128 -5 142 0 q 101 -17 114 -11 q 80 -28 88 -23 l 57 -7 q 73 83 64 29 q 92 202 82 137 q 114 339 103 267 q 136 482 125 411 q 157 622 147 554 q 174 747 167 690 q 185 847 181 804 q 190 912 190 890 q 187 937 190 928 q 181 950 185 946 q 172 956 177 955 q 162 958 167 958 q 143 954 155 958 q 116 948 130 951 q 84 939 101 944 l 76 966 q 133 990 104 979 q 187 1011 162 1002 q 231 1025 212 1020 q 259 1031 250 1031 q 288 1018 278 1031 q 299 975 299 1006 q 294 921 299 959 q 284 835 290 883 q 269 730 277 786 q 253 623 261 675 q 239 527 246 571 q 228 460 232 484 q 306 542 267 508 q 381 596 345 576 q 451 625 418 616 q 515 635 485 635 q 576 608 558 635 q 595 515 595 581 q 590 456 595 491 q 579 380 586 421 q 566 296 573 339 q 552 213 558 252 q 541 142 545 174 q 537 91 537 110 q 545 59 537 67 q 561 51 553 51 q 600 56 580 51 q 645 73 620 62 l 656 48 m 332 -173 q 326 -210 332 -192 q 309 -244 320 -229 q 282 -269 298 -260 q 248 -279 267 -279 q 215 -266 227 -279 q 204 -231 204 -254 q 210 -194 204 -213 q 227 -160 216 -175 q 253 -134 238 -144 q 287 -125 268 -125 q 320 -137 308 -125 q 332 -173 332 -150 "},"ˋ":{"x_min":135.640625,"x_max":347.21875,"ha":212,"o":"m 347 710 q 325 698 333 701 q 305 696 317 696 l 135 958 l 157 982 q 178 986 165 984 q 204 988 190 988 q 231 988 218 988 q 252 988 244 988 l 347 710 "},"ğ":{"x_min":-3,"x_max":596.5625,"ha":618,"o":"m 229 65 q 268 87 243 65 q 320 148 292 110 q 377 236 348 186 q 428 341 406 286 q 434 395 431 367 q 443 455 437 423 q 448 482 445 469 q 457 507 452 495 q 435 524 447 515 q 408 543 422 534 q 376 557 393 551 q 340 563 359 563 q 281 548 309 563 q 230 507 253 532 q 188 450 207 482 q 156 384 169 418 q 136 316 143 349 q 129 256 129 283 q 137 177 129 212 q 158 117 145 142 q 190 78 172 92 q 229 65 209 65 m 596 611 q 557 564 573 592 q 535 487 542 536 q 524 340 524 406 q 524 215 524 273 q 519 105 524 157 q 505 0 515 52 q 461 -131 493 -69 q 387 -239 430 -193 q 292 -312 344 -285 q 186 -339 240 -339 q 124 -330 157 -339 q 63 -309 91 -322 q 15 -283 34 -297 q -3 -256 -3 -268 q 5 -230 -3 -245 q 26 -203 14 -215 q 48 -181 37 -190 q 64 -173 60 -173 q 75 -179 70 -173 q 90 -196 81 -186 q 110 -218 98 -206 q 139 -240 122 -230 q 181 -257 156 -250 q 237 -264 205 -264 q 343 -204 304 -264 q 402 -32 382 -145 q 412 38 408 5 q 416 103 416 72 q 416 165 416 135 q 416 227 416 195 q 370 139 399 185 q 309 57 341 94 q 243 -3 277 20 q 180 -28 210 -28 q 132 -15 158 -28 q 85 25 107 -2 q 49 98 63 54 q 35 206 35 143 q 47 311 35 260 q 84 409 59 362 q 146 496 108 455 q 233 571 183 537 q 274 594 252 583 q 319 615 296 606 q 364 629 342 624 q 408 635 387 635 q 437 630 423 635 q 465 619 452 626 q 490 604 478 612 q 513 589 502 596 q 546 615 528 604 q 580 635 563 626 l 596 611 m 576 905 q 523 813 551 850 q 467 754 496 776 q 410 721 439 731 q 354 712 382 712 q 298 721 325 712 q 251 754 272 731 q 212 814 229 777 q 183 905 195 851 q 202 923 193 917 q 221 935 211 929 q 246 871 230 897 q 282 830 262 846 q 322 807 301 814 q 363 800 343 800 q 408 807 384 800 q 457 830 433 814 q 504 871 481 846 q 547 935 527 897 q 562 924 556 929 q 576 905 569 918 "},"Ở":{"x_min":61,"x_max":846.6875,"ha":796,"o":"m 635 512 q 622 620 635 569 q 586 708 610 670 q 528 767 563 745 q 449 790 493 790 q 356 770 397 790 q 283 716 315 750 q 229 639 251 683 q 192 547 206 595 q 170 452 177 500 q 164 360 164 403 q 177 243 164 297 q 214 151 190 190 q 273 90 239 112 q 349 68 307 68 q 443 89 402 68 q 517 144 485 110 q 571 225 548 179 q 607 320 593 271 q 628 420 622 370 q 635 512 635 470 m 846 961 q 833 903 846 931 q 797 852 820 876 q 742 806 774 828 q 675 768 711 785 q 720 658 705 720 q 736 524 736 595 q 728 427 736 476 q 704 329 720 377 q 665 236 688 281 q 611 152 641 191 q 550 84 582 115 q 481 29 518 52 q 405 -7 445 6 q 319 -21 364 -21 q 205 6 254 -21 q 125 82 157 34 q 76 194 92 130 q 61 328 61 257 q 68 419 61 371 q 91 515 76 467 q 126 608 105 563 q 175 690 147 653 q 236 762 203 728 q 306 820 269 795 q 387 860 344 845 q 478 875 430 875 q 576 855 533 875 q 650 800 619 835 q 713 845 692 819 q 734 910 734 872 q 728 937 734 923 q 703 961 723 951 l 817 1016 q 840 991 834 1005 q 846 961 846 976 m 606 1121 q 588 1072 606 1093 q 549 1035 570 1051 q 509 1004 527 1018 q 492 972 492 989 q 498 955 492 965 q 520 935 504 945 q 501 927 510 929 q 481 925 492 926 q 444 953 455 940 q 434 978 434 966 q 442 998 434 988 q 463 1016 450 1007 q 490 1033 475 1024 q 518 1054 505 1043 q 539 1080 530 1066 q 548 1112 548 1093 q 539 1144 548 1131 q 509 1157 530 1157 q 486 1152 497 1157 q 467 1139 475 1147 q 456 1122 460 1131 q 456 1103 453 1112 q 444 1099 452 1101 q 427 1094 436 1096 q 410 1090 419 1091 q 396 1087 402 1088 l 390 1095 q 404 1132 390 1115 q 439 1162 418 1150 q 484 1182 460 1175 q 528 1189 508 1189 q 586 1169 567 1189 q 606 1121 606 1149 "},"Ṙ":{"x_min":0.375,"x_max":730.46875,"ha":730,"o":"m 730 73 q 678 40 704 56 q 630 14 652 25 q 591 -3 609 2 q 565 -10 574 -10 q 543 -6 554 -10 q 522 6 533 -3 q 500 34 512 16 q 476 79 489 51 l 322 400 q 282 403 303 400 q 244 410 261 406 l 198 70 q 218 50 196 62 q 282 29 239 38 l 277 0 l 0 0 l 4 29 q 72 49 47 38 q 99 70 98 61 l 200 808 q 148 801 174 805 q 96 791 122 796 l 96 832 q 157 848 126 840 q 222 862 188 856 q 294 871 255 868 q 379 875 333 875 q 487 861 438 875 q 570 819 535 847 q 624 751 605 792 q 642 658 642 711 q 631 593 642 632 q 592 517 619 555 q 522 448 565 480 q 414 404 478 417 l 573 124 q 597 91 585 103 q 623 77 608 79 q 661 80 638 74 q 718 99 683 86 l 730 73 m 348 817 l 324 817 q 300 817 311 817 l 251 459 q 290 451 271 454 q 328 449 309 449 q 411 460 371 449 q 480 496 450 472 q 528 554 510 519 q 546 638 546 590 q 527 722 546 688 q 479 777 508 756 q 416 807 450 798 q 348 817 381 817 m 500 1050 q 494 1013 500 1031 q 477 979 488 994 q 450 954 466 964 q 416 945 435 945 q 383 957 395 945 q 372 992 372 969 q 378 1029 372 1010 q 395 1063 384 1048 q 421 1089 406 1079 q 455 1099 436 1099 q 488 1086 476 1099 q 500 1050 500 1073 "},"ª":{"x_min":40.125,"x_max":381.75,"ha":397,"o":"m 372 431 q 364 414 368 420 q 356 398 360 407 l 51 398 l 40 411 q 47 430 43 422 q 55 448 51 437 l 359 448 l 372 431 m 271 652 q 277 688 274 669 q 283 724 280 707 q 288 754 285 741 q 292 775 291 768 q 266 792 281 784 q 234 801 252 801 q 188 783 209 801 q 153 740 168 765 q 130 686 138 714 q 122 636 122 657 q 136 560 122 588 q 173 532 151 532 q 194 542 182 532 q 220 571 206 553 q 247 610 234 588 q 271 652 260 631 m 381 521 q 330 492 350 501 q 299 484 310 484 q 286 488 292 484 q 275 504 280 492 q 268 539 271 517 q 266 596 266 561 q 243 559 256 579 q 214 523 230 540 q 181 495 198 506 q 149 484 165 484 q 124 490 137 484 q 99 512 110 497 q 79 551 87 527 q 72 608 72 574 q 98 718 72 667 q 177 805 125 769 q 199 818 187 811 q 223 829 211 824 q 248 837 235 833 q 271 840 260 840 q 301 832 287 840 q 326 817 315 825 q 364 840 342 829 l 370 826 q 360 817 364 821 q 352 808 355 813 q 347 795 349 803 q 343 776 345 788 q 332 721 336 749 q 324 669 328 694 q 319 626 321 645 q 318 599 318 608 q 322 541 318 557 q 334 526 326 526 q 351 527 342 526 q 376 534 361 529 l 381 521 "},"T":{"x_min":76.59375,"x_max":758.140625,"ha":724,"o":"m 463 0 l 161 0 l 165 29 q 247 55 223 41 q 273 77 271 68 l 372 793 l 189 793 q 172 789 180 793 q 155 773 164 785 q 132 737 145 761 q 101 674 119 714 l 76 687 q 83 727 78 705 q 93 772 87 749 q 105 816 98 795 q 117 855 111 838 l 743 855 l 758 837 q 751 800 755 821 q 741 758 747 780 q 730 715 736 736 q 719 677 724 694 l 691 677 q 688 733 691 711 q 680 769 685 756 q 666 787 675 782 q 644 793 658 793 l 469 793 l 372 77 q 391 55 370 69 q 467 29 412 41 l 463 0 "},"š":{"x_min":-3,"x_max":522.90625,"ha":482,"o":"m 472 572 q 445 544 459 557 q 421 522 432 532 q 400 508 409 513 q 386 503 391 503 q 367 514 377 503 q 345 540 357 526 q 316 566 333 554 q 277 578 299 578 q 240 570 258 578 q 207 551 222 563 q 184 520 193 538 q 175 481 175 502 q 197 430 175 457 q 274 379 220 404 q 330 349 302 366 q 380 310 358 332 q 416 260 402 288 q 430 196 430 232 q 405 108 430 149 q 344 36 381 67 q 260 -10 306 6 q 170 -28 214 -28 q 107 -18 138 -28 q 51 4 76 -9 q 12 35 27 18 q -3 66 -3 52 q 5 87 -3 73 q 24 116 13 102 q 47 140 35 129 q 66 151 58 151 q 75 142 70 151 q 88 121 80 134 q 107 93 96 108 q 134 66 118 79 q 172 45 150 53 q 224 37 194 37 q 269 46 248 37 q 306 70 290 55 q 331 106 322 85 q 341 151 341 127 q 330 198 341 177 q 301 237 319 220 q 260 269 283 254 q 210 295 236 283 q 150 329 175 312 q 110 364 125 346 q 89 401 95 381 q 83 443 83 421 q 104 521 83 485 q 158 581 125 556 q 232 621 191 607 q 313 635 273 635 q 371 626 347 635 q 413 607 395 618 q 444 586 431 597 q 472 572 458 576 m 332 712 l 270 712 l 144 950 q 159 967 153 963 q 175 980 164 972 l 316 815 l 501 980 q 513 968 509 973 q 522 950 516 963 l 332 712 "},"":{"x_min":20.34375,"x_max":399.4375,"ha":427,"o":"m 399 407 q 385 375 394 392 q 371 346 377 358 l 56 346 l 46 364 q 57 394 50 377 q 73 424 65 410 l 385 424 l 399 407 m 373 235 q 360 203 368 220 q 345 174 351 186 l 31 174 l 20 192 q 31 222 24 205 q 48 252 39 238 l 359 252 l 373 235 "},"Þ":{"x_min":2.21875,"x_max":636,"ha":654,"o":"m 409 825 q 355 814 377 819 q 321 803 334 808 q 302 793 308 798 q 296 783 297 788 l 282 684 q 377 692 326 692 q 485 676 437 692 q 567 630 534 660 q 618 560 600 601 q 636 468 636 518 q 613 356 636 409 q 552 264 591 303 q 460 202 513 225 q 346 179 407 179 q 294 184 318 179 q 251 201 270 189 l 243 251 q 291 235 268 238 q 335 232 314 232 q 419 248 381 232 q 484 292 457 264 q 525 359 510 320 q 540 441 540 397 q 524 524 540 488 q 481 585 508 560 q 416 623 453 610 q 335 636 379 636 q 305 634 320 636 q 275 629 290 632 l 199 70 q 202 61 198 66 q 217 51 206 56 q 249 40 229 45 q 299 28 268 34 l 295 0 l 2 0 l 6 28 q 74 49 49 38 q 101 70 99 60 l 199 783 q 179 803 200 791 q 116 825 158 816 l 120 854 l 413 854 l 409 825 "},"j":{"x_min":-260,"x_max":311,"ha":341,"o":"m 255 590 q 253 564 255 582 q 248 520 251 545 q 243 466 246 495 q 237 410 240 437 q 231 359 233 382 q 227 320 228 335 q 221 267 224 297 q 214 201 219 236 q 206 126 210 166 q 194 44 201 86 q 160 -88 181 -34 q 117 -179 140 -142 q 66 -241 93 -216 q 12 -287 39 -265 q -27 -311 -6 -301 q -70 -327 -49 -321 q -110 -336 -91 -333 q -140 -339 -128 -339 q -180 -333 -159 -339 q -219 -320 -201 -328 q -248 -303 -236 -311 q -260 -287 -260 -294 q -251 -264 -260 -278 q -230 -236 -242 -250 q -205 -213 -217 -223 q -186 -204 -192 -204 q -172 -212 -180 -204 q -150 -232 -164 -221 q -116 -251 -137 -242 q -66 -260 -96 -260 q 28 -190 -8 -260 q 87 7 65 -120 q 102 103 96 57 q 112 187 108 148 q 119 256 116 225 q 124 306 121 286 q 126 334 124 316 q 130 373 128 352 q 135 416 132 394 q 139 457 137 438 q 142 492 142 477 q 142 515 142 508 q 140 540 142 531 q 134 553 138 549 q 125 559 130 558 q 115 561 120 561 q 98 558 109 561 q 75 552 87 556 q 48 544 62 549 l 37 569 q 94 594 66 582 q 147 615 123 606 q 190 629 172 624 q 217 635 208 635 q 245 626 236 635 q 255 590 255 618 m 311 856 q 304 819 311 837 q 287 785 298 800 q 260 760 276 770 q 226 751 245 751 q 183 798 183 751 q 188 835 183 816 q 205 869 194 854 q 231 895 216 885 q 266 905 246 905 q 299 892 287 905 q 311 856 311 879 "},"1":{"x_min":42.328125,"x_max":456.703125,"ha":558,"o":"m 451 0 l 42 0 l 47 35 q 128 49 95 42 q 181 65 161 57 q 210 81 201 73 q 220 97 219 89 l 293 637 q 298 679 298 664 q 292 704 298 694 q 279 710 289 707 q 250 713 269 713 q 201 708 230 713 q 131 694 172 704 l 123 729 q 186 751 149 737 q 261 782 223 765 q 334 815 300 799 q 391 844 369 832 l 410 820 l 312 97 q 316 82 310 90 q 338 66 322 74 q 382 50 354 58 q 456 35 411 42 l 451 0 "},"ɣ":{"x_min":2.4375,"x_max":612,"ha":634,"o":"m 344 -150 q 337 -70 344 -113 q 318 18 330 -28 q 278 -50 295 -21 q 250 -100 261 -79 q 232 -136 238 -121 q 222 -161 225 -150 q 218 -181 219 -172 q 217 -199 217 -190 q 221 -227 217 -215 q 232 -248 225 -239 q 247 -261 239 -256 q 263 -266 255 -266 q 292 -260 277 -266 q 318 -242 306 -255 q 336 -207 329 -229 q 344 -150 344 -185 m 612 583 q 608 551 612 568 q 596 511 605 535 q 571 457 587 488 q 531 380 556 425 q 471 275 506 335 q 388 135 436 215 q 418 12 407 74 q 429 -115 429 -49 q 410 -197 429 -157 q 362 -269 391 -237 q 301 -320 334 -301 q 241 -339 268 -339 q 188 -328 209 -339 q 155 -302 167 -318 q 138 -266 143 -286 q 134 -226 134 -246 q 136 -203 134 -215 q 145 -175 138 -191 q 163 -136 152 -158 q 193 -82 175 -113 q 237 -8 211 -50 q 298 89 263 33 q 259 202 280 145 q 214 313 237 259 q 168 416 191 367 q 125 505 146 465 q 99 549 109 538 q 77 561 88 561 q 60 558 70 561 q 37 552 49 556 q 10 544 24 549 l 2 569 q 56 594 30 582 q 103 615 82 606 q 139 629 124 624 q 163 635 155 635 q 179 630 173 635 q 192 614 185 625 q 204 588 198 604 q 221 548 211 571 q 297 376 258 462 q 367 203 335 291 q 427 312 398 259 q 475 409 455 365 q 508 487 496 454 q 520 537 520 520 q 484 571 520 571 q 456 569 471 573 q 423 556 442 565 l 409 581 q 496 622 459 610 q 556 635 532 635 q 578 633 567 635 q 595 626 588 631 q 607 610 603 620 q 612 583 612 600 "},"ɩ":{"x_min":63.84375,"x_max":341.515625,"ha":342,"o":"m 341 122 q 256 12 302 53 q 156 -28 210 -28 q 91 128 65 -28 l 145 440 q 152 495 152 474 q 142 528 152 516 q 114 545 133 540 q 63 554 95 550 l 67 580 q 112 589 88 584 q 161 601 136 594 q 209 616 185 608 q 255 635 233 624 l 276 635 l 202 195 q 193 125 193 150 q 196 87 193 99 q 206 72 199 75 q 222 70 213 70 q 239 73 229 70 q 262 86 249 76 q 290 112 275 95 q 324 154 306 129 l 341 122 "},"Ǜ":{"x_min":113.796875,"x_max":871.875,"ha":832,"o":"m 867 825 q 801 804 825 815 q 776 783 777 792 l 715 347 q 673 189 703 258 q 601 73 644 120 q 501 3 557 27 q 377 -21 444 -21 q 275 -4 321 -21 q 195 45 229 12 q 144 125 162 78 q 126 236 126 173 q 132 313 126 271 l 198 783 q 178 803 199 791 q 113 825 157 815 l 117 854 l 395 854 l 391 825 q 322 804 348 815 q 294 783 296 792 l 234 345 q 232 306 232 325 q 232 268 232 286 q 243 182 232 221 q 277 116 255 144 q 334 73 300 88 q 412 58 368 58 q 493 79 456 58 q 559 137 530 101 q 606 220 587 173 q 631 317 624 266 l 694 783 q 676 803 695 791 q 613 825 657 815 l 617 855 l 871 855 l 867 825 m 469 1050 q 462 1013 469 1031 q 445 979 456 994 q 419 954 435 963 q 384 945 403 945 q 350 957 362 945 q 338 992 338 969 q 344 1029 338 1010 q 362 1063 350 1047 q 389 1088 373 1079 q 424 1098 405 1098 q 457 1086 445 1098 q 469 1050 469 1073 m 722 1050 q 715 1013 722 1031 q 698 979 709 994 q 671 954 687 964 q 635 945 655 945 q 602 957 614 945 q 591 992 591 969 q 597 1029 591 1010 q 614 1063 603 1048 q 640 1089 624 1079 q 675 1099 656 1099 q 709 1086 696 1099 q 722 1050 722 1073 m 645 1162 q 630 1142 635 1148 q 613 1130 624 1136 l 341 1295 l 349 1327 q 366 1339 355 1332 q 389 1352 377 1345 q 413 1365 401 1359 q 433 1375 424 1371 l 645 1162 "},"ǒ":{"x_min":36,"x_max":569.65625,"ha":586,"o":"m 453 342 q 415 500 453 445 q 307 556 377 556 q 225 527 258 556 q 171 456 192 499 q 142 364 151 414 q 134 270 134 314 q 145 184 134 225 q 176 114 156 144 q 223 66 196 83 q 280 48 249 48 q 336 62 312 48 q 380 99 361 76 q 413 153 400 123 q 436 216 427 183 q 448 281 444 249 q 453 342 453 314 m 550 379 q 539 287 550 333 q 510 196 529 240 q 461 113 490 153 q 394 42 432 73 q 357 15 377 28 q 317 -7 337 2 q 276 -22 297 -17 q 234 -28 255 -28 q 150 -7 187 -28 q 87 46 113 12 q 49 129 62 81 q 36 233 36 177 q 44 327 36 282 q 70 414 52 372 q 119 495 88 456 q 194 569 149 533 q 270 616 229 597 q 354 635 311 635 q 444 616 406 635 q 504 563 481 597 q 539 482 528 529 q 550 379 550 435 m 379 712 l 317 712 l 190 950 q 205 967 200 963 q 221 980 211 972 l 362 815 l 547 980 q 559 968 556 973 q 569 950 563 963 l 379 712 "},"ĉ":{"x_min":36,"x_max":556.828125,"ha":539,"o":"m 551 553 q 521 531 537 542 q 490 510 505 519 q 462 495 475 501 q 440 489 449 489 q 421 500 432 489 q 396 526 411 512 q 363 552 381 540 q 323 564 345 564 q 266 549 292 564 q 219 508 240 534 q 182 450 198 483 q 156 382 166 417 q 140 310 145 346 q 135 242 135 274 q 144 163 135 198 q 172 102 154 127 q 214 64 189 78 q 267 51 238 51 q 299 55 280 51 q 342 70 318 59 q 398 100 367 81 q 465 149 428 119 q 476 134 470 142 q 486 121 482 127 q 391 44 433 73 q 315 -1 349 14 q 253 -22 280 -17 q 201 -28 225 -28 q 149 -16 178 -28 q 96 23 121 -4 q 53 99 70 52 q 36 218 36 147 q 45 312 36 263 q 76 407 55 360 q 131 495 97 453 q 216 571 166 537 q 258 594 235 583 q 306 615 281 606 q 355 629 331 624 q 400 635 379 635 q 453 623 430 635 q 495 597 476 612 q 527 569 513 582 q 551 553 541 556 m 556 726 q 542 706 547 712 q 526 696 537 700 l 385 875 l 200 696 q 189 706 194 700 q 177 726 184 712 l 370 978 l 432 978 l 556 726 "},"Ɔ":{"x_min":47,"x_max":665,"ha":686,"o":"m 665 531 q 652 409 665 472 q 616 283 640 345 q 558 166 593 221 q 478 69 523 111 q 377 3 432 27 q 257 -21 322 -21 q 168 -5 207 -21 q 101 35 129 9 q 60 93 74 61 q 47 162 47 126 q 54 227 47 193 q 88 294 61 260 q 126 311 103 301 q 174 332 150 321 q 220 351 198 342 q 253 363 242 359 l 262 330 q 180 266 205 300 q 155 186 155 232 q 165 138 155 161 q 195 95 176 114 q 239 65 213 77 q 295 54 265 54 q 378 75 340 54 q 447 133 416 97 q 500 214 477 168 q 538 310 523 260 q 561 407 554 359 q 569 496 569 456 q 550 623 569 567 q 501 716 531 678 q 434 775 472 755 q 357 796 396 796 q 320 792 341 796 q 273 778 300 788 q 213 749 247 767 q 140 702 180 730 q 133 708 136 703 q 128 717 131 712 q 124 726 126 722 q 121 732 122 730 q 208 806 168 778 q 282 849 247 834 q 349 869 317 864 q 412 875 380 875 q 508 851 462 875 q 589 784 554 828 q 644 676 623 740 q 665 531 665 613 "},"ī":{"x_min":47.703125,"x_max":436.640625,"ha":342,"o":"m 308 48 q 251 15 276 29 q 204 -8 225 1 q 166 -23 183 -18 q 135 -28 150 -28 q 98 -6 112 -28 q 85 51 85 14 q 90 109 85 71 q 102 192 95 146 q 119 288 110 238 q 135 383 127 338 q 147 463 142 428 q 153 515 153 499 q 150 540 153 531 q 145 553 148 549 q 136 559 142 558 q 125 561 131 561 q 108 558 119 561 q 85 552 97 556 q 57 544 72 549 l 47 569 q 104 594 76 582 q 156 615 132 606 q 199 629 181 624 q 226 635 217 635 q 253 622 245 635 q 261 577 261 609 q 255 519 261 558 q 242 434 250 481 q 226 334 234 386 q 209 235 217 282 q 196 149 201 187 q 191 91 191 110 q 195 60 191 70 q 211 51 199 51 q 251 56 232 51 q 298 73 270 61 l 308 48 m 436 853 q 430 836 434 845 q 420 817 425 826 q 410 799 415 807 q 402 785 406 790 l 112 785 l 101 801 q 108 817 104 807 q 116 835 112 826 q 125 854 121 845 q 134 870 130 863 l 423 870 l 436 853 "},"Ď":{"x_min":0.015625,"x_max":731,"ha":759,"o":"m 731 505 q 719 384 731 445 q 684 268 707 324 q 627 163 661 212 q 548 77 593 113 q 447 20 503 41 q 326 0 392 0 l 0 0 l 4 29 q 72 49 46 38 q 99 70 98 61 l 200 808 l 97 797 l 97 840 q 251 867 175 859 q 397 875 327 875 q 538 848 477 875 q 643 773 600 822 q 708 657 686 725 q 731 505 731 589 m 342 817 l 321 817 q 301 817 311 817 l 202 94 q 205 77 201 84 q 221 65 209 70 q 254 59 232 61 q 308 57 275 57 q 401 75 359 57 q 478 127 443 94 q 539 203 513 159 q 584 295 566 246 q 611 394 602 343 q 621 492 621 445 q 602 624 621 565 q 549 726 584 684 q 461 793 513 769 q 342 817 409 817 m 483 929 l 420 929 l 289 1133 q 304 1150 299 1146 q 320 1163 310 1155 l 466 1025 l 647 1163 q 659 1151 655 1156 q 669 1133 663 1146 l 483 929 "},"&":{"x_min":42.78125,"x_max":864.15625,"ha":807,"o":"m 350 766 q 349 685 344 727 q 365 597 353 642 q 441 649 410 624 q 491 697 471 674 q 520 743 510 721 q 533 787 530 765 q 537 835 537 812 q 528 874 537 857 q 503 901 519 891 q 461 911 486 911 q 417 898 436 911 q 384 865 398 885 q 362 819 370 845 q 350 766 353 793 m 302 57 q 403 74 357 57 q 488 120 450 91 q 435 197 462 155 q 383 284 408 238 q 337 379 359 330 q 298 478 314 427 q 234 422 261 448 q 189 368 207 395 q 160 315 171 342 q 146 259 150 288 q 150 174 139 212 q 184 110 161 137 q 237 70 206 84 q 302 57 268 57 m 864 507 q 829 472 846 486 q 796 446 812 458 q 772 457 786 452 q 745 466 759 462 q 718 471 731 469 q 694 474 704 474 q 701 450 699 462 q 704 425 704 439 q 704 394 704 411 q 699 353 704 377 q 668 255 693 307 q 604 154 643 203 q 636 117 620 134 q 665 86 651 100 q 712 57 686 64 q 776 59 738 50 l 776 30 q 681 -8 718 4 q 630 -21 644 -21 q 589 4 617 -21 q 524 74 561 29 q 408 5 471 31 q 273 -21 344 -21 q 170 -3 216 -21 q 94 48 125 14 q 50 132 63 82 q 46 245 37 182 q 69 323 51 284 q 118 399 88 362 q 189 473 148 437 q 279 544 230 510 q 264 638 264 592 q 270 728 264 684 q 299 829 277 783 q 353 911 321 876 q 424 964 385 945 q 503 984 463 984 q 567 969 542 984 q 606 930 592 954 q 623 875 620 906 q 622 809 627 843 q 559 679 612 740 q 429 568 507 618 l 382 538 q 419 449 398 493 q 464 360 440 404 q 515 277 489 317 q 568 201 542 236 q 603 264 590 231 q 622 326 617 296 q 622 386 627 358 q 605 434 617 414 q 578 466 594 454 q 543 478 562 478 l 532 497 q 554 516 541 506 q 582 532 568 526 l 852 532 l 864 507 "},"ṻ":{"x_min":26.390625,"x_max":660.671875,"ha":693,"o":"m 660 45 q 568 -9 606 9 q 505 -28 530 -28 q 479 -16 492 -28 q 458 22 467 -4 q 445 93 449 50 q 442 201 442 137 q 386 109 417 151 q 322 36 355 66 q 253 -11 288 5 q 181 -28 218 -28 q 150 -17 168 -28 q 118 14 133 -6 q 92 66 103 35 q 82 138 82 97 q 85 190 82 159 q 94 257 89 221 q 107 332 100 293 q 119 406 113 370 q 128 470 124 441 q 132 515 132 499 q 129 540 132 531 q 124 553 127 549 q 115 559 120 558 q 104 561 110 561 q 86 558 98 561 q 63 552 75 556 q 34 544 50 549 l 26 569 q 83 594 54 582 q 136 615 112 606 q 179 629 161 624 q 206 635 198 635 q 233 622 226 635 q 240 577 240 609 q 235 526 240 558 q 225 456 231 494 q 213 377 219 418 q 200 299 206 337 q 190 229 194 261 q 186 177 186 197 q 199 83 186 112 q 238 54 213 54 q 274 67 252 54 q 325 109 297 80 q 387 187 354 139 q 457 303 421 234 q 467 361 461 332 q 477 418 472 391 q 484 471 481 446 q 488 515 488 495 q 486 540 488 531 q 481 553 484 549 q 473 559 477 558 q 462 561 468 561 q 445 558 456 561 q 424 552 435 556 q 399 544 412 549 l 389 569 q 445 594 417 582 q 496 615 473 606 q 537 629 519 624 q 563 635 555 635 q 588 622 582 635 q 595 577 595 609 q 590 526 595 558 q 580 457 586 495 q 567 378 574 419 q 553 299 559 337 q 543 227 547 261 q 539 171 539 194 q 547 80 539 110 q 573 51 556 51 q 609 55 591 51 q 651 70 627 60 l 660 45 m 629 853 q 622 836 627 845 q 613 817 618 826 q 603 799 608 807 q 595 785 599 790 l 223 785 l 212 801 q 219 817 215 807 q 227 835 223 826 q 236 854 231 845 q 245 870 241 863 l 616 870 l 629 853 m 389 1106 q 382 1069 389 1087 q 365 1035 376 1050 q 339 1010 355 1020 q 304 1001 323 1001 q 270 1013 282 1001 q 258 1048 258 1025 q 264 1085 258 1066 q 282 1119 270 1104 q 309 1145 293 1135 q 344 1154 325 1154 q 377 1142 365 1154 q 389 1106 389 1129 m 641 1106 q 634 1069 641 1087 q 617 1035 628 1050 q 590 1010 606 1020 q 555 1001 575 1001 q 522 1013 534 1001 q 511 1048 511 1025 q 517 1085 511 1066 q 533 1119 523 1104 q 560 1145 544 1135 q 595 1154 575 1154 q 628 1142 616 1154 q 641 1106 641 1129 "},"G":{"x_min":52,"x_max":721.296875,"ha":728,"o":"m 717 365 q 663 340 680 355 q 644 310 646 325 q 637 262 641 291 q 629 202 633 233 q 621 144 625 172 q 616 104 618 117 q 526 38 565 63 q 454 0 486 13 q 395 -16 422 -12 q 340 -21 367 -21 q 232 1 284 -21 q 140 68 180 24 q 76 175 100 111 q 52 320 52 239 q 66 450 52 385 q 109 576 81 516 q 174 687 136 636 q 258 775 212 738 q 386 847 316 820 q 538 875 457 875 q 582 870 558 875 q 629 856 606 865 q 675 834 653 847 q 715 805 698 821 q 712 790 719 802 q 692 765 705 779 q 666 737 680 751 q 643 716 652 724 l 624 720 q 587 756 606 741 q 544 778 567 770 q 495 790 521 787 q 439 794 469 794 q 376 776 413 794 q 302 728 339 758 q 240 656 268 701 q 193 559 213 611 q 163 452 174 506 q 153 350 153 397 q 175 224 153 277 q 231 136 197 171 q 308 83 266 100 q 393 67 351 67 q 465 77 430 67 q 524 106 500 88 l 551 310 q 549 323 552 317 q 530 337 545 330 q 485 350 515 344 q 404 365 455 357 l 408 395 l 721 395 l 717 365 "},"`":{"x_min":171.578125,"x_max":383.171875,"ha":411,"o":"m 383 710 q 361 698 369 701 q 341 696 353 696 l 171 958 l 193 982 q 213 986 201 984 q 240 988 226 988 q 267 988 254 988 q 288 988 280 988 l 383 710 "},"ỗ":{"x_min":36,"x_max":630.015625,"ha":586,"o":"m 453 342 q 415 500 453 445 q 307 556 377 556 q 225 527 258 556 q 171 456 192 499 q 142 364 151 414 q 134 270 134 314 q 145 184 134 225 q 176 114 156 144 q 223 66 196 83 q 280 48 249 48 q 336 62 312 48 q 380 99 361 76 q 413 153 400 123 q 436 216 427 183 q 448 281 444 249 q 453 342 453 314 m 550 379 q 539 287 550 333 q 510 196 529 240 q 461 113 490 153 q 394 42 432 73 q 357 15 377 28 q 317 -7 337 2 q 276 -22 297 -17 q 234 -28 255 -28 q 150 -7 187 -28 q 87 46 113 12 q 49 129 62 81 q 36 233 36 177 q 44 327 36 282 q 70 414 52 372 q 119 495 88 456 q 194 569 149 533 q 270 616 229 597 q 354 635 311 635 q 444 616 406 635 q 504 563 481 597 q 539 482 528 529 q 550 379 550 435 m 539 726 q 525 706 530 713 q 509 696 520 700 l 368 875 l 183 696 q 172 706 177 700 q 161 726 167 713 l 353 978 l 415 978 l 539 726 m 630 1231 q 597 1177 615 1204 q 558 1128 579 1150 q 513 1094 537 1107 q 463 1081 489 1081 q 424 1092 441 1081 q 391 1118 406 1104 q 359 1143 375 1131 q 325 1155 343 1155 q 277 1133 301 1155 q 224 1074 253 1112 l 195 1088 q 227 1142 209 1115 q 267 1190 245 1168 q 312 1224 288 1211 q 362 1238 337 1238 q 403 1226 385 1238 q 438 1201 422 1214 q 469 1175 455 1187 q 497 1164 483 1164 q 547 1185 521 1164 q 599 1244 573 1206 l 630 1231 "},"Ễ":{"x_min":-0.203125,"x_max":675.25,"ha":642,"o":"m 580 165 q 552 63 566 106 q 531 0 538 19 l 0 0 l 3 29 q 72 49 46 38 q 99 70 98 61 l 198 783 q 178 803 199 791 q 113 825 157 816 l 117 855 l 617 855 l 634 837 q 626 799 631 820 q 614 757 621 778 q 601 717 608 736 q 588 685 594 698 l 559 685 q 562 737 562 716 q 557 770 562 757 q 544 787 552 782 q 523 793 536 793 l 296 793 l 256 498 l 509 498 l 523 479 q 508 459 516 469 q 490 439 499 449 q 472 421 481 429 q 456 406 463 412 q 433 425 446 418 q 403 437 421 433 q 359 442 385 442 q 295 442 333 442 l 248 442 l 202 104 q 204 86 201 94 q 220 72 208 78 q 258 64 233 67 q 323 61 282 61 l 405 61 q 453 64 433 61 q 489 79 473 67 q 519 114 505 91 q 553 177 534 137 l 580 165 m 595 943 q 581 924 586 930 q 565 913 576 918 l 419 1052 l 239 913 q 228 923 233 917 q 216 943 223 930 l 403 1148 l 465 1148 l 595 943 m 675 1375 q 643 1321 661 1348 q 604 1272 625 1294 q 558 1238 583 1251 q 508 1225 534 1225 q 469 1236 486 1225 q 436 1262 452 1248 q 404 1287 420 1275 q 370 1299 388 1299 q 322 1277 347 1299 q 269 1218 298 1256 l 240 1232 q 272 1286 254 1259 q 312 1334 290 1312 q 357 1368 333 1355 q 408 1382 382 1382 q 449 1370 430 1382 q 484 1345 467 1358 q 514 1319 500 1331 q 543 1308 528 1308 q 592 1329 566 1308 q 644 1388 618 1350 l 675 1375 "},"ằ":{"x_min":36,"x_max":611.359375,"ha":626,"o":"m 409 292 q 419 355 414 322 q 431 419 425 388 q 441 475 437 449 q 448 515 446 500 q 426 532 438 523 q 400 548 414 540 q 370 559 386 555 q 339 564 355 564 q 280 548 308 564 q 229 508 253 533 q 187 450 206 483 q 156 384 169 418 q 136 316 143 350 q 129 257 129 283 q 136 177 129 213 q 156 117 143 142 q 187 78 169 92 q 225 65 205 65 q 265 85 241 65 q 314 139 288 106 q 364 212 339 172 q 409 292 389 253 m 611 45 q 516 -10 552 7 q 460 -28 479 -28 q 436 -19 448 -28 q 416 12 425 -11 q 403 77 408 35 q 398 184 398 118 q 354 116 380 153 q 300 47 329 79 q 240 -6 271 14 q 180 -28 209 -28 q 132 -15 158 -28 q 85 25 107 -2 q 50 98 64 54 q 36 206 36 143 q 48 311 36 260 q 86 409 61 362 q 147 497 111 456 q 232 571 183 538 q 272 594 250 583 q 317 615 294 606 q 364 629 341 624 q 408 635 387 635 q 436 631 422 635 q 462 621 449 627 q 487 608 475 615 q 508 594 498 601 q 542 616 524 605 q 578 635 559 626 l 591 611 q 572 594 580 601 q 559 577 565 586 q 549 552 553 567 q 540 515 545 538 q 521 415 530 466 q 505 318 512 364 q 495 238 499 273 q 492 188 492 203 q 494 123 492 150 q 500 81 496 97 q 510 58 504 65 q 525 51 517 51 q 557 54 538 51 q 603 70 576 58 l 611 45 m 599 905 q 547 813 574 850 q 491 754 519 776 q 434 721 462 731 q 378 712 405 712 q 322 721 348 712 q 274 754 296 731 q 236 814 253 777 q 207 905 219 851 q 226 923 217 917 q 245 934 234 929 q 270 871 254 897 q 305 830 286 846 q 346 807 325 814 q 386 800 367 800 q 432 807 407 800 q 480 830 456 814 q 527 871 504 846 q 570 934 551 897 q 586 923 580 929 q 599 905 593 918 m 450 927 q 429 915 437 918 q 408 913 420 913 l 239 1175 l 260 1199 q 281 1203 268 1201 q 307 1205 294 1205 q 334 1205 321 1205 q 356 1205 347 1205 l 450 927 "},"ŏ":{"x_min":36,"x_max":568.984375,"ha":586,"o":"m 453 342 q 415 500 453 445 q 307 556 377 556 q 225 527 258 556 q 171 456 192 499 q 142 364 151 414 q 134 270 134 314 q 145 184 134 225 q 176 114 156 144 q 223 66 196 83 q 280 48 249 48 q 336 62 312 48 q 380 99 361 76 q 413 153 400 123 q 436 216 427 183 q 448 281 444 249 q 453 342 453 314 m 550 379 q 539 287 550 333 q 510 196 529 240 q 461 113 490 153 q 394 42 432 73 q 357 15 377 28 q 317 -7 337 2 q 276 -22 297 -17 q 234 -28 255 -28 q 150 -7 187 -28 q 87 46 113 12 q 49 129 62 81 q 36 233 36 177 q 44 327 36 282 q 70 414 52 372 q 119 495 88 456 q 194 569 149 533 q 270 616 229 597 q 354 635 311 635 q 444 616 406 635 q 504 563 481 597 q 539 482 528 529 q 550 379 550 435 m 568 905 q 516 813 543 850 q 460 754 489 776 q 403 721 432 731 q 348 712 375 712 q 292 721 318 712 q 244 754 266 731 q 205 814 222 777 q 177 905 188 851 q 195 923 186 917 q 214 935 204 929 q 240 871 224 897 q 275 830 255 846 q 315 807 294 814 q 356 800 336 800 q 401 807 377 800 q 450 830 425 814 q 497 871 474 846 q 539 935 520 897 q 555 924 549 929 q 568 905 562 918 "},"Ả":{"x_min":-23.984375,"x_max":726.421875,"ha":778,"o":"m 251 301 l 154 75 q 164 45 144 54 q 237 29 184 36 l 233 0 l -23 0 l -19 29 q 48 46 22 37 q 83 75 74 56 l 413 833 q 434 850 422 841 q 459 866 446 858 q 484 881 472 874 q 504 893 495 888 l 651 75 q 656 59 653 66 q 668 46 660 51 q 690 36 676 40 q 726 29 704 32 l 723 0 l 462 0 l 464 31 q 534 42 512 31 q 551 75 555 54 l 511 301 l 251 301 m 500 363 l 437 731 l 277 363 l 500 363 m 603 1121 q 585 1072 603 1093 q 546 1035 567 1051 q 506 1004 524 1018 q 489 972 489 989 q 495 955 489 965 q 517 935 501 945 q 498 927 507 929 q 478 925 489 926 q 441 953 452 940 q 431 978 431 966 q 439 998 431 988 q 460 1015 447 1007 q 487 1033 472 1024 q 515 1054 502 1043 q 536 1080 527 1066 q 545 1112 545 1093 q 536 1144 545 1131 q 506 1157 527 1157 q 483 1152 494 1157 q 464 1139 472 1147 q 453 1122 457 1131 q 453 1103 450 1112 q 441 1099 449 1101 q 424 1094 433 1096 q 407 1090 416 1091 q 393 1087 399 1088 l 386 1095 q 401 1132 386 1115 q 436 1162 415 1150 q 481 1182 457 1175 q 525 1189 505 1189 q 583 1169 564 1189 q 603 1121 603 1149 "},"ý":{"x_min":-123,"x_max":617.53125,"ha":628,"o":"m 606 583 q 593 524 606 560 q 552 427 580 487 q 478 276 524 366 q 367 55 432 185 q 276 -105 321 -33 q 183 -230 231 -178 q 84 -310 136 -282 q -24 -339 33 -339 q -62 -335 -44 -339 q -94 -327 -80 -332 q -115 -315 -107 -322 q -123 -304 -123 -309 q -116 -281 -123 -296 q -100 -251 -110 -267 q -79 -221 -91 -235 q -59 -203 -68 -208 q -30 -221 -42 -214 q -7 -230 -17 -227 q 14 -233 3 -233 q 37 -233 25 -233 q 145 -179 92 -233 q 254 -29 197 -126 q 238 59 248 9 q 216 160 228 108 q 191 265 204 213 q 165 364 178 318 q 141 447 153 410 q 119 505 129 484 q 92 550 103 539 q 70 561 81 561 q 53 558 64 561 q 31 552 41 556 q 3 544 18 549 l -4 569 q 49 594 24 582 q 96 615 75 606 q 132 629 117 624 q 156 635 148 635 q 173 630 165 635 q 187 615 180 625 q 200 588 193 605 q 214 548 206 571 q 242 462 227 512 q 273 354 258 412 q 304 235 289 297 q 331 112 319 173 q 375 199 353 154 q 417 287 397 243 q 455 370 438 330 q 485 443 472 410 q 506 500 499 476 q 514 537 514 524 q 478 571 514 571 q 416 556 456 574 l 404 581 q 490 622 453 610 q 550 635 527 635 q 572 633 561 635 q 589 626 582 631 q 601 610 597 620 q 606 583 606 600 m 617 932 l 376 696 q 360 703 365 698 q 345 719 355 708 l 530 989 q 547 984 537 987 q 569 977 558 981 q 591 970 581 974 q 607 962 601 966 l 617 932 "},"º":{"x_min":39.734375,"x_max":351,"ha":344,"o":"m 298 682 q 277 767 298 737 q 220 798 257 798 q 176 782 194 798 q 146 744 157 767 q 130 693 135 720 q 126 643 126 666 q 132 597 126 619 q 149 559 138 576 q 174 533 159 543 q 205 524 188 524 q 248 540 230 524 q 277 580 266 556 q 292 632 287 605 q 298 682 298 660 m 317 431 q 309 414 314 420 q 302 398 305 407 l 51 398 l 39 411 q 47 430 43 422 q 55 448 51 437 l 305 448 l 317 431 m 351 701 q 345 652 351 677 q 329 603 340 626 q 303 559 319 580 q 267 521 287 538 q 225 494 247 505 q 181 484 203 484 q 136 494 155 484 q 102 523 116 505 q 82 568 89 542 q 75 624 75 593 q 93 721 75 675 q 159 804 111 766 q 200 828 178 818 q 245 839 223 839 q 294 828 274 839 q 327 800 315 818 q 345 757 340 782 q 351 701 351 731 "},"∞":{"x_min":47.609375,"x_max":772.984375,"ha":814,"o":"m 198 290 q 233 292 217 290 q 266 304 249 295 q 305 330 284 313 q 358 374 326 346 q 336 411 348 392 q 307 445 324 430 q 269 471 290 461 q 220 481 247 481 q 173 471 191 481 q 143 448 155 462 q 127 418 132 434 q 120 390 122 403 q 121 360 118 377 q 133 327 124 342 q 159 300 143 311 q 198 290 174 290 m 623 491 q 586 486 603 491 q 551 473 569 482 q 511 447 533 463 q 460 406 488 430 q 482 369 469 388 q 512 335 495 350 q 551 310 529 319 q 600 301 573 301 q 647 310 628 301 q 677 333 665 319 q 694 362 689 347 q 701 391 699 378 q 699 421 703 403 q 686 454 696 438 q 661 480 677 469 q 623 491 646 491 m 275 569 q 330 558 305 569 q 375 530 355 547 q 411 491 396 513 q 439 447 427 469 q 510 504 478 481 q 568 542 541 528 q 619 562 595 556 q 666 569 642 569 q 710 557 689 569 q 746 525 731 545 q 768 478 761 505 q 771 418 775 450 q 744 343 765 380 q 692 277 723 306 q 622 231 661 249 q 545 213 584 213 q 489 223 514 213 q 443 251 463 234 q 406 290 422 268 q 378 334 390 312 q 303 273 334 296 q 246 235 271 249 q 200 217 221 222 q 153 213 178 213 q 109 224 130 213 q 73 256 88 236 q 51 303 59 276 q 49 363 44 331 q 75 438 54 401 q 128 504 96 475 q 197 551 159 533 q 275 569 236 569 "},"ź":{"x_min":-2.71875,"x_max":571.703125,"ha":526,"o":"m 526 599 q 425 480 470 539 q 338 359 381 420 q 252 233 296 298 q 155 101 208 169 q 173 107 157 102 q 210 112 189 112 q 247 105 224 112 q 297 91 269 99 q 352 76 324 82 q 405 70 380 70 q 420 71 411 70 q 439 80 429 73 q 461 103 449 88 q 487 143 474 118 l 511 130 q 478 60 492 88 q 447 16 463 32 q 408 -7 430 0 q 354 -14 387 -14 q 290 -6 320 -14 q 234 8 261 0 q 184 23 208 16 q 139 31 160 31 q 116 27 128 31 q 90 17 105 24 q 56 1 75 10 q 12 -21 37 -8 l -2 0 q 67 90 31 41 q 140 191 103 139 q 212 295 177 243 q 280 394 248 347 q 339 478 311 440 q 385 539 366 515 l 181 539 q 154 535 165 539 q 133 523 143 532 q 116 497 124 514 q 98 451 108 479 l 71 456 q 97 561 84 517 q 115 634 109 605 q 143 625 128 630 q 181 620 158 620 l 512 620 l 526 599 m 571 931 l 330 695 q 315 702 320 698 q 300 719 309 707 l 484 989 q 502 983 491 987 q 524 977 512 980 q 545 969 535 973 q 561 961 556 965 l 571 931 "},"Ư":{"x_min":113.796875,"x_max":976,"ha":925,"o":"m 976 962 q 959 897 976 928 q 915 841 943 867 q 851 793 888 815 q 772 754 814 771 l 715 347 q 673 189 703 258 q 601 73 644 120 q 501 3 557 27 q 377 -21 444 -21 q 275 -4 321 -21 q 195 45 229 12 q 144 125 162 78 q 126 236 126 173 q 132 313 126 271 l 198 783 q 178 803 199 791 q 113 825 157 815 l 117 854 l 395 854 l 391 825 q 322 804 348 815 q 294 783 296 792 l 234 345 q 232 306 232 325 q 232 268 232 286 q 243 182 232 221 q 277 116 255 144 q 334 73 300 88 q 412 58 368 58 q 493 79 456 58 q 559 137 530 101 q 606 220 587 173 q 631 317 625 266 l 694 783 q 676 803 695 791 q 613 825 657 815 l 617 855 l 849 855 q 864 911 864 878 q 858 937 864 923 q 833 962 853 952 l 946 1016 q 969 991 963 1006 q 976 962 976 977 "},"͟":{"x_min":-483.53125,"x_max":347.21875,"ha":0,"o":"m 347 -423 q 340 -440 345 -431 q 331 -459 336 -450 q 321 -477 326 -469 q 313 -492 316 -486 l -472 -492 l -483 -475 q -476 -459 -480 -469 q -468 -441 -472 -450 q -459 -422 -463 -431 q -450 -407 -454 -413 l 334 -407 l 347 -423 "},"ń":{"x_min":31.84375,"x_max":659.328125,"ha":686,"o":"m 659 48 q 554 -8 597 11 q 486 -28 511 -28 q 449 -6 462 -28 q 436 51 436 14 q 440 94 436 63 q 451 168 444 126 q 466 257 458 210 q 481 348 474 305 q 492 424 488 390 q 497 474 497 458 q 486 546 497 526 q 445 567 475 567 q 414 556 436 567 q 364 523 392 545 q 306 469 337 501 q 251 393 276 436 q 219 314 232 360 q 194 203 207 269 q 183 99 183 143 q 183 16 183 56 q 159 6 172 11 q 132 -5 146 0 q 105 -17 118 -11 q 84 -28 92 -23 l 62 -7 q 81 89 71 37 q 98 194 90 142 q 114 298 107 247 q 127 392 122 349 q 135 468 132 435 q 139 516 139 500 q 137 541 139 532 q 132 554 135 550 q 124 560 129 559 q 113 562 120 562 q 95 559 107 562 q 71 553 84 556 q 41 544 57 549 l 31 571 q 88 594 60 583 q 142 615 117 606 q 186 629 167 624 q 212 635 204 635 q 227 631 222 635 q 235 620 233 628 q 238 597 238 612 q 238 558 238 582 q 238 537 238 550 q 238 510 238 524 q 235 481 238 495 q 233 459 233 467 q 307 539 269 505 q 380 593 344 572 q 449 625 416 615 q 513 635 483 635 q 551 628 534 635 q 578 608 567 622 q 595 572 589 594 q 601 516 601 549 q 596 457 601 493 q 585 381 592 422 q 570 296 578 340 q 555 213 562 253 q 544 142 548 174 q 540 91 540 110 q 546 59 540 67 q 564 51 552 51 q 600 56 580 51 q 649 73 620 61 l 659 48 m 629 932 l 389 696 q 373 703 378 698 q 358 719 368 708 l 542 989 q 559 984 549 987 q 582 977 570 981 q 603 970 593 974 q 619 962 613 966 l 629 932 "},"Ḵ":{"x_min":0,"x_max":787.359375,"ha":747,"o":"m 391 825 q 323 804 349 816 q 295 783 297 793 l 248 439 l 559 765 q 581 793 576 783 q 582 811 587 804 q 561 820 577 817 q 523 825 546 823 l 527 855 l 787 855 l 783 825 q 746 820 762 823 q 717 812 730 817 q 693 801 704 808 q 672 783 682 794 l 343 455 l 580 104 q 600 82 590 90 q 626 75 611 75 q 664 80 642 75 q 718 99 686 86 l 730 75 q 679 39 704 55 q 633 13 655 23 q 592 -3 611 2 q 560 -9 573 -9 q 542 -7 550 -9 q 526 0 533 -5 q 511 12 518 4 q 495 34 503 20 l 247 432 l 198 70 q 218 50 196 62 q 282 29 239 38 l 278 0 l 0 0 l 4 29 q 72 49 46 38 q 99 70 98 60 l 198 783 q 179 804 200 791 q 113 825 158 816 l 118 855 l 396 855 l 391 825 m 541 -159 q 535 -176 539 -167 q 525 -195 531 -186 q 516 -213 520 -205 q 507 -228 511 -222 l 135 -228 l 124 -211 q 131 -195 127 -205 q 140 -177 135 -186 q 149 -158 144 -167 q 158 -143 153 -149 l 528 -143 l 541 -159 "},"":{"x_min":-23.734375,"x_max":767.015625,"ha":823,"o":"m -18 29 q 48 46 23 38 q 83 74 73 55 l 422 815 q 442 841 429 830 q 472 859 456 851 q 502 870 487 866 q 524 876 516 874 l 687 74 q 709 45 691 56 q 767 29 727 35 l 762 0 l 493 0 l 497 31 q 566 42 545 31 q 581 74 586 53 l 453 722 l 154 74 q 166 45 145 54 q 237 29 188 36 l 233 0 l -23 0 l -18 29 "},"ḹ":{"x_min":24,"x_max":504.90625,"ha":326,"o":"m 295 48 q 236 12 262 27 q 190 -10 211 -1 q 152 -23 169 -19 q 117 -28 134 -28 q 83 -7 98 -28 q 69 52 69 12 q 74 110 69 69 q 87 207 79 150 q 105 331 95 263 q 126 469 116 398 q 148 609 137 539 q 166 738 158 678 q 179 843 174 797 q 185 913 185 889 q 181 938 185 928 q 174 951 178 947 q 163 957 169 956 q 150 958 156 958 q 133 955 145 958 q 110 949 121 952 q 80 940 96 945 l 70 966 q 127 991 98 979 q 181 1011 156 1002 q 224 1025 205 1020 q 252 1031 243 1031 q 282 1018 271 1031 q 294 975 294 1006 q 288 902 294 948 q 275 795 283 855 q 256 666 267 735 q 234 527 245 597 q 212 388 223 456 q 194 261 202 319 q 181 158 186 203 q 176 91 176 114 q 182 59 176 67 q 199 51 188 51 q 235 56 215 51 q 287 73 256 61 l 295 48 m 151 -173 q 145 -210 151 -192 q 128 -244 139 -229 q 102 -269 117 -260 q 67 -279 86 -279 q 35 -266 46 -279 q 24 -231 24 -254 q 30 -194 24 -213 q 46 -160 36 -175 q 72 -134 57 -144 q 107 -125 88 -125 q 139 -137 128 -125 q 151 -173 151 -150 m 504 1265 q 498 1248 502 1257 q 488 1229 494 1238 q 479 1211 483 1219 q 471 1197 474 1202 l 98 1197 l 87 1213 q 94 1229 90 1219 q 102 1247 98 1238 q 112 1266 107 1257 q 120 1282 116 1275 l 492 1282 l 504 1265 "},"¤":{"x_min":71.203125,"x_max":510.65625,"ha":558,"o":"m 308 522 q 264 513 284 522 q 227 488 243 504 q 202 452 212 473 q 189 407 191 431 q 191 365 186 385 q 208 329 196 344 q 237 303 219 313 q 276 294 254 294 q 320 303 300 294 q 356 327 340 312 q 381 364 371 343 q 394 408 391 384 q 392 449 397 429 q 376 486 387 469 q 348 512 365 502 q 308 522 330 522 m 417 189 l 364 260 q 267 230 320 230 q 218 238 240 230 q 179 262 196 246 l 104 191 l 84 191 q 77 211 81 200 q 71 234 73 222 l 146 305 q 130 406 123 351 q 145 465 134 439 q 172 511 156 491 l 113 587 l 118 610 q 141 619 127 616 q 164 627 154 622 l 219 554 q 269 579 244 571 q 317 587 295 587 q 364 577 343 587 q 403 553 386 568 l 477 625 l 498 625 l 510 580 l 436 509 q 451 459 447 486 q 452 406 455 433 q 409 303 444 348 l 468 227 l 466 204 l 417 189 "},"Ǣ":{"x_min":-23.265625,"x_max":986.53125,"ha":993,"o":"m 555 778 q 551 789 556 785 q 537 791 545 793 q 520 784 529 790 q 505 766 511 778 l 374 499 l 518 499 l 555 778 m 936 165 q 909 63 922 106 q 888 0 896 19 l 361 0 l 366 29 q 433 49 408 38 q 460 70 458 61 l 510 445 l 346 445 l 161 75 q 168 45 151 55 q 233 29 185 35 l 231 0 l -23 0 l -19 29 q 47 46 22 37 q 82 75 73 55 l 431 768 q 431 787 436 780 q 411 802 425 795 q 373 814 396 808 q 321 825 350 819 l 325 855 l 971 855 l 986 837 q 978 799 983 820 q 966 757 972 778 q 954 717 960 736 q 942 685 947 698 l 914 685 q 916 737 916 716 q 911 770 916 757 q 899 787 907 782 q 878 793 890 793 l 656 793 l 615 499 l 863 499 l 876 480 q 861 460 869 470 q 844 439 852 449 q 826 421 835 429 q 810 407 817 413 q 792 424 802 417 q 769 436 783 431 q 738 442 756 440 q 694 445 720 445 l 608 445 l 561 104 q 563 86 559 94 q 579 72 566 78 q 616 64 592 67 q 681 61 640 61 l 758 61 q 807 64 787 61 q 844 79 827 67 q 877 114 861 91 q 911 177 892 137 l 936 165 m 901 1048 q 894 1031 899 1040 q 885 1012 890 1021 q 875 994 880 1002 q 867 980 870 985 l 494 980 l 484 996 q 490 1012 486 1002 q 499 1030 494 1021 q 508 1049 503 1040 q 517 1065 513 1058 l 888 1065 l 901 1048 "},"Ɨ":{"x_min":13.5625,"x_max":409.609375,"ha":389,"o":"m 354 417 l 259 417 l 210 71 q 230 51 209 62 q 295 29 251 39 l 291 0 l 13 0 l 18 29 q 86 50 61 39 q 113 71 111 61 l 160 417 l 66 417 l 55 434 l 64 455 q 74 479 69 468 l 169 479 l 210 784 q 191 804 212 792 q 127 826 170 816 l 132 855 l 409 855 l 405 826 q 337 805 362 816 q 309 784 311 793 l 267 479 l 361 479 l 374 463 l 354 417 "},"Ĝ":{"x_min":52,"x_max":721.296875,"ha":728,"o":"m 717 365 q 663 340 680 355 q 644 310 646 325 q 637 262 641 291 q 629 202 633 233 q 621 144 625 172 q 616 104 618 117 q 526 38 565 63 q 454 0 486 13 q 395 -16 422 -12 q 340 -21 367 -21 q 232 1 284 -21 q 140 68 180 24 q 76 175 100 111 q 52 320 52 239 q 66 450 52 385 q 109 576 81 516 q 174 687 136 636 q 258 775 212 738 q 386 847 316 820 q 538 875 457 875 q 582 870 558 875 q 629 856 606 865 q 675 834 653 847 q 715 805 698 821 q 712 790 719 802 q 692 765 705 779 q 666 737 680 751 q 643 716 652 724 l 624 720 q 587 756 606 741 q 544 778 567 770 q 495 790 521 787 q 439 794 469 794 q 376 776 413 794 q 302 728 339 758 q 240 656 268 701 q 193 559 213 611 q 163 452 174 506 q 153 350 153 397 q 175 224 153 277 q 231 136 197 171 q 308 83 266 100 q 393 67 351 67 q 465 77 430 67 q 524 106 500 88 l 551 310 q 549 323 552 317 q 530 337 545 330 q 485 350 515 344 q 404 365 455 357 l 408 395 l 721 395 l 717 365 m 684 943 q 669 923 674 930 q 653 913 664 917 l 507 1052 l 327 913 q 316 923 321 917 q 304 943 311 930 l 491 1148 l 553 1148 l 684 943 "},"p":{"x_min":-4.390625,"x_max":599,"ha":653,"o":"m 411 546 q 365 529 393 546 q 307 481 338 512 q 247 407 277 450 q 196 312 218 364 l 179 213 q 208 167 189 192 q 250 121 226 143 q 301 86 273 100 q 356 72 328 72 q 421 92 392 72 q 465 148 449 112 q 484 203 477 175 q 495 260 492 232 q 499 314 499 289 q 499 360 499 340 q 491 443 499 408 q 471 500 484 478 q 443 534 459 523 q 411 546 428 546 m 235 590 q 230 533 235 569 q 216 436 226 496 q 298 543 260 503 q 367 603 336 582 q 424 629 399 623 q 470 635 450 635 q 520 621 497 635 q 561 581 543 607 q 588 515 578 554 q 599 425 599 476 q 580 281 599 357 q 518 127 561 205 q 482 72 502 100 q 439 22 462 45 q 388 -13 415 0 q 332 -28 361 -28 q 287 -14 309 -28 q 244 22 265 0 q 203 73 222 44 q 165 130 183 101 l 142 4 q 117 -210 117 -135 q 118 -303 117 -284 q 95 -310 108 -306 q 67 -320 81 -314 q 39 -330 52 -325 q 17 -339 26 -335 l -4 -319 q 5 -258 -1 -300 q 22 -161 12 -217 q 43 -40 32 -106 q 67 93 55 25 q 90 227 79 161 q 109 351 101 294 q 123 450 118 407 q 128 515 128 493 q 125 540 128 531 q 117 553 122 549 q 107 559 113 558 q 96 561 102 561 q 79 558 90 561 q 56 552 68 556 q 28 544 43 549 l 19 569 q 76 594 47 582 q 131 615 105 606 q 175 629 156 624 q 203 635 195 635 q 225 625 216 635 q 235 590 235 616 "},"S":{"x_min":32,"x_max":593.015625,"ha":610,"o":"m 591 812 q 591 803 594 810 q 583 786 588 795 q 568 766 577 776 q 551 745 560 755 q 534 728 542 735 q 522 717 527 720 l 502 721 q 476 752 491 738 q 445 778 462 767 q 410 797 428 790 q 371 804 391 804 q 306 792 334 804 q 258 761 277 780 q 229 719 239 742 q 219 674 219 696 q 223 643 219 659 q 243 609 228 627 q 285 571 258 591 q 358 528 313 551 q 449 475 411 500 q 509 423 486 450 q 542 366 532 397 q 553 298 553 336 q 526 176 553 234 q 454 75 500 119 q 349 5 409 31 q 222 -21 289 -21 q 163 -12 196 -21 q 101 10 131 -3 q 52 42 72 25 q 32 77 32 60 q 40 101 32 86 q 59 133 48 117 q 83 160 70 148 q 104 172 95 172 q 124 155 112 172 q 154 118 135 138 q 200 81 173 98 q 268 65 228 65 q 345 78 309 65 q 407 116 380 92 q 448 173 433 140 q 464 243 464 205 q 455 295 464 271 q 427 342 447 319 q 373 387 407 365 q 288 434 339 410 q 214 479 243 455 q 168 528 184 503 q 144 579 151 553 q 138 629 138 604 q 158 718 138 674 q 216 796 179 762 q 307 853 254 831 q 426 875 361 875 q 517 856 475 875 q 591 812 559 837 "},"ễ":{"x_min":43,"x_max":633.78125,"ha":546,"o":"m 264 530 q 220 480 241 509 q 181 417 198 451 q 152 346 164 383 q 141 273 141 309 q 280 336 229 308 q 358 389 332 364 q 392 437 385 414 q 400 484 400 460 q 394 520 400 505 q 380 545 389 536 q 360 559 371 554 q 337 563 348 563 q 305 555 326 563 q 264 530 284 547 m 509 515 q 504 475 509 496 q 486 431 500 454 q 447 385 472 409 q 381 334 422 360 q 281 280 340 308 q 140 221 222 251 q 156 152 144 183 q 184 98 168 120 q 218 63 200 76 q 255 51 237 51 q 290 54 269 51 q 337 67 310 57 q 397 97 364 77 q 472 149 431 116 q 485 136 479 145 q 493 121 491 127 q 394 44 437 73 q 318 -1 352 14 q 258 -22 285 -17 q 207 -28 231 -28 q 156 -15 184 -28 q 102 24 127 -2 q 60 96 77 52 q 43 205 43 140 q 55 309 43 258 q 92 408 68 360 q 152 497 116 455 q 232 573 187 539 q 267 597 247 586 q 308 617 287 608 q 351 630 329 625 q 395 635 374 635 q 445 624 424 635 q 481 596 466 613 q 502 558 495 579 q 509 515 509 537 m 543 726 q 529 706 534 712 q 513 696 523 700 l 371 875 l 186 696 q 175 706 180 700 q 164 726 170 712 l 356 978 l 419 978 l 543 726 m 633 1231 q 601 1177 619 1204 q 562 1128 583 1150 q 517 1094 541 1107 q 466 1081 493 1081 q 427 1092 444 1081 q 394 1118 410 1104 q 362 1143 378 1131 q 328 1155 346 1155 q 280 1133 305 1155 q 227 1074 256 1112 l 198 1088 q 230 1142 212 1115 q 270 1190 248 1168 q 315 1224 291 1211 q 366 1238 340 1238 q 407 1226 388 1238 q 442 1201 425 1214 q 472 1175 458 1187 q 501 1164 487 1164 q 551 1185 525 1164 q 603 1244 577 1206 l 633 1231 "},"/":{"x_min":-75.28125,"x_max":640.1875,"ha":555,"o":"m 29 -193 q 11 -203 22 -198 q -11 -212 0 -208 q -35 -221 -23 -217 q -55 -227 -47 -225 l -75 -210 l 537 1051 q 577 1071 556 1063 q 619 1084 599 1079 l 640 1069 l 29 -193 "},"ⱡ":{"x_min":20.546875,"x_max":425.265625,"ha":418,"o":"m 390 434 l 257 434 q 240 322 248 376 q 225 224 232 269 q 216 144 219 179 q 213 91 213 110 q 219 59 213 67 q 236 51 225 51 q 273 56 252 51 q 324 73 293 61 l 332 48 q 273 12 299 27 q 227 -10 248 -1 q 189 -23 206 -19 q 154 -28 171 -28 q 120 -7 135 -28 q 106 52 106 12 q 110 105 106 68 q 122 193 114 142 q 139 306 129 244 q 158 434 148 368 l 33 434 l 20 450 q 30 473 24 461 q 41 495 35 485 l 168 495 q 173 532 171 514 q 179 570 176 550 l 47 570 l 34 586 q 43 609 38 597 q 55 631 49 621 l 188 631 q 202 722 195 678 q 213 802 208 765 q 220 867 217 839 q 223 912 223 895 q 219 937 223 928 q 212 950 216 946 q 200 956 207 955 q 188 958 194 958 q 170 954 182 958 q 147 948 158 951 q 117 939 133 944 l 107 966 q 164 990 135 979 q 218 1011 193 1002 q 261 1025 242 1020 q 289 1031 280 1031 q 319 1018 308 1031 q 331 975 331 1006 q 327 918 331 953 q 318 838 324 883 q 305 740 312 792 q 288 631 297 687 l 412 631 l 425 616 l 404 570 l 279 570 l 266 495 l 398 495 l 411 480 l 390 434 "},"Ọ":{"x_min":61,"x_max":736,"ha":757,"o":"m 635 512 q 622 620 635 569 q 586 708 610 670 q 528 767 563 745 q 449 790 493 790 q 356 770 397 790 q 283 716 315 750 q 229 639 251 683 q 192 547 206 595 q 170 452 177 500 q 164 360 164 403 q 177 243 164 297 q 214 151 190 190 q 273 90 239 112 q 349 68 307 68 q 443 89 402 68 q 517 144 485 110 q 571 225 548 179 q 607 320 593 271 q 628 420 622 370 q 635 512 635 470 m 736 525 q 728 427 736 476 q 704 329 720 377 q 665 236 688 281 q 611 152 641 191 q 550 84 582 116 q 481 29 518 52 q 405 -7 445 6 q 319 -21 364 -21 q 205 6 254 -21 q 125 82 157 34 q 76 194 92 130 q 61 328 61 257 q 68 419 61 371 q 91 515 76 467 q 126 608 105 563 q 174 690 147 653 q 236 762 203 728 q 306 820 269 795 q 387 860 344 845 q 478 875 430 875 q 593 847 544 875 q 673 771 642 819 q 720 659 705 723 q 736 525 736 596 m 387 -173 q 381 -210 387 -192 q 364 -244 375 -229 q 338 -269 353 -259 q 303 -278 322 -278 q 271 -266 282 -278 q 260 -231 260 -254 q 266 -194 260 -213 q 282 -160 272 -175 q 308 -134 293 -144 q 343 -125 324 -125 q 375 -137 364 -125 q 387 -173 387 -150 "},"̨":{"x_min":-486,"x_max":-245.625,"ha":1,"o":"m -257 -204 q -292 -240 -273 -222 q -330 -272 -310 -258 q -368 -294 -349 -286 q -405 -303 -388 -303 q -435 -299 -420 -303 q -461 -286 -450 -295 q -479 -262 -472 -277 q -486 -225 -486 -248 q -466 -150 -486 -186 q -418 -84 -447 -115 q -351 -28 -388 -53 q -279 16 -314 -3 l -245 12 q -301 -29 -273 -5 q -353 -80 -330 -53 q -390 -136 -376 -107 q -405 -195 -405 -165 q -392 -221 -405 -212 q -359 -231 -379 -231 q -321 -218 -344 -231 q -270 -180 -299 -206 l -257 -204 "},"̋":{"x_min":-347.21875,"x_max":47.46875,"ha":0,"o":"m -315 696 q -331 701 -325 697 q -347 713 -337 705 l -203 989 q -187 986 -196 988 q -168 982 -178 985 q -150 977 -159 980 q -136 972 -142 975 l -126 945 l -315 696 m -141 696 q -158 701 -151 697 q -173 713 -164 705 l -29 989 q -13 986 -23 988 q 4 982 -4 985 q 22 977 14 980 q 36 972 31 975 l 47 945 l -141 696 "},"y":{"x_min":-123,"x_max":606,"ha":628,"o":"m 606 583 q 593 524 606 560 q 552 427 580 487 q 478 276 524 366 q 367 55 432 185 q 276 -105 321 -33 q 183 -230 231 -178 q 84 -310 136 -282 q -24 -339 33 -339 q -62 -335 -44 -339 q -94 -327 -80 -332 q -115 -315 -107 -322 q -123 -304 -123 -309 q -116 -281 -123 -296 q -100 -251 -110 -267 q -79 -221 -91 -235 q -59 -203 -68 -208 q -30 -221 -42 -214 q -7 -230 -17 -227 q 14 -233 3 -233 q 37 -233 25 -233 q 145 -179 92 -233 q 254 -29 197 -126 q 238 59 248 9 q 216 160 228 108 q 191 265 204 213 q 165 364 178 318 q 141 447 153 410 q 119 505 129 484 q 92 550 103 539 q 70 561 81 561 q 53 558 64 561 q 31 552 41 556 q 3 544 18 549 l -4 569 q 49 594 24 582 q 96 615 75 606 q 132 629 117 624 q 156 635 148 635 q 173 630 165 635 q 187 615 180 625 q 200 588 193 605 q 214 548 206 571 q 242 462 227 512 q 273 354 258 412 q 304 235 289 297 q 331 112 319 173 q 375 199 353 154 q 417 287 397 243 q 455 370 438 330 q 485 443 472 410 q 506 500 499 476 q 514 537 514 524 q 478 571 514 571 q 416 556 456 574 l 404 581 q 490 622 453 610 q 550 635 527 635 q 572 633 561 635 q 589 626 582 631 q 601 610 597 620 q 606 583 606 600 "},"Π":{"x_min":0,"x_max":834.140625,"ha":800,"o":"m 0 0 l 3 29 q 71 49 46 38 q 98 70 96 60 l 197 783 q 178 803 198 791 q 114 825 157 816 l 118 855 l 834 855 l 830 825 q 761 804 786 816 q 734 783 735 792 l 635 70 q 655 50 634 62 q 718 29 676 38 l 715 0 l 440 0 l 443 29 q 511 49 486 38 q 537 70 536 60 l 632 752 q 626 768 633 760 q 604 783 619 776 q 567 794 590 790 q 514 799 545 799 l 413 799 q 362 794 384 799 q 324 783 339 790 q 300 769 308 777 q 290 752 291 761 l 195 70 q 215 50 194 62 q 278 29 236 38 l 275 0 l 0 0 "},"ˊ":{"x_min":135.640625,"x_max":406.90625,"ha":271,"o":"m 406 932 l 166 696 q 150 703 155 698 q 135 719 145 708 l 320 989 q 337 984 326 987 q 359 977 347 981 q 381 970 370 974 q 396 962 391 966 l 406 932 "},"Ḧ":{"x_min":0.15625,"x_max":872.4375,"ha":838,"o":"m 392 826 q 323 805 349 816 q 295 784 297 793 l 254 479 l 631 479 l 673 784 q 654 804 675 792 q 590 826 632 816 l 592 855 l 872 855 l 868 826 q 799 805 825 816 q 772 784 774 793 l 673 71 q 693 51 672 62 q 758 29 714 39 l 754 0 l 476 0 l 481 29 q 548 50 523 39 q 575 71 573 61 l 622 417 l 245 417 l 198 71 q 218 51 196 62 q 282 29 239 39 l 278 0 l 0 0 l 4 29 q 72 50 46 39 q 99 71 98 61 l 198 784 q 179 804 200 792 q 114 826 158 816 l 118 855 l 396 855 l 392 826 m 456 1051 q 449 1013 456 1032 q 432 979 443 994 q 406 954 422 964 q 371 945 390 945 q 337 957 349 945 q 325 992 325 969 q 331 1029 325 1011 q 349 1064 337 1048 q 376 1089 360 1079 q 411 1099 392 1099 q 444 1087 432 1099 q 456 1051 456 1074 m 709 1051 q 702 1013 709 1032 q 685 979 696 994 q 658 954 674 964 q 622 945 642 945 q 589 957 601 945 q 578 992 578 969 q 584 1030 578 1011 q 601 1064 590 1048 q 627 1090 611 1080 q 662 1100 643 1100 q 696 1087 683 1100 q 709 1051 709 1074 "},"–":{"x_min":29.15625,"x_max":516.09375,"ha":558,"o":"m 516 367 q 502 336 510 352 q 488 309 495 320 l 41 309 l 29 325 q 42 355 34 340 q 58 384 50 370 l 502 384 l 516 367 "},"ë":{"x_min":43,"x_max":558,"ha":546,"o":"m 264 530 q 220 481 241 510 q 181 417 198 451 q 152 346 164 383 q 141 273 141 309 q 280 336 229 308 q 358 390 332 364 q 392 438 385 415 q 400 485 400 461 q 394 521 400 506 q 380 545 389 536 q 360 559 371 555 q 337 564 348 564 q 305 556 326 564 q 264 530 284 548 m 509 515 q 504 475 509 496 q 486 432 500 454 q 447 385 472 409 q 381 334 422 360 q 281 280 340 308 q 140 221 222 252 q 156 152 144 183 q 184 98 168 120 q 218 63 199 76 q 255 51 237 51 q 290 54 269 51 q 337 67 310 57 q 397 97 364 77 q 472 149 431 116 q 485 136 479 145 q 493 121 491 127 q 394 44 437 73 q 318 -1 352 14 q 258 -22 285 -17 q 207 -28 231 -28 q 156 -15 184 -28 q 102 24 127 -2 q 60 96 77 52 q 43 205 43 140 q 55 309 43 258 q 92 408 68 360 q 152 497 116 455 q 232 573 187 539 q 267 597 247 586 q 308 617 287 608 q 351 630 329 625 q 395 635 374 635 q 445 624 424 635 q 481 596 466 613 q 502 558 495 580 q 509 515 509 537 m 305 855 q 298 818 305 836 q 281 784 292 799 q 255 759 271 769 q 220 750 239 750 q 186 762 198 750 q 174 797 174 774 q 180 834 174 815 q 198 868 186 853 q 225 894 209 884 q 260 904 241 904 q 293 891 281 904 q 305 855 305 878 m 558 855 q 551 818 558 836 q 534 784 545 799 q 507 759 523 769 q 471 750 491 750 q 438 762 450 750 q 427 797 427 774 q 433 834 427 815 q 450 868 439 853 q 476 894 460 884 q 511 904 492 904 q 545 891 532 904 q 558 855 558 878 "},"ƒ":{"x_min":-269,"x_max":612.625,"ha":379,"o":"m 612 952 q 582 930 598 942 q 550 908 565 918 q 521 892 534 898 q 500 886 508 886 q 482 897 491 886 q 462 924 473 909 q 437 950 451 938 q 404 962 423 962 q 358 946 378 962 q 324 905 339 931 q 298 847 309 880 q 280 779 287 814 q 268 709 272 743 q 259 645 263 674 l 255 614 l 429 614 l 443 595 q 424 574 436 585 q 400 553 413 563 q 375 534 387 543 q 356 522 363 526 q 346 538 353 532 q 327 548 339 544 q 296 552 314 552 q 253 552 278 552 l 249 552 q 239 463 244 511 q 229 366 234 415 q 219 270 224 317 q 208 179 213 222 q 198 102 203 137 q 190 45 194 68 q 158 -73 175 -24 q 119 -159 141 -121 q 68 -226 97 -196 q 1 -287 39 -256 q -38 -312 -16 -303 q -80 -328 -60 -322 q -119 -336 -101 -334 q -149 -339 -138 -339 q -190 -333 -169 -339 q -228 -320 -211 -328 q -257 -303 -245 -311 q -269 -287 -269 -294 q -260 -264 -269 -278 q -239 -236 -251 -250 q -216 -213 -228 -223 q -197 -204 -203 -204 q -182 -212 -191 -204 q -161 -232 -174 -221 q -127 -251 -147 -242 q -77 -260 -107 -260 q -23 -241 -47 -260 q 21 -189 1 -223 q 58 -104 42 -154 q 87 8 74 -54 q 100 82 94 40 q 111 172 106 124 q 122 271 117 220 q 131 371 127 321 q 140 468 136 421 q 148 553 144 514 l 46 553 l 36 574 l 104 614 l 156 614 q 172 718 163 668 q 198 813 181 768 q 242 897 215 858 q 311 968 268 936 q 346 992 329 981 q 381 1012 363 1004 q 417 1026 399 1021 q 457 1031 436 1031 q 511 1019 487 1031 q 554 995 535 1008 q 587 968 573 981 q 612 952 602 955 "},"ȟ":{"x_min":57.96875,"x_max":666.203125,"ha":685,"o":"m 656 48 q 552 -8 593 11 q 483 -28 511 -28 q 448 -6 463 -28 q 433 51 433 14 q 437 95 433 63 q 448 168 441 126 q 462 258 454 210 q 475 348 469 305 q 486 425 482 391 q 491 474 491 459 q 488 518 491 500 q 481 546 486 535 q 467 561 476 557 q 443 566 458 566 q 412 555 434 566 q 361 523 389 544 q 301 470 332 502 q 244 394 270 438 q 213 313 226 362 q 191 203 200 265 q 181 138 184 166 q 178 87 178 109 q 178 48 178 65 q 177 16 178 30 q 155 6 168 11 q 128 -5 142 0 q 101 -17 114 -11 q 80 -28 88 -23 l 57 -7 q 73 83 64 29 q 92 202 82 137 q 114 339 103 267 q 136 482 125 411 q 157 622 147 554 q 174 747 167 690 q 185 847 181 804 q 190 912 190 890 q 187 937 190 928 q 181 950 185 946 q 172 956 177 955 q 162 958 167 958 q 143 954 155 958 q 116 948 130 951 q 84 939 101 944 l 76 966 q 133 990 104 979 q 187 1011 162 1002 q 231 1025 212 1020 q 259 1031 250 1031 q 288 1018 278 1031 q 299 975 299 1006 q 294 921 299 959 q 284 835 290 883 q 269 730 278 786 q 253 623 261 675 q 239 527 246 571 q 228 460 232 484 q 306 542 267 508 q 381 596 345 576 q 451 625 418 616 q 515 635 485 635 q 576 608 558 635 q 595 515 595 581 q 590 456 595 491 q 579 380 586 421 q 566 296 573 339 q 552 213 558 252 q 541 142 545 174 q 537 91 537 110 q 545 59 537 67 q 561 51 553 51 q 600 56 580 51 q 645 73 620 62 l 656 48 m 480 1106 l 418 1106 l 287 1310 q 302 1327 297 1323 q 318 1340 307 1332 l 464 1202 l 644 1340 q 656 1328 652 1333 q 666 1310 660 1323 l 480 1106 "},"Ẏ":{"x_min":69.0625,"x_max":816.90625,"ha":777,"o":"m 497 0 l 194 0 l 198 29 q 281 55 257 42 q 307 77 305 68 l 347 373 q 315 480 334 423 q 272 593 295 537 q 224 698 248 649 q 176 782 199 748 q 161 798 169 792 q 142 807 153 804 q 115 811 131 811 q 75 808 98 811 l 69 837 q 109 847 87 842 q 153 856 131 852 q 194 863 174 860 q 226 866 213 866 q 260 839 244 866 q 292 785 275 816 q 325 720 308 755 q 356 649 341 685 q 385 578 372 613 q 408 512 398 543 q 423 459 418 482 l 633 780 q 630 809 645 799 q 568 825 614 818 l 572 855 l 816 855 l 812 825 q 746 807 770 816 q 710 780 721 798 l 445 367 l 405 77 q 409 68 404 73 q 424 55 413 62 q 454 42 436 48 q 501 29 473 35 l 497 0 m 547 1051 q 541 1013 547 1032 q 524 979 535 994 q 497 954 513 964 q 463 945 482 945 q 430 957 442 945 q 419 992 419 969 q 425 1029 419 1010 q 442 1064 431 1048 q 468 1089 453 1079 q 502 1099 483 1099 q 535 1086 523 1099 q 547 1051 547 1074 "},"J":{"x_min":-179,"x_max":426.59375,"ha":392,"o":"m 422 825 q 353 804 379 816 q 326 783 327 793 l 237 139 q 208 4 226 58 q 169 -86 191 -49 q 121 -148 147 -123 q 67 -195 95 -173 q 28 -221 49 -209 q -14 -241 6 -232 q -54 -253 -35 -249 q -84 -258 -72 -258 q -120 -251 -103 -258 q -150 -236 -137 -245 q -171 -219 -163 -228 q -179 -203 -179 -209 q -169 -185 -179 -197 q -146 -163 -159 -173 q -118 -144 -132 -152 q -96 -136 -105 -136 q -83 -142 -90 -136 q -66 -155 -75 -148 q -42 -168 -56 -162 q -6 -175 -27 -175 q 29 -163 9 -175 q 68 -122 48 -151 q 105 -40 88 -92 q 133 90 122 11 l 229 783 q 225 792 229 787 q 208 802 221 797 q 173 813 196 808 q 113 825 150 819 l 116 855 l 426 855 l 422 825 "},"ŷ":{"x_min":-123,"x_max":606,"ha":628,"o":"m 606 583 q 593 524 606 560 q 552 427 580 487 q 478 276 524 366 q 367 55 432 185 q 276 -105 321 -33 q 183 -230 231 -178 q 84 -310 136 -282 q -24 -339 33 -339 q -62 -335 -44 -339 q -94 -327 -80 -332 q -115 -315 -107 -322 q -123 -304 -123 -309 q -116 -281 -123 -296 q -100 -251 -110 -267 q -79 -221 -91 -235 q -59 -203 -68 -208 q -30 -221 -42 -214 q -7 -230 -17 -227 q 14 -233 3 -233 q 37 -233 25 -233 q 145 -179 92 -233 q 254 -29 197 -126 q 238 59 248 9 q 216 160 228 108 q 191 265 204 213 q 165 364 178 318 q 141 447 153 410 q 119 505 129 484 q 92 550 103 539 q 70 561 81 561 q 53 558 64 561 q 31 552 41 556 q 3 544 18 549 l -4 569 q 49 594 24 582 q 96 615 75 606 q 132 629 117 624 q 156 635 148 635 q 173 630 165 635 q 187 615 180 625 q 200 588 193 605 q 214 548 206 571 q 242 462 227 512 q 273 354 258 412 q 304 235 289 297 q 331 112 319 173 q 375 199 353 154 q 417 287 397 243 q 455 370 438 330 q 485 443 472 410 q 506 500 499 476 q 514 537 514 524 q 478 571 514 571 q 416 556 456 574 l 404 581 q 490 622 453 610 q 550 635 527 635 q 572 633 561 635 q 589 626 582 631 q 601 610 597 620 q 606 583 606 600 m 580 726 q 566 706 571 712 q 550 696 561 700 l 408 875 l 223 696 q 212 706 217 700 q 201 726 208 712 l 393 978 l 456 978 l 580 726 "},"ŕ":{"x_min":27.859375,"x_max":545.59375,"ha":493,"o":"m 520 576 q 502 550 512 565 q 482 520 492 534 q 464 495 473 505 q 448 485 455 485 q 426 492 435 485 q 409 508 417 499 q 393 524 401 517 q 375 532 386 532 q 334 507 358 532 q 287 444 310 483 q 242 357 263 405 q 206 259 220 308 q 192 203 198 234 q 182 139 186 172 q 178 75 178 107 q 178 16 178 44 q 155 6 168 12 q 128 -5 142 0 q 101 -17 114 -11 q 80 -27 88 -23 l 58 -6 q 78 92 68 41 q 96 195 87 144 q 111 295 104 246 q 123 386 118 344 q 131 461 128 428 q 135 515 135 495 q 132 540 135 531 q 126 553 130 549 q 117 559 122 558 q 107 561 112 561 q 88 558 100 561 q 65 552 77 556 q 37 544 52 549 l 27 569 q 85 594 56 582 q 139 615 114 606 q 183 629 164 624 q 209 635 201 635 q 224 631 219 635 q 232 619 230 628 q 235 595 235 611 q 235 556 235 580 q 233 531 235 549 q 228 493 231 514 q 223 452 225 472 q 218 419 220 432 q 279 528 250 486 q 335 594 308 570 q 384 626 361 618 q 430 635 408 635 q 452 628 442 635 q 472 611 462 621 q 494 592 482 602 q 520 576 505 582 m 545 932 l 304 696 q 288 703 294 698 q 274 719 283 708 l 458 989 q 476 984 465 987 q 498 977 486 981 q 519 970 509 974 q 535 962 530 966 l 545 932 "},"ṝ":{"x_min":27.328125,"x_max":546.953125,"ha":493,"o":"m 520 576 q 502 550 512 565 q 482 520 492 534 q 464 495 473 505 q 448 485 455 485 q 426 492 435 485 q 409 508 417 499 q 393 524 401 516 q 375 531 386 531 q 334 507 358 531 q 287 444 310 483 q 242 357 263 405 q 206 259 220 308 q 192 203 198 234 q 182 139 186 172 q 178 75 178 107 q 178 16 178 43 q 155 6 168 12 q 127 -5 141 0 q 100 -17 113 -11 q 79 -27 88 -23 l 57 -6 q 77 92 67 41 q 95 195 86 144 q 110 295 103 246 q 122 386 117 344 q 130 461 127 428 q 134 515 134 495 q 131 540 134 531 q 125 553 129 549 q 116 559 121 558 q 106 561 111 561 q 88 558 99 561 q 65 552 76 556 q 36 544 51 549 l 27 569 q 84 594 55 582 q 138 615 113 606 q 182 629 164 624 q 209 635 201 635 q 224 631 219 635 q 232 619 230 628 q 235 595 235 611 q 235 556 235 580 q 233 531 235 549 q 228 493 231 514 q 223 452 225 472 q 218 419 220 432 q 279 528 250 486 q 335 594 308 570 q 384 626 361 618 q 430 635 408 635 q 452 628 442 635 q 472 611 462 621 q 494 592 482 602 q 520 576 505 582 m 156 -173 q 150 -210 156 -192 q 133 -244 144 -229 q 106 -269 122 -260 q 72 -279 91 -279 q 39 -266 51 -279 q 28 -231 28 -254 q 34 -194 28 -213 q 51 -160 40 -175 q 77 -134 62 -144 q 111 -125 92 -125 q 144 -137 132 -125 q 156 -173 156 -150 m 546 853 q 540 836 544 845 q 531 817 536 826 q 521 799 525 807 q 513 785 516 790 l 140 785 l 129 801 q 136 817 132 807 q 144 835 140 826 q 154 854 149 845 q 163 870 159 863 l 534 870 l 546 853 "},"˘":{"x_min":88.15625,"x_max":480.140625,"ha":423,"o":"m 480 905 q 427 813 455 850 q 371 754 400 776 q 314 721 343 731 q 259 712 286 712 q 203 721 229 712 q 155 754 177 731 q 116 814 133 777 q 88 905 99 851 q 106 923 97 917 q 125 935 115 929 q 150 871 134 897 q 186 830 166 846 q 226 807 205 814 q 267 800 247 800 q 312 807 288 800 q 361 830 337 814 q 408 871 385 846 q 450 935 431 897 q 466 924 460 929 q 480 905 473 918 "},"ẋ":{"x_min":-19.265625,"x_max":606,"ha":611,"o":"m 595 48 q 543 13 565 28 q 503 -10 521 0 q 470 -23 485 -19 q 443 -28 456 -28 q 402 -6 422 -28 q 361 50 381 14 q 321 132 341 85 q 282 228 301 178 q 246 181 266 207 q 204 125 226 155 q 157 62 181 95 q 108 -7 132 28 q 52 -15 83 -10 q -3 -28 21 -20 l -19 -4 q 47 58 11 22 q 120 133 83 94 q 193 213 157 173 q 259 290 228 254 q 220 391 239 342 q 183 477 201 440 q 146 538 164 515 q 112 561 129 561 q 92 558 106 561 q 64 552 79 555 q 28 543 47 548 l 18 569 q 73 593 47 581 q 121 614 99 605 q 158 629 142 624 q 180 635 173 635 q 218 611 199 635 q 256 550 237 588 q 296 462 276 512 q 337 361 317 413 q 391 429 365 394 q 437 493 417 463 q 470 542 458 522 q 483 567 483 563 q 480 580 483 574 q 472 588 478 585 q 452 591 465 591 q 417 589 439 591 l 417 617 q 496 631 461 627 q 547 635 530 635 q 593 624 580 635 q 606 599 606 613 q 589 562 606 585 q 542 502 573 538 q 465 416 511 465 q 360 300 419 366 q 397 206 379 252 q 434 127 416 161 q 468 71 451 92 q 501 51 485 51 q 537 55 516 51 q 583 73 558 60 l 595 48 m 457 855 q 451 818 457 836 q 434 784 445 799 q 408 759 423 769 q 373 750 392 750 q 341 762 352 750 q 330 797 330 774 q 336 834 330 815 q 352 868 342 853 q 378 894 363 884 q 413 904 394 904 q 445 891 434 904 q 457 855 457 878 "},"D":{"x_min":0.015625,"x_max":731,"ha":759,"o":"m 731 505 q 719 384 731 445 q 684 268 707 324 q 627 163 661 212 q 548 77 593 113 q 447 20 503 41 q 326 0 392 0 l 0 0 l 4 29 q 72 49 46 38 q 99 70 98 61 l 200 808 l 97 797 l 97 840 q 251 867 175 859 q 397 875 327 875 q 538 848 477 875 q 643 773 600 822 q 708 657 686 725 q 731 505 731 589 m 342 817 l 321 817 q 301 817 311 817 l 202 94 q 205 77 201 84 q 221 65 209 70 q 254 59 232 61 q 308 57 275 57 q 401 75 359 57 q 478 127 443 94 q 539 203 513 159 q 584 295 566 246 q 611 394 602 343 q 621 492 621 445 q 602 624 621 565 q 549 726 584 684 q 461 793 513 769 q 342 817 409 817 "},"ĺ":{"x_min":69,"x_max":502,"ha":326,"o":"m 295 48 q 236 12 262 27 q 190 -10 211 -1 q 152 -23 169 -19 q 117 -28 134 -28 q 83 -7 98 -28 q 69 52 69 12 q 74 110 69 69 q 87 207 79 150 q 105 330 95 263 q 127 468 116 398 q 148 608 138 539 q 167 737 159 677 q 180 843 175 797 q 186 912 186 888 q 182 937 186 928 q 175 950 179 946 q 163 956 170 955 q 151 958 157 958 q 133 954 145 958 q 110 948 121 951 q 80 939 96 944 l 70 966 q 127 990 98 979 q 181 1011 156 1002 q 224 1025 205 1020 q 252 1031 243 1031 q 282 1018 271 1031 q 294 975 294 1006 q 288 901 294 948 q 275 794 283 855 q 256 665 267 734 q 235 526 246 597 q 213 387 224 456 q 194 261 202 319 q 181 158 186 202 q 176 91 176 114 q 182 59 176 67 q 199 51 188 51 q 236 56 215 51 q 287 73 256 61 l 295 48 m 502 1295 l 193 1130 q 180 1142 183 1136 q 170 1161 176 1148 l 436 1375 l 451 1365 q 470 1352 460 1359 q 489 1339 480 1345 q 502 1327 497 1332 l 502 1295 "},"ł":{"x_min":29.421875,"x_max":370.390625,"ha":353,"o":"m 309 48 q 250 12 276 27 q 204 -10 225 -1 q 166 -23 183 -19 q 131 -28 148 -28 q 97 -7 112 -28 q 83 52 83 12 q 87 105 83 68 q 99 193 91 142 q 116 307 106 245 q 135 435 125 369 l 41 369 l 29 382 q 32 396 31 391 q 35 406 33 401 q 40 419 36 411 q 50 441 43 426 l 147 509 q 167 637 157 574 q 183 754 176 700 q 195 849 191 808 q 200 912 200 890 q 196 937 200 928 q 189 950 193 946 q 177 956 184 955 q 165 958 171 958 q 147 954 159 958 q 124 948 135 951 q 94 939 110 944 l 84 966 q 141 990 112 979 q 195 1011 170 1002 q 238 1025 219 1020 q 266 1031 257 1031 q 296 1018 285 1031 q 308 975 308 1006 q 303 911 308 951 q 293 819 299 871 q 277 709 286 768 q 258 587 268 650 l 354 654 l 370 639 l 364 622 q 361 612 363 616 q 356 601 359 607 q 348 584 354 595 l 247 512 q 226 378 236 444 q 207 255 215 312 q 194 156 199 199 q 190 91 190 113 q 196 59 190 67 q 213 51 202 51 q 250 56 229 51 q 301 73 270 61 l 309 48 "},"":{"x_min":169,"x_max":311.421875,"ha":305,"o":"m 203 517 q 187 509 195 511 q 169 507 179 507 l 169 1001 q 193 1011 178 1005 q 225 1022 208 1017 q 256 1031 241 1027 q 279 1037 270 1035 l 311 1019 l 203 517 "},"$":{"x_min":-11,"x_max":539.046875,"ha":558,"o":"m 169 645 q 173 618 169 632 q 189 589 177 604 q 221 558 200 574 q 273 523 241 541 l 308 767 q 250 755 276 767 q 206 725 225 743 q 178 686 188 707 q 169 645 169 665 m 416 233 q 410 273 416 254 q 391 309 404 292 q 357 344 378 327 q 307 379 336 362 l 263 64 q 323 86 295 70 q 371 124 351 102 q 404 174 392 146 q 416 233 416 201 m 537 776 q 534 760 541 773 q 515 732 526 747 q 490 703 503 716 q 471 686 477 690 l 452 689 q 412 731 436 712 q 361 761 388 751 l 323 497 q 404 449 370 472 q 459 400 437 425 q 490 347 480 375 q 501 283 501 318 q 481 184 501 232 q 428 97 462 136 q 349 29 394 57 q 252 -11 303 0 l 240 -93 q 230 -102 234 -99 q 222 -107 226 -105 q 212 -110 217 -109 q 199 -113 207 -111 l 185 -99 l 196 -21 q 187 -21 192 -21 q 177 -21 182 -21 q 120 -12 153 -21 q 58 9 88 -4 q 9 39 29 22 q -11 73 -11 56 q -3 96 -11 81 q 15 126 4 111 q 38 152 26 141 q 60 164 50 164 q 78 149 66 164 q 106 116 89 134 q 148 81 123 98 q 208 61 173 65 l 256 406 l 240 414 q 169 458 198 435 q 122 505 140 481 q 97 553 104 528 q 90 600 90 577 q 106 675 90 638 q 152 744 122 713 q 224 798 182 776 q 317 830 266 821 l 328 907 q 340 915 336 913 q 347 919 344 917 q 354 922 350 921 q 367 926 358 923 l 382 911 l 371 835 l 372 835 q 463 817 420 835 q 537 776 506 799 "},"w":{"x_min":3.15625,"x_max":867,"ha":875,"o":"m 867 583 q 863 541 867 565 q 851 484 860 517 q 825 406 841 451 q 783 303 809 362 q 720 170 757 244 q 632 1 683 95 q 618 -5 625 -2 q 601 -13 610 -9 q 584 -21 592 -17 q 569 -27 576 -25 l 547 -6 q 536 75 542 31 q 524 165 530 120 q 510 256 517 211 q 497 341 504 301 q 483 414 490 381 q 471 468 477 447 q 462 424 471 453 q 441 357 454 396 q 409 274 427 318 q 370 182 391 229 q 326 90 349 135 q 281 6 304 45 q 266 -1 275 3 q 248 -10 258 -5 q 229 -20 239 -15 q 214 -27 220 -25 l 192 -6 q 182 77 187 31 q 172 173 177 124 q 161 272 167 222 q 150 365 156 321 q 139 446 145 409 q 127 505 134 482 q 118 534 123 523 q 105 551 112 545 q 92 559 99 557 q 79 561 85 561 q 62 558 73 561 q 40 552 51 556 q 12 544 27 549 l 3 570 q 57 594 31 583 q 104 615 83 606 q 141 629 125 624 q 165 635 157 635 q 194 612 184 635 q 215 542 203 590 q 225 488 219 523 q 236 412 230 454 q 247 324 242 370 q 258 237 253 278 q 265 162 262 196 q 269 112 269 129 q 325 228 296 165 q 377 354 353 291 q 417 478 401 418 q 434 586 434 538 q 456 604 444 595 q 480 619 468 612 q 503 630 492 626 q 521 635 513 635 q 528 623 524 635 q 537 594 532 612 q 547 551 541 575 q 557 502 552 527 l 566 452 q 574 407 571 427 q 586 336 579 375 q 599 257 592 297 q 611 175 605 216 q 620 99 617 134 q 703 264 671 193 q 754 389 736 335 q 778 479 772 442 q 785 542 785 516 q 775 564 785 556 q 747 573 765 573 q 724 570 738 573 q 695 562 710 567 l 683 587 q 727 610 706 601 q 765 624 748 619 q 793 632 782 630 q 809 635 805 635 q 831 633 821 635 q 849 626 841 631 q 862 610 857 620 q 867 583 867 600 "},"":{"x_min":0,"x_max":575.09375,"ha":623,"o":"m 575 165 q 547 63 561 106 q 524 0 533 19 l 0 0 l 4 29 q 72 49 46 38 q 99 70 98 61 l 140 364 l 38 364 l 28 380 q 36 402 31 391 q 47 425 42 414 l 148 425 l 198 783 q 179 803 200 791 q 113 825 158 815 l 118 854 l 396 854 l 391 825 q 323 804 349 815 q 295 783 297 792 l 246 425 l 404 425 l 417 409 l 395 364 l 238 364 l 202 104 q 205 83 201 92 q 222 70 209 75 q 256 63 234 65 q 312 61 278 61 l 398 61 q 447 64 427 61 q 483 79 467 67 q 514 114 499 91 q 548 177 529 137 l 575 165 "}}}
